<?xml version="1.0" encoding="UTF-8" standalone="no"?>
<!-- Generator: Adobe Illustrator 12.0.0, SVG Export Plug-In . SVG Version: 6.00 Build 51448)  -->

<svg
   xmlns:dc="http://purl.org/dc/elements/1.1/"
   xmlns:cc="http://creativecommons.org/ns#"
   xmlns:rdf="http://www.w3.org/1999/02/22-rdf-syntax-ns#"
   xmlns:svg="http://www.w3.org/2000/svg"
   xmlns="http://www.w3.org/2000/svg"
   xmlns:sodipodi="http://sodipodi.sourceforge.net/DTD/sodipodi-0.dtd"
   xmlns:inkscape="http://www.inkscape.org/namespaces/inkscape"
   version="1.1"
   id="Layer_1"
   width="243.61841"
   height="345.82132"
   viewBox="0 0 243.61841 345.82132"
   overflow="visible"
   enable-background="new 0 0 418 312"
   xml:space="preserve"
   inkscape:version="0.48.4 r9939"
   sodipodi:docname="Alveolus_US_diagram.svg"
   style="overflow:visible"><sodipodi:namedview
     pagecolor="#ffffff"
     bordercolor="#666666"
     borderopacity="1"
     objecttolerance="10"
     gridtolerance="10"
     guidetolerance="10"
     inkscape:pageopacity="0"
     inkscape:pageshadow="2"
     inkscape:window-width="1680"
     inkscape:window-height="1026"
     id="namedview644"
     showgrid="false"
     inkscape:zoom="1.3782051"
     inkscape:cx="272.9451"
     inkscape:cy="265.29201"
     inkscape:window-x="0"
     inkscape:window-y="24"
     inkscape:window-maximized="1"
     inkscape:current-layer="Layer_1"
     showguides="true"
     inkscape:guide-bbox="true"
     fit-margin-top="0"
     fit-margin-left="0"
     fit-margin-right="-0.5"
     fit-margin-bottom="0" /><metadata
     id="metadata648"><rdf:RDF><cc:Work
         rdf:about=""><dc:format>image/svg+xml</dc:format><dc:type
           rdf:resource="http://purl.org/dc/dcmitype/StillImage" /><dc:title></dc:title></cc:Work></rdf:RDF></metadata><defs
     id="defs646"><marker
       style="overflow:visible"
       id="Arrow1Mend"
       refX="0"
       refY="0"
       orient="auto"
       inkscape:stockid="Arrow1Mend"><path
         transform="matrix(-0.4,0,0,-0.4,-4,0)"
         style="fill-rule:evenodd;stroke:#000000;stroke-width:1pt"
         d="M 0,0 5,-5 -12.5,0 5,5 0,0 z"
         id="path4579"
         inkscape:connector-curvature="0" /></marker><marker
       style="overflow:visible"
       id="Arrow1Mstart"
       refX="0"
       refY="0"
       orient="auto"
       inkscape:stockid="Arrow1Mstart"><path
         transform="matrix(0.4,0,0,0.4,4,0)"
         style="fill-rule:evenodd;stroke:#000000;stroke-width:1pt"
         d="M 0,0 5,-5 -12.5,0 5,5 0,0 z"
         id="path4576"
         inkscape:connector-curvature="0" /></marker><marker
       style="overflow:visible"
       id="Arrow2Lend"
       refX="0"
       refY="0"
       orient="auto"
       inkscape:stockid="Arrow2Lend"><path
         transform="matrix(-1.1,0,0,-1.1,-1.1,0)"
         d="M 8.7185878,4.0337352 -2.2072895,0.01601326 8.7185884,-4.0017078 c -1.7454984,2.3720609 -1.7354408,5.6174519 -6e-7,8.035443 z"
         style="fill-rule:evenodd;stroke-width:0.625;stroke-linejoin:round"
         id="path4591"
         inkscape:connector-curvature="0" /></marker><marker
       style="overflow:visible"
       id="Arrow1Lend"
       refX="0"
       refY="0"
       orient="auto"
       inkscape:stockid="Arrow1Lend"><path
         transform="matrix(-0.8,0,0,-0.8,-10,0)"
         style="fill-rule:evenodd;stroke:#000000;stroke-width:1pt"
         d="M 0,0 5,-5 -12.5,0 5,5 0,0 z"
         id="path4573"
         inkscape:connector-curvature="0" /></marker><marker
       style="overflow:visible"
       id="Arrow1MstartW"
       refX="0"
       refY="0"
       orient="auto"
       inkscape:stockid="Arrow1MstartW"><path
         transform="matrix(0.4,0,0,0.4,4,0)"
         style="fill:#005dff;fill-rule:evenodd;stroke:#005dff;stroke-width:1pt"
         d="M 0,0 5,-5 -12.5,0 5,5 0,0 z"
         id="path7254"
         inkscape:connector-curvature="0" /></marker></defs><radialGradient
     gradientTransform="matrix(0.99999402,0,0,1.0021737,-148.94191,58.704258)"
     gradientUnits="userSpaceOnUse"
     r="110.619"
     cy="148.8765"
     cx="277.3389"
     id="XMLID_14_"><stop
       id="stop10"
       style="stop-color:#3F3F3F"
       offset="0.0056" /><stop
       id="stop12"
       style="stop-color:#686868"
       offset="0.3287" /><stop
       id="stop14"
       style="stop-color:#C8C8C8"
       offset="1" /></radialGradient><path
     inkscape:connector-curvature="0"
     style="fill:url(#XMLID_14_)"
     id="path16"
     d="m 82.21072,116.79943 c 4.55297,0.0371 8.866946,-1.74079 13.755916,0.99517 7.030954,3.93356 10.847954,12.2787 9.093954,19.9213 5.52094,-13.35502 12.59288,-16.97588 26.78782,-11.80966 2.784,-6.18946 -1.786,-11.11417 6.93694,-15.75726 6.51,-3.46553 11.97894,0.21647 17.86294,-0.29765 4.82094,-0.42292 7.73694,-5.38671 12.52088,-6.84287 6.535,-1.98732 15.26194,1.29181 20.82088,4.85255 2.264,1.45015 11.89094,10.89167 10.23094,13.89421 3.95,-7.14956 11.07394,0.0832 13.61594,4.79442 4.79894,8.88831 2.51,18.76778 3.30599,28.08302 5.83095,-1.49926 12.06789,8.36518 14.34689,12.81486 5.422,10.59596 7.43394,27.53069 -5.70594,33.73616 6.32994,6.17139 13.63188,17.17025 16.51588,25.95931 1.849,5.6312 2.391,11.78255 1.147,17.52701 -1.009,4.66814 -3.514,7.95524 -3.418,12.9511 0.241,12.60232 8.59194,30.64647 -6.50494,38.91038 -7.65494,4.19109 -15.09394,-1.85402 -22.33188,-0.80774 -3.96795,0.57323 -10.44394,1.68063 -14.74588,2.59361 -6.835,1.44914 -12.94694,6.96913 -19.47088,10.42961 -6.781,3.59481 -12.68494,5.61019 -20.42188,4.20013 -4.999,-0.90998 -10.98194,-2.66377 -15.12494,-5.79656 -2.901,-2.19277 -4.40194,-6.59132 -7.06994,-8.67582 -3.92,-3.06466 -7.57694,-1.17457 -12.11494,-2.49743 -5.59794,-1.63054 -3.782,-5.92985 -7.92094,-8.25389 -5.971,-3.35327 -11.06194,7.08436 -18.355894,6.63939 -5.483967,-0.33472 -9.533942,-4.12293 -15.08291,-5.60417 -6.953958,-1.85502 -25.340849,2.39222 -29.606822,-1.75678 -3.44198,-3.34627 -1.448992,-2.77101 0.203997,-7.03828 2.609987,-6.7356 5.544969,-10.9688 6.89096,-18.21048 1.888989,-10.17207 0.603997,-27.71512 -10.827936,-32.46645 -5.356967,-2.22681 -8.364949,-0.001 -13.012922,-4.91363 -3.648977,-3.85938 -5.742965,-9.03761 -8.483947,-13.51733 -8.414952,-13.75883 -8.545951,-27.09776 -8.317952,-42.74973 0.068,-4.72827 1.266994,-9.82033 -0.331999,-14.33314 -1.507989,-4.25023 -6.163962,-6.72762 -4.282973,-11.82369 2.194987,-5.94091 9.491942,-7.92522 13.687918,-11.15123 -3.728978,-3.99869 -0.154,-14.97156 3.846976,-17.80371 6.806959,-4.81847 14.829911,-1.17355 19.95888,3.97965 3.959977,-4.73329 7.534958,-8.38122 13.519922,-7.75886 5.984964,0.62235 9.82394,5.98099 15.08091,7.23973 1.015994,0.24253 2.015988,0.33573 3.001982,0.34475 z" /><g
     transform="matrix(0.99999402,0,0,1.0021737,-148.94191,58.704258)"
     id="g126"><g
       id="g128"><path
         style="fill:#ff7f00;stroke:#ff4000;stroke-width:0.37090001"
         inkscape:connector-curvature="0"
         id="path130"
         d="m 190.833,248.205 c -0.681,-0.955 0.922,-2.284 1.784,-1.225 0.456,-0.63 1.131,-0.72 1.697,-0.212 0.268,-1.062 1.447,-1.635 1.891,-0.419 -0.334,-0.914 1.158,-0.157 1.434,0.093 0.747,0.674 0.305,2.344 -0.085,3.047 -0.457,0.822 -0.576,2.462 -2.018,1.755 -0.394,0.674 -1.222,1.242 -1.842,0.613 -0.255,0.935 -1.449,1.333 -2.065,0.622 -0.6,0.542 -1.167,-0.261 -1.855,-0.441 -0.803,-0.209 -1.478,-0.251 -1.34,-1.286 0.048,-0.354 0.719,-2.323 1.315,-1.266 -0.447,-0.792 0.197,-2.224 1.084,-1.281 z" /><path
         style="fill:#ffbf00"
         inkscape:connector-curvature="0"
         id="path132"
         d="m 189.934,249.801 c -0.997,-0.913 -1.413,1.257 -0.185,1.076 -0.228,0.458 0.303,0.966 0.709,0.632 -0.045,0.759 0.85,0.72 1.078,0.153 0.111,0.657 1.021,0.823 1.249,0.175 -0.574,0.43 -1.091,-0.267 -0.872,-0.805 -0.513,-0.1 -0.443,0.51 -0.742,0.537 -0.368,0.032 -0.514,-0.591 -0.18,-0.769 -0.464,-0.025 -1.388,0.051 -0.775,-0.756 -0.062,-0.007 -0.132,-0.022 -0.195,-0.023 -0.133,-0.846 0.342,-1.223 1.144,-1.132 -0.4,0.215 -0.995,0.506 -0.695,1.147 0.253,0.542 0.655,0.395 0.999,0.081 -0.245,0.479 0.316,0.709 0.616,0.385 -0.147,0.337 0.001,0.764 0.389,0.836 -0.088,-0.46 -0.355,-1.08 0.298,-1.312 -0.333,0.016 -0.867,0.388 -1.142,0.166 -0.469,-0.379 0.143,-1.276 0.675,-1.164 -0.815,-0.124 -0.913,0.489 -1.35,0.92 -0.124,-0.598 0.332,-1.076 0.845,-1.273 -0.542,0.017 -0.02,-0.913 0.428,-0.962 -0.321,-0.042 -0.641,0.073 -0.767,0.381 -0.293,-0.182 -0.336,-0.738 -0.006,-0.931 -0.562,0.222 -0.756,0.805 -0.473,1.332 -0.698,-0.749 -1.584,0.317 -1.153,1.042 -0.176,0.037 -0.395,0.146 -0.514,0.262" /><path
         style="fill:#f16422"
         inkscape:connector-curvature="0"
         id="path134"
         d="m 193.873,251.269 c 0.84,0.306 1.138,-1 0.801,-1.536 0.227,0.084 0.427,0.284 0.572,0.448 0.021,-0.112 0.089,-0.18 0.111,-0.29 0.848,0.378 1.211,-0.767 0.548,-1.254 0.06,-0.008 0.175,-0.078 0.272,-0.083 0.038,-0.334 -0.277,-0.488 -0.58,-0.526 0.046,-0.045 0.096,-0.131 0.125,-0.163 -0.5,-0.306 -0.887,0.011 -1.292,0.305 -0.123,-0.655 -1.068,-0.192 -1.195,0.234 -0.187,-0.393 -0.712,-0.366 -1.055,-0.157 0.128,-0.678 0.854,-0.691 1.376,-0.622 -0.056,-0.093 -0.078,-0.276 -0.138,-0.365 0.758,0.309 0.622,-0.331 0.012,-0.554 0.699,0.101 0.83,0.449 1.282,0.77 0.015,-0.747 1.001,0.05 1.249,-0.125 0.714,-0.497 -0.45,-1.254 -0.912,-1.278 0.701,-0.35 1.122,0.426 1.232,1 0.071,-0.083 0.231,-0.148 0.282,-0.204 0.021,0.221 0.018,0.457 0.02,0.679 0.916,0.095 0.232,-1.072 0.019,-1.37 0.953,0.02 1.271,1.485 0.504,1.919 0.404,0.383 0.589,1.175 0.178,1.606 0.171,-0.56 -0.243,-1.194 -0.852,-1.128 0.162,0.388 0.039,0.859 0.161,1.214 0.108,-0.089 0.277,-0.096 0.37,-0.202 0.419,0.625 -0.1,1.36 -0.767,1.433 0.513,-0.352 0.589,-1.09 -0.143,-1.05 -0.232,0.012 -0.824,0.287 -0.917,0.526 0.679,0.215 -0.247,1.101 -0.647,1.157 -0.529,0.076 -0.876,-0.317 -1.012,-0.746 0.361,0.323 0.407,-0.601 0.312,-0.857 0.245,0.319 0.026,0.545 0.104,0.829 0.03,0.112 0.063,0.811 0.442,0.232" /></g><path
       style="fill:#ef929f"
       inkscape:connector-curvature="0"
       id="path136"
       d="m 302.911,174.612 c 11.253,4.992 33.187,0.377 30.793,-15.901 3.729,-1.313 7.665,0.354 11.574,-0.602 4.372,-1.07 6.197,-3.297 9.092,-6.736 5.208,-6.195 8.212,-15.033 4.615,-22.624 8.027,-3.814 14.11,-9.688 14.321,-18.736 0.096,-4.084 -0.715,-9.493 -2.594,-13.163 -1.718,-3.359 -7.911,-5.778 -8.932,-8.449 -0.977,-2.558 1.622,-9.327 1.23,-12.764 -0.488,-4.294 -2.284,-8.192 -4.626,-11.494 -4.013,-5.661 -13.724,-10.496 -19.522,-4.034 -5.381,-10.104 -10.466,-13.665 -21.845,-13.122 -7.689,0.368 -20.339,3.073 -20.063,13.398 -4.348,0.902 -9.11,-1.691 -13.986,-0.942 -5.258,0.808 -10.895,2.85 -14.706,6.562 -6.909,6.727 -6.856,16.819 -3.341,25.155 -10.956,3.158 -17.617,8.101 -17.676,20.72 -0.049,10.208 4.098,15.723 11.191,21.688 -6.731,2.327 -6.486,7.939 -5.19,13.8 2.046,9.252 6.083,10.17 14.589,12.695 -1.079,7.423 -13.892,13.984 -19.679,17.452 -7.354,4.404 -15.409,8.17 -24.049,9.601 5.849,-11.306 5.253,-20.746 6.535,-32.516 -0.047,0.428 8.906,-4.172 9.688,-4.86 2.754,-2.431 5.183,-5.658 6.059,-9.283 0.849,-3.519 0.055,-6.946 -2.483,-9.572 -0.849,-0.879 -2.392,-1.26 -3.109,-2.202 -1.366,-1.785 -0.887,-0.783 -0.085,-2.491 1.408,-2.999 3.066,-4.714 3.625,-8.063 1.006,-6.052 1.688,-9.979 -0.454,-15.897 -1.822,-5.034 -4.997,-8.598 -10.785,-8.141 0.824,-8.28 5.764,-22.199 -1.585,-29.439 -3.949,-3.89 -7.941,-0.751 -12.315,-1.408 -4.618,-0.694 -7.326,-5.815 -12.165,-7.725 -4.865,-1.919 -6.456,0.586 -10.793,1.538 -4.126,0.906 -7.729,-2.808 -12.345,-2.63 -10.935,0.426 -10.162,14.953 -9.09,22.091 -6.728,2.002 -14.026,2.625 -16.599,9.909 -1.604,4.543 -1.258,19.013 4.015,21.524 -9.322,1.48 -13.733,9.003 -12.442,18.048 0.65,4.546 1.725,11.316 4.571,14.942 2.438,3.101 6.356,3.56 9.464,5.656 -0.945,-0.896 -3.707,4.499 -3.944,5.274 -2.076,6.822 4.396,10.044 9.677,12.333 1.663,0.72 11.776,1.42 12.214,2.69 1.339,3.898 0.334,8.648 2.221,12.602 2.422,5.076 5.579,4.596 10.888,5.196 10.313,1.165 9.941,8.114 5.715,16.118 -9.051,17.146 -23.757,23.002 -40.921,27.99 -0.657,11.503 -1.439,25.888 5.573,35.634 1.352,1.879 3.547,4.644 6.093,4.753 3.961,0.17 3.052,-1.289 5.147,-4.116 3.256,-4.389 7.389,-8.286 11.417,-11.965 17.708,-16.169 38.86,-30.306 59.335,-42.379 9.012,-5.312 18.42,-10.219 27.811,-14.904 4.703,-2.347 8.488,-6.377 12.937,-9.038 5.669,-3.395 10.759,-6.746 14.934,-12.173 z" /><path
       style="fill:#e58898"
       inkscape:connector-curvature="0"
       id="path138"
       d="m 216.389,194.664 c 3.915,-2.961 5.456,-2.944 7.151,-7.307 1.515,-3.894 4.136,-7.91 5.097,-11.973 1.142,-4.839 0.079,-9.898 0.652,-14.792 0.86,-7.321 3.031,-6.197 8.764,-8.907 3.745,-1.771 6.59,-5.163 7.389,-9.261 0.539,-2.746 -0.326,-11.159 -4.156,-11.85 -2.723,-0.49 -3.493,8.299 -5.133,10.995 -2.669,4.393 -6.953,7.284 -12.058,8.029 4.298,-12.01 -1.123,-24.87 -15.037,-23.023 11.86,9.452 10.245,34.736 -6.471,36.345 1.186,3.895 8.687,2.814 11.776,2.061 0.618,2.214 -1.428,4.53 -3.092,5.928 2.218,3.379 -0.152,10.058 -0.78,13.737 -0.862,5.038 -2.152,9.31 -4.194,13.831 -1.174,2.598 -2.358,5.236 -3.919,7.675 -1.596,2.496 -4.506,4.278 -5.093,7.243 3.723,-0.93 6.438,-5.907 8.797,-8.68 3.176,-3.728 6.379,-7.082 10.307,-10.051 z" /><path
       style="fill:#e58898"
       inkscape:connector-curvature="0"
       id="path140"
       d="m 240.375,124.706 c -1.067,3.176 -5.311,5.783 -8.531,5.955 3.998,-3.92 3.027,-14.617 0.718,-19.442 -1.566,-3.275 -4.784,-7.784 -8.923,-7.818 -3.52,-0.028 -6.425,3.554 -9.849,4.198 7.235,-6.754 3.421,-20.636 -2.945,-27.333 5.603,1.401 6.89,9.872 9.716,13.957 1.938,2.802 4.914,3.415 7.857,0.228 4.274,-4.623 3.283,-13.194 0.755,-18.326 -2.184,-4.429 -8.374,-6.112 -10.062,-9.63 15.075,-11.679 21.881,19.455 13.419,27.522 7.96,0.99 14.181,3.443 13.735,12.583 -0.324,6.688 -4.309,13.57 -6.549,19.817" /><path
       style="fill:#e58898"
       inkscape:connector-curvature="0"
       id="path142"
       d="m 188.728,180.521 c 5.353,3.024 10.686,-0.092 11.546,-6.051 3.05,1.954 3.078,9.847 -0.453,11.405 -3.364,1.485 -12.656,-1.242 -12.689,-5.322 0.561,0.025 0.854,0.366 1.21,0.576" /><path
       style="fill:#e58898"
       inkscape:connector-curvature="0"
       id="path144"
       d="m 178.941,157.585 c -4.188,2.166 -8.41,1.849 -12.649,0.075 -2.21,-0.924 -7.149,-4.962 -6.376,0.038 0.646,4.175 9.465,6.663 12.804,7.635 3.605,1.052 7.49,2.787 9.785,-0.898 2.364,-3.795 1.021,-10.261 0.506,-14.268 -0.092,3.631 -0.668,5.658 -4.07,7.418 z" /><path
       style="fill:#e58898"
       inkscape:connector-curvature="0"
       id="path146"
       d="m 153.161,133.215 c -1.02,4.419 1.574,8.716 5.754,11.248 2.622,1.587 3.921,1.713 6.232,-0.064 0.515,-0.396 3.81,-5.482 3.827,-5.472 -4.001,-2.57 -5.146,-8.334 -3.325,-12.506 -0.965,2.79 -1.152,5.735 -3.208,7.992 -2.338,2.562 -7.894,4.366 -9.059,-0.204" /><path
       style="fill:#e58898"
       inkscape:connector-curvature="0"
       id="path148"
       d="m 171.206,137.008 c 1.523,2.998 13.469,10.07 11.977,13.456 5.656,-12.843 9.521,-4.109 14.27,3.458 -5.465,-8.71 -0.82,-27.051 10.058,-28.648 -3.457,-0.211 -5.916,0.643 -7.882,-2.788 -1.967,-3.43 -0.454,-6.515 -4.006,-9.546 1.133,7.997 1.672,17.606 -6.633,22.095 -6.839,3.697 -16.188,0.176 -20.821,-5.044 0.725,2.3 1.456,4.883 2.541,7.128" /><path
       style="fill:#e58898"
       inkscape:connector-curvature="0"
       id="path150"
       d="m 165.452,115.882 c 1.628,-6.371 2.846,-10.454 8.027,-14.751 -2.738,2.479 -7.518,5.881 -11.356,4.211 5.489,5.898 -3.314,3.526 -5.55,7.348 3.49,-1.2 7.738,-0.838 8.879,3.192" /><path
       style="fill:#e58898"
       inkscape:connector-curvature="0"
       id="path152"
       d="m 181.969,97.259 c 5.04,-1.164 13.392,4.779 13.479,9.896 1.481,-8.411 -2.369,-16.496 1.443,-24.785 -1.707,1.483 -4.231,0.801 -6.387,0.906 6.48,4.615 -7.508,11.752 -9.896,14.112" /><path
       style="fill:#e58898"
       inkscape:connector-curvature="0"
       id="path154"
       d="m 201.332,73.484 c 8.947,2.112 7.934,-18.55 -0.415,-16.581 4.597,-1.674 12.209,3.165 12.519,8.176 0.264,4.237 -5.066,6.948 -1.553,11.714 -2.967,-3.475 -4.874,-1.764 -9.336,-2.538" /><path
       style="fill:#e58898"
       inkscape:connector-curvature="0"
       id="path156"
       d="m 207.125,234.915 c -10.78,8.538 -23.851,16.811 -30.984,28.88 -1.85,3.126 -1.66,4.677 -5.55,3.909 -0.907,-0.178 -6.544,-3.183 -5.585,-4.634 11.462,-17.374 27.243,-31.922 44.553,-43.418 12.25,-8.137 25.375,-14.651 38.323,-21.579 7.547,-4.037 19.069,-7.959 24.733,-14.438 -1.81,1.956 -2.287,4.717 -4.096,6.853 -3.187,3.763 -7.391,7.146 -11.185,10.309 -8.101,6.754 -17.73,11.218 -26.421,17.1 -8.137,5.508 -16.075,10.908 -23.788,17.018 z" /><path
       style="fill:#e58898"
       inkscape:connector-curvature="0"
       id="path158"
       d="m 366.952,113.174 c 0.585,-11.001 -12.711,-16.306 -21.563,-13.909 1.378,3.681 -2.855,11.889 -6.468,13.276 8.497,-9.919 -9.931,-26.485 -19.186,-27.444 7.873,-1.623 20.596,4.421 24.834,11.078 2.109,3.316 9.601,-10.51 10.205,-12.283 1.997,-5.853 2.79,-14.989 -3.885,-18.15 9.994,-2.665 10.765,19.224 7.666,24.904 3.734,2.629 7,4.239 9.498,8.307 3.215,5.239 3.289,12.132 0.705,17.644 -1.546,3.303 -9.779,13.148 -12.907,6.578 5.354,1.835 10.845,-5.187 11.101,-10.001 z" /><path
       style="fill:#e58898"
       inkscape:connector-curvature="0"
       id="path160"
       d="m 334.347,78.732 c 1.238,-5.268 1.633,-11.942 4.419,-16.63 -3.991,0.096 -4.143,-7.736 -7.744,-10.143 -5.124,-3.422 -14.104,-3.265 -19.196,-0.109 11.455,-2.804 24.379,20.405 21.699,30.192" /><path
       style="fill:#e58898"
       inkscape:connector-curvature="0"
       id="path162"
       d="m 301.361,85.047 c 1.082,-5.467 8.017,-5.322 12.222,-5.284 -2.719,-0.94 -9.862,-1.328 -11.556,-3.842 -1.352,-2.009 -0.776,-8.6 -1.712,-11.444 -2.306,1.96 -7.396,-1.22 -10.217,-1.539 -6.464,-0.731 -11.955,0.285 -17.13,3.959 6.792,-1.8 17.141,3.697 18.997,10.784 1.688,6.427 -4.269,17.13 -10.909,18.616 -4.792,-7.799 -25.23,-4.758 -29.192,2.839 6.359,-2.992 15.754,-1.023 19.835,5.15 2.285,3.456 2.145,9.314 1.965,13.354 0.518,-11.573 14.655,-24.204 25.934,-23.784 0.262,6.55 -0.597,16.652 7.904,19.6 -7.207,-6.924 -3.056,-20.273 3.096,-26.193 -3.511,1.132 -9.876,3.353 -10.338,-2.491" /><path
       style="fill:#e58898"
       inkscape:connector-curvature="0"
       id="path164"
       d="m 269.7,160.377 c -6.651,1 -11.392,-4.183 -13.975,-9.223 5.175,3.326 13.27,1.351 15.557,-4.134 2.7,-6.467 -0.282,-12.603 -2.144,-19.199 3.066,1.388 5.369,3.753 8.438,5.247 3.61,1.756 6.921,3.291 10.863,4.379 4.486,1.238 9.149,1.542 13.612,0 -1.773,-2.036 1.947,-4.402 2.708,-6.771 1.723,-5.357 -1.156,-9.466 -2.728,-14.375 2.24,0.998 4.522,4.192 6.77,2.573 0.852,3.788 7.499,4.901 10.706,5.008 7.032,0.237 14.366,-3.147 18.858,-8.407 -1.357,7.39 1.131,7.431 5.335,12.839 2.118,2.722 5.24,7.43 9.407,4.763 2.495,-1.596 2.158,-4.389 1.151,-7.012 5.989,3.388 4.452,9.613 4.295,15.116 -0.302,10.407 -6.62,15.314 -15.724,20.093 -6.413,3.362 -14.044,5.437 -21.278,5.29 -5.826,-0.119 -10.44,-1.111 -15.784,-3.3 -2.883,-1.181 -8.003,-3.484 -11.295,-2.535 -3.042,0.876 -4.871,5.347 -8.167,6.335 -2.391,0.717 -5.389,0.083 -7.614,-0.955 -3.702,-1.726 -5.126,-5.451 -8.72,-6.837" /><g
       id="g166"><path
         style="fill:#f4a6b4"
         inkscape:connector-curvature="0"
         id="path168"
         d="m 268.462,240.422 c 6.283,3.322 11.444,0.408 15.797,-4.032 5.949,6.877 8.971,14.104 18.545,17.199 10.46,3.381 16.675,-2.949 21.942,-10.734 7.148,6.224 12.313,11.827 22.186,6.775 6.907,-3.535 11.641,-13.196 11.482,-20.708 9.387,0.447 18.237,0.114 24.3,-8.967 3.881,-5.814 6.443,-22.433 0.239,-27.357 6.395,-9.085 5.889,-22.316 1.621,-32.83 -3.672,-9.049 -18.999,-23.401 -28.403,-12.479 -3.268,-11.116 -9.723,-22.088 -22.318,-24.672 -14.066,-2.884 -22.642,5.613 -27.243,17.8 -9.478,-2.964 -17.707,-12.215 -28.51,-6.234 -5.783,3.202 -8.247,8.587 -9.737,14.679 -0.738,3.025 -0.542,14.716 -2.235,16.375 -1.633,1.596 -5.387,-0.108 -7.419,0.372 -3.469,0.823 -5.255,2.761 -7.104,5.616 -2.744,4.234 -3.628,9.937 -3.664,14.814 -0.051,6.782 1.896,9.205 -4.698,13.048 -4.766,2.777 -9.548,4.376 -15.085,3.924 -11.148,-0.908 -24.322,4.063 -24.631,17.295 -0.464,19.959 18.651,7.46 27.967,4.144 6.646,-2.367 14.321,-3.166 20.999,-0.593 8.316,3.203 8.573,12.654 15.969,16.565 z" /><path
         style="fill:#f9d7dd;stroke:#e26983;stroke-width:1.01730001"
         inkscape:connector-curvature="0"
         id="path170"
         d="m 292.651,191.085 c -0.392,0.316 -0.771,0.649 -1.133,1.002 -2.187,2.125 -3.493,5.029 -5.437,7.354 -3.116,3.729 -6.489,4.305 -10.652,6.382 -8.25,4.119 -12.382,13.674 -6.076,21.333 2.545,3.091 6.975,4.69 10.912,4.5 1.895,-0.091 3.544,-0.778 5.152,-1.776 0.499,-0.312 4.209,-3.17 3.61,-3.898 0.58,0.705 0.638,2.637 0.826,3.697 1.237,7.019 7.443,14.241 14.116,16.804 5.184,1.991 11.308,1.03 16.069,-1.708 3.598,-2.068 8.41,-6.352 7.468,-10.969 1.07,4.8 5.393,10.141 10.774,10.141 4.896,0 9.948,-2.294 13.408,-5.71 3.046,-3.006 6.937,-10.417 5.812,-14.755 5.931,5.815 17.812,-1.438 21.666,-6.464 4.011,-5.231 3.862,-12.017 1.453,-17.909 -1.475,-3.616 -5.833,-9.808 -5.203,-13.875 0.443,-2.864 2.923,-3.164 4.383,-5.642 3.947,-6.712 -2.563,-17.033 -8.271,-20.791 -7.14,-4.703 -12.582,2.598 -16.395,8.156 -4.982,7.263 -13.089,15.705 -22.157,17.418 -6.856,1.295 -13.795,-0.794 -20.839,0.436 -6.42,1.123 -14.194,2.023 -19.486,6.274 z" /><path
         style="fill:#ef929f;stroke:#e26983;stroke-width:1.01730001"
         inkscape:connector-curvature="0"
         id="path172"
         d="m 286.156,184.924 c 1.152,5.445 -1.595,10.253 -4.771,14.423 -4.213,5.527 -14.795,12.407 -9.543,20.813 2.143,3.433 10.354,7.766 14.382,6.107 0.95,-0.393 1.407,-1.508 2.012,-2.343 0.699,-0.963 1.315,-2.651 2.724,-2.105 1.56,0.604 0.646,3.036 0.937,4.229 0.425,1.742 1.936,3.315 2.802,4.867 3.6,6.458 9.756,11.893 17.19,11.248 5.474,-0.475 9.812,-2.764 12.727,-7.406 2.643,-4.207 1.35,-9.524 3.602,-13.86 1.004,1 0.652,3.268 0.64,4.648 -0.007,0.951 -0.217,1.985 -0.144,2.926 0.44,5.487 5.209,7.567 10.182,7.848 5.859,0.331 11.067,-3.058 13.608,-8.426 0.928,-1.958 2.589,-2.519 2.904,-4.929 0.259,-1.974 -0.17,-4.15 -0.718,-6.045 -0.326,-1.128 -3.253,-7.086 -2.083,-7.297 1.519,-0.275 3.461,5.59 4.03,6.711 4.36,8.564 16.293,2.1 20.078,-3.603 3.232,-4.871 4.12,-11.11 2.794,-16.765 -0.693,-2.952 -2.031,-5.384 -3.652,-7.904 -1.263,-1.959 -4.931,-4.912 -5.054,-7.112 -0.089,-1.594 2.727,-3.427 3.882,-4.902 11.008,-14.052 -13.284,-29.304 -22.093,-13.314 -2.222,4.029 -5.643,7.449 -10.024,9.036 -7.573,2.742 -13.168,-0.689 -20.063,-1.281 -8.945,-0.769 -8.262,6.764 -15.792,10.332 -3.687,1.747 -6.704,0.546 -10.301,0.671 -3.858,0.137 -6.822,2.332 -10.256,3.433 z" /><path
         style="fill:#dd7a8b"
         inkscape:connector-curvature="0"
         id="path174"
         d="m 353.335,199.536 c 1.924,-6.552 10.45,-15.616 17.595,-14.901 -0.857,-0.8 -0.748,-1.18 -2.323,-1.604 0.395,-0.931 0.386,-1.891 1.244,-2.717 -3.682,2.293 -9.357,5.585 -14.013,4.116 -3.659,-1.154 -5.245,-3.942 -5.555,-7.579 -0.233,-2.74 0.747,-6.429 -2.919,-6.843 -4.785,-0.539 -2.767,4.659 -3.248,7.428 -0.519,2.956 -1.129,6.511 -3.383,8.765 -3.771,3.773 -11.465,4.709 -15.291,0.432 -3.355,-3.75 -4.51,-9.419 -7.175,-13.537 -0.973,0.495 -1.627,0.065 -2.018,-0.949 -1.596,1.011 -3.152,2.678 -3.607,4.56 3.672,1.346 7.076,2.014 7.349,7.106 0.3,5.623 -4.44,11.884 -9.13,14.375 -5.377,2.854 -14.003,2.959 -18.54,-1.821 -2.241,-2.362 -2.661,-6.083 -1.526,-9.085 0.577,-1.529 1.872,-2.603 2.063,-4.281 -0.791,-0.226 -6.096,2.04 -6.057,2.223 1.151,5.445 -1.597,10.251 -4.771,14.419 -1.357,1.785 -2.969,2.656 -4.512,4.037 -0.479,0.427 -2.983,4.319 -3.123,4.324 1.92,-0.058 3.729,-1.42 5.644,-1.802 2.155,-0.43 3.804,-0.101 5.747,0.848 2.71,1.326 4.764,4.325 5.065,7.326 0.17,1.698 -0.506,2.745 -0.82,4.292 -0.093,0.453 -0.229,3.69 -0.287,3.757 5.358,-6.11 9.809,-13.327 19.117,-15.019 9.489,-1.724 14.924,7.614 19.263,14.228 3.195,-5.498 -3.903,-10.461 3.022,-14.852 3.055,-1.935 8.252,-3.53 11.905,-2.882 3.052,0.542 4.306,3.527 6.988,4.695 1.279,0.558 3.318,0.198 4.266,1.353 -0.418,-3.764 -2.108,-6.535 -0.97,-10.412 z" /><path
         style="fill:#ef929f"
         inkscape:connector-curvature="0"
         id="path176"
         d="m 198.837,223.032 c -2.332,-6.769 8.096,-16.532 14.134,-17.718 5.731,-1.125 11.512,0.5 17.239,0 1.355,-0.119 15.445,-4.396 14.831,-5.485 0.947,1.677 2.694,1.851 4.47,1.115 -0.468,4.274 10.019,9.597 13.417,6.371 -6.332,3.356 -11.473,2.603 -17.796,-0.377 -3.357,4.195 -5.915,3.521 -11.38,4.191 -6.067,0.744 -13.337,1.173 -19.151,3.217 -5.422,1.905 -11.205,5.532 -15.764,8.686 z" /><path
         style="fill:#ef929f"
         inkscape:connector-curvature="0"
         id="path178"
         d="m 272.81,188.345 c -0.962,-6.167 -11.457,-20.391 -18.806,-16.754 6.25,-3.831 9.961,-4.461 16.795,-1.207 0.113,-0.519 0.355,-0.997 0.713,-1.375 2.587,0.957 3.502,3.725 6.359,4.708 2.836,0.975 6.085,0.448 8.846,-0.508 5.148,-1.782 10.966,-6.239 11.85,-11.964 0.964,-6.271 -0.935,-13.154 -4.493,-18.313 -2.387,-3.461 -7.386,-5.036 -9.111,-7.77 4.382,-1.973 16.818,1.704 19.551,5.96 1.999,3.11 2.015,8.04 4.078,11.493 2.205,3.693 5.239,6.273 8.143,9.19 -2.959,-0.407 -7.485,-0.348 -10.423,0.932 -6.508,2.837 -7.568,9.498 -10.812,14.67 -2.568,-2.105 -7.711,-1.804 -10.435,-0.101 -4.827,3.022 -0.793,5.541 -1.621,10.127 -0.912,5.043 -4.111,8.259 -7.81,11.053 1.163,-3.204 -0.349,-7.603 -2.326,-10.252" /><path
         style="fill:#ef929f"
         inkscape:connector-curvature="0"
         id="path180"
         d="m 340.814,143.443 c 1.558,10.321 -0.719,17.946 -12.116,19.371 4.896,0.59 9.654,2.727 14.017,4.788 3.147,-2.759 4.672,-6.935 7.616,-9.892 3.412,-3.429 6.872,-6.718 10.127,-10.317 -1.923,0.557 -3.613,1.585 -5.631,1.772 -0.532,0.05 -4.991,-11.862 -5.367,-12.704 -2.615,-5.827 -6.355,-9.747 -11.987,-12.667 -2.588,-1.342 -5.354,-2.798 -8.398,-2.374 -2.007,0.281 -5.895,4.684 -6.438,4.654 9.755,0.526 16.759,7.983 18.177,17.369 z" /><path
         style="fill:#ef929f"
         inkscape:connector-curvature="0"
         id="path182"
         d="m 382.323,191.017 c -1.167,-2.276 -2.976,-4.278 -4.477,-6.23 4.805,-1.273 6.487,-8.491 6.603,-12.844 3.284,5.641 3.018,13.21 -1.852,17.971" /></g><path
       style="fill:none;stroke:#d35777;stroke-width:1.01730001"
       inkscape:connector-curvature="0"
       id="path184"
       d="m 174.527,269.501 c 4.601,-7.072 9.587,-13.027 16.435,-18.595 9.714,-7.896 18.042,-15.947 29.304,-21.684 8.037,-4.095 17.241,-7.453 26.406,-6.548 9.201,0.909 12.36,7.118 17.636,13.601 2.553,3.138 6.233,5.011 10.307,4.924 2.896,-0.063 9.399,-1.429 9.8,-4.918 -1.177,0.518 -2.612,0.323 -3.686,-0.038 4.988,-0.075 4.45,0.933 7.044,4.917 1.975,3.033 4.483,5.774 7.292,8.053 10.531,8.538 22.979,5.569 29.867,-5.926 4.752,6.139 13.938,10.289 21.323,6.969 4.499,-2.023 7.646,-5.469 9.51,-9.998 0.884,-2.147 1.45,-4.415 2.007,-6.665 0.228,-0.919 0.278,-2.669 0.868,-3.416 1.214,-1.544 0.833,-0.847 2.551,-0.881 4.998,-0.098 8.711,0.469 13.466,-1.978 6.668,-3.432 10.707,-10.55 11.917,-17.767 0.621,-3.708 0.541,-7.566 -0.378,-11.219 -0.862,-3.427 -3.182,-5.966 -5.042,-8.87 0.916,0.417 1.618,1.372 2.133,2.093 5.729,-5.39 5.815,-16.47 4.723,-23.667 -0.812,-5.352 -3.099,-10.007 -6.783,-14.028 -3.127,-3.412 -6.445,-7.173 -10.708,-9.181 -4.596,-2.165 -11.021,-0.979 -14.964,1.981 0.997,-0.749 -1.786,-6.999 -2.198,-7.864 -1.266,-2.657 -2.89,-5.141 -4.867,-7.323 -5.119,-5.647 -12.279,-9.444 -19.983,-9.314 -5.78,0.096 -11.011,2.161 -14.937,6.471 -2.108,2.313 -3.162,5.246 -4.615,7.963 -2.143,4.012 -2.947,2.642 -6.421,0.65 -12.822,-7.351 -30.459,-5.121 -34.534,10.916 -0.995,3.919 -0.291,7.743 -0.576,11.7 -0.113,1.579 -0.59,3.024 -0.354,4.525 -0.374,0.068 -0.827,0.33 -1.202,0.373 0.107,0.369 0.073,0.872 0.174,1.244 -0.364,-1.342 -10.837,0.355 -11.994,1.671 -4.568,5.183 -5.408,11.408 -6.192,17.979 -0.77,6.464 0,10.346 -6.526,13.797 -5.627,2.978 -15.051,5.519 -20.621,1.386" /><path
       style="fill:none;stroke:#e26983;stroke-width:1.01730001"
       inkscape:connector-curvature="0"
       id="path186"
       d="m 230.12,154.265 c -0.936,8.087 -0.507,16.187 -2.249,24.151 -0.434,1.991 -3.578,5.826 -2.69,7.856 1.026,2.345 5.55,-0.829 7.414,-1.646 5.735,-2.514 11.625,-5.14 17.034,-8.309" /><path
       style="fill:none;stroke:#e26983;stroke-width:1.01730001"
       inkscape:connector-curvature="0"
       id="path188"
       d="m 159.121,228.469 c 6.331,0.284 11.764,-3.894 17.375,-6.239 3.325,-1.391 6.514,-2.826 9.649,-4.643 6.225,-3.604 11.839,-9.527 14.875,-16.06 1.481,-3.187 2.421,-6.785 1.795,-10.306 -0.312,-1.746 -1.434,-3.298 -1.646,-5.026 -0.25,-2.049 1.199,-4.04 0.674,-6.061 2.524,7.238 -7.207,7.137 -11.346,5.212 -3.592,-1.669 -5.105,-4.441 -6.555,-7.927 -1.254,-3.013 -0.708,-5.611 -1.256,-8.509 -0.624,-3.313 -2.374,-1.824 -5.051,-1.982 -5.148,-0.304 -11.425,-1.959 -15.126,-5.967 -4.411,-4.776 -2.35,-9.915 0.477,-14.727 -2.981,-0.919 -6.413,-4.122 -8.18,-6.776 -1.673,-2.512 -2.938,-5.737 -3.836,-8.587 -0.762,-2.423 -1.518,-5.24 -1.518,-7.79 0,-8.623 5.867,-12.564 12.731,-15.841 -5.661,-2.486 -5.381,-15.616 -3.791,-20.277 2.521,-7.404 10.927,-8.985 17.398,-10.959 -2.46,-4.312 -1.162,-14.093 2.303,-17.84 5.118,-5.538 11.23,-2.96 16.164,0.903 -0.602,0.89 -1.202,1.766 -1.679,2.718 2.98,-4.613 7.656,-8.058 13.597,-6.758 4.135,0.903 6.376,3.907 8.526,7.189 1.103,1.684 0.453,2.002 2.612,2.077 1.468,0.051 3.401,-1.259 4.912,-1.519 13.403,-2.309 13.354,8.687 13.875,18.819 0.361,7.021 -2.308,15.738 -11.087,15.08 2.88,0.565 6.007,-1.61 8.919,-1.971 2.191,-0.271 4.438,-0.048 6.415,1.078 5.527,3.146 6.268,11.207 5.567,16.901 -0.742,6.037 -3.171,12.335 -8.614,15.68 3.511,-2.159 7.371,2.409 8.473,5.054 1.377,3.306 1.367,6.696 0.025,10.022 -2.631,6.505 -9.17,11.169 -16.271,11.308" /><path
       style="fill:none;stroke:#e26983;stroke-width:1.01730001"
       inkscape:connector-curvature="0"
       id="path190"
       d="m 204.42,165.21 c 6.984,1.825 13.543,-1.477 17.224,-7.482 1.876,-3.062 2.86,-6.505 2.982,-10.09 0.146,-4.278 1.289,-10.147 -1.386,-13.928 1.308,1.848 7.952,-2.125 8.958,-2.836" /><path
       style="fill:none;stroke:#e26983;stroke-width:1.01730001"
       inkscape:connector-curvature="0"
       id="path192"
       d="m 196.294,119.425 c 0.426,-7.23 0.246,-13.815 -5.681,-18.891 -3.914,-3.349 -7.963,-3.5 -12.616,-2.39" /><path
       style="fill:none;stroke:#e26983;stroke-width:1.01730001"
       inkscape:connector-curvature="0"
       id="path194"
       d="m 213.938,108.195 c 5.958,-3.033 6.996,-9.465 5.498,-15.458 -1.557,-6.229 -7.062,-16.329 -14.864,-14.068" /><path
       style="fill:none;stroke:#e26983;stroke-width:1.01730001"
       inkscape:connector-curvature="0"
       id="path196"
       d="m 268.119,161.077 c -6.6,-0.596 -13.153,-4.78 -14.733,-11.586 -1.464,-6.307 0.364,-18.76 9.679,-16.791 -2.429,-0.718 -4.056,0.508 -6.207,-0.65 -2.119,-1.139 -3.915,-3.757 -5.298,-5.844 -3.126,-4.716 -4.444,-10.173 -4.117,-15.775 0.776,-13.344 14.512,-21.725 26.961,-18.885 -2.654,-1.213 -6.563,-0.748 -9.393,-0.702 -2.953,0.049 -1.969,-13.434 -1.57,-15.361 2.484,-11.996 15.034,-16.966 26.113,-16.197 2.089,0.146 4.544,0.02 6.455,0.995 2.061,1.051 2.098,2.487 3.446,4.42 -0.878,-1.775 -2.142,-3.972 -2.402,-5.955 -0.826,-6.289 8.108,-10.179 13.053,-11.322 6.281,-1.454 12.923,-1.401 18.831,1.399 4.76,2.257 10.144,7.677 9.204,13.413 0.02,-5.353 7.54,-5.778 11.188,-4.313 5.432,2.182 9.887,6.342 12.499,11.572 1.947,3.904 1.55,8.624 0.798,12.789 -0.391,2.171 -0.14,7.73 -2.289,8.912 6.531,-3.592 11.477,6.996 12.852,11.652 2.884,9.772 -3.739,27.38 -16.357,25.552 4.541,0.85 4.718,15.867 0.391,16.275" /><path
       style="fill:none;stroke:#e26983;stroke-width:1.01730001"
       inkscape:connector-curvature="0"
       id="path198"
       d="m 342.041,110.889 c 7.029,-9.872 -0.998,-21.062 -10.359,-25.074 2.168,-0.805 1.663,-6.494 1.838,-8.462" /><path
       style="fill:none;stroke:#e26983;stroke-width:1.01730001"
       inkscape:connector-curvature="0"
       id="path200"
       d="m 301.594,77.525 c 0.986,4.465 1.469,9.075 0.019,13.517 1.675,-1.728 2.742,-3.675 4.911,-4.921 -2.98,3.056 -5.227,6.792 -6.091,11.119" /><path
       style="fill:none;stroke:#e26983;stroke-width:1.01730001"
       inkscape:connector-curvature="0"
       id="path202"
       d="m 311.748,124.595 c -3.625,-1.485 -7.675,-4.973 -8.908,-8.784" /><path
       style="fill:#f9d7dd;stroke:#e26983;stroke-width:1.01730001"
       inkscape:connector-curvature="0"
       id="path204"
       d="m 158.706,248.005 c 1.323,5.724 2.934,10.329 6.434,15.195 1.375,1.909 6.59,11.607 9.255,6.035 1.702,-3.557 -1.436,-10.166 -2.591,-13.594 -0.984,-2.921 -2.429,-5.824 -3.205,-8.795 -0.271,-1.041 -0.841,-1.582 -0.263,-2.606 0.37,0.258 1.297,0.421 1.67,0.633 1.05,-4.278 -4.482,-11.997 -7.271,-14.756 -2.815,-2.784 -5.574,-1.886 -5.876,2.276 -0.336,4.65 0.605,10.009 1.604,14.535 0.08,0.364 0.16,0.722 0.243,1.077 z" /><linearGradient
       gradientTransform="matrix(-0.2177,-0.976,0.976,-0.2177,751.7181,509.6457)"
       y2="-509.91861"
       x2="383.35229"
       y1="-519.83691"
       x1="379.2832"
       gradientUnits="userSpaceOnUse"
       id="XMLID_15_"><stop
         id="stop207"
         style="stop-color:#00A33D"
         offset="0.0056" /><stop
         id="stop209"
         style="stop-color:#006B33"
         offset="1" /></linearGradient><path
       inkscape:connector-curvature="0"
       style="fill:url(#XMLID_15_)"
       id="path211"
       d="m 167.165,261.416 c 0.292,1.149 2.128,6.166 3.757,6.087 1.935,-0.092 1.125,-2.911 0.879,-3.995 -0.977,-4.316 -1.825,-9.458 -4.887,-12.81 -0.121,-0.059 -0.127,-0.052 -0.018,0.022 0.182,-0.016 0.535,-0.122 0.684,-0.117 -0.118,-2.55 -3.412,-6.352 -2.387,-8.778 3.07,1.775 0.504,-3.868 0.008,-4.66 -1.271,-2.022 -2.747,-3.885 -4.825,-5.015 -2.803,1.324 -0.823,6.134 -0.508,8.459 -0.199,0.016 -0.232,-0.125 -0.429,-0.101 -0.512,2.203 0.478,5.302 1.15,7.515 0.689,2.275 1.479,6.154 3.055,7.828 0.128,-0.173 0.174,-0.338 0.299,-0.472 0.686,2.53 1.593,5.251 3.442,7.029" /><path
       style="fill:none;stroke:#00ff00;stroke-width:0.5086"
       inkscape:connector-curvature="0"
       id="path213"
       d="m 171.391,267.509 c -2.432,-0.637 -2.843,-2.917 -3.563,-4.91 0.329,-0.282 0.802,-0.614 1.244,-0.717 -2.327,2.813 -4.218,-4.549 -4.811,-5.766 0.374,-0.22 1.336,-0.874 1.306,-0.862 -2.658,2.062 -4.52,-5.297 -4.898,-6.673 -0.511,-1.849 -1.107,-3.868 -1.254,-5.79 -0.24,-3.188 1.985,-1.682 4.107,-3.449 -0.964,0.519 -2.435,1.19 -3.569,1.239 -0.403,0.018 -1.52,-6.946 -0.754,-7.875" /><linearGradient
       gradientTransform="matrix(-0.2177,-0.976,0.976,-0.2177,751.7181,509.6457)"
       y2="-377.67709"
       x2="409.06671"
       y1="-484.24069"
       x1="390.24121"
       gradientUnits="userSpaceOnUse"
       id="XMLID_16_"><stop
         id="stop216"
         style="stop-color:#084799"
         offset="0.0056" /><stop
         id="stop218"
         style="stop-color:#0C4696"
         offset="0.1654" /><stop
         id="stop220"
         style="stop-color:#17418D"
         offset="0.313" /><stop
         id="stop222"
         style="stop-color:#2A3A7D"
         offset="0.4558" /><stop
         id="stop224"
         style="stop-color:#443067"
         offset="0.5958" /><stop
         id="stop226"
         style="stop-color:#66234A"
         offset="0.7337" /><stop
         id="stop228"
         style="stop-color:#8F1328"
         offset="0.8681" /><stop
         id="stop230"
         style="stop-color:#BF0000"
         offset="1" /></linearGradient><path
       inkscape:connector-curvature="0"
       style="fill:url(#XMLID_16_)"
       id="path232"
       d="m 213.602,231.218 c -5.428,4.414 -11.26,8.185 -16.739,12.56 -5.146,4.108 -10.225,8.165 -14.855,12.859 -1.051,1.065 -2.041,2.124 -2.97,3.27 -0.813,1.008 -2.107,1.598 -3.317,0.956 -1.225,-0.65 -2.001,-2.063 -2.471,-3.313 -0.419,-1.114 -0.993,-2.316 -0.764,-3.538 0.238,-1.266 1.149,-1.594 2.198,-2.188 2.016,-1.142 4.085,-2.195 6.029,-3.458 0.828,-0.536 1.46,-1.253 2.269,-1.832 0.984,-0.705 1.954,-1.43 2.917,-2.164 3.756,-2.867 7.41,-5.883 11.382,-8.453 8.267,-5.346 16.052,-10.804 24.852,-15.174 7.755,-3.848 14.379,-8.703 16.868,-17.406 0.242,-0.843 3.266,-8.329 5.196,-5.928 0.15,0.183 -3.076,4.985 -3.392,5.966 -0.637,1.984 -1.759,5.009 -0.526,6.888 1.32,-0.537 2.372,-1.276 3.443,-2.216 1.883,-1.655 4.168,-3.544 4.856,-6.077 0.601,-2.204 -0.068,-4.56 -0.664,-6.689 -0.353,-1.266 -4.015,-9.861 -0.094,-9.849 0.148,0.958 -0.298,1.851 -0.214,2.839 0.063,0.751 1.028,4.786 2.094,4.73 0.936,-0.049 1.639,-2.745 1.851,-3.401 0.599,-1.837 1.094,-4.051 0.511,-5.956 -0.461,-1.507 -1.697,-1.917 -2.594,-3.097 -0.614,-0.809 -1.313,-1.898 -1.568,-2.885 -0.062,-0.241 0.074,-2.847 0.898,-1.83 0.811,1.001 0.914,2.766 2.259,3.231 0.401,-2.552 -0.248,-5.12 -0.145,-7.716 0.041,-1.032 0.046,-2.495 0.673,-3.379 0.45,-0.633 2.077,-0.662 2.09,-0.679 -1.481,2.274 -1.108,4.997 -0.515,7.718 0.24,1.103 0.731,3.86 2.387,3.087 1.379,-0.64 2.132,-3.204 2.296,-4.606 0.232,-1.968 -0.659,-3.879 -1.56,-5.569 -0.412,-0.771 -0.952,-1.201 -0.493,-2.177 0.643,-1.366 1.438,0.03 1.892,0.07 -1.485,-0.131 0.058,2.474 0.365,2.887 0.977,1.313 1.136,0.845 1.907,-0.424 0.518,-0.85 2.313,-3.92 3.517,-3.033 0.081,0.06 -2.443,4.79 -2.525,5.343 -0.174,1.162 -0.137,1.442 1.106,1.27 4.258,-0.591 5.86,-3 4.447,-7.12 -0.233,-0.681 -0.495,-1.562 0.044,-2.136 0.95,-1.015 0.919,0.13 1.107,0.881 0.528,2.092 1.127,3.811 1.204,6.005 0.056,1.63 -0.153,3.984 1.709,4.728 1.189,0.475 2.52,-0.293 3.577,-0.761 0.629,-0.276 2.685,-1.489 2.124,0.184 -0.236,0.708 -2.255,1.538 -2.841,2.059 -4.61,4.095 3.227,7.862 6.639,8.947 1.325,0.422 3.982,0.22 5.846,0.651 0.787,0.182 1.435,0.477 1.78,0.981 -1.069,1.001 -4.032,0.308 -5.539,0.449 -2.122,0.197 -4.442,0.854 -5.062,3.164 -0.275,1.031 -0.155,3.475 0.485,4.258 0.604,0.739 7.681,2.02 7.806,1.619 -0.5,1.593 -7.329,1.859 -7.328,1.874 0.061,1.566 1.849,1.874 2.665,3.013 1.41,1.969 0.306,2.331 -1.534,1.065 -1.552,-1.064 -2.831,-2.809 -4.827,-2.975 -2.557,-0.213 -11.598,2.879 -6.974,6.133 2.057,1.447 5.132,1.68 7.176,3.077 -1.711,1.453 -4.455,0.417 -6.298,-0.291 -3.356,-1.287 -6.746,-3.021 -10.364,-3.414 -3.703,-0.402 -5.514,0.478 -8.379,2.608 -3.094,2.299 -7.964,4.447 -9.063,8.536 -1.279,4.783 5.506,5.115 8.872,7.134 2.943,1.77 5.718,3.796 8.595,5.655 3.923,2.537 5.547,2.383 9.485,0.688 1.348,-0.579 5.522,-3.488 4.456,0.204 -0.742,2.568 -8.506,4.149 -4.256,7.657 2.842,2.345 7.644,2.555 10.498,0.249 1.034,-0.835 1.55,-2.298 2.001,-3.494 0.265,-0.703 0.253,-2.054 0.834,-2.617 1.813,-1.764 2.679,0.526 2.052,2.097 -0.627,1.575 -1.815,2.507 -2.896,3.787 -0.604,0.711 -3.385,2.356 -3.19,3.401 0.338,1.829 4.708,-0.581 5.446,-1.08 0.812,-0.551 1.912,-1.941 2.854,-2.048 0.582,-0.067 -0.227,1.429 -0.282,1.508 -0.396,0.552 -1.261,0.86 -1.801,1.25 -1.346,0.975 -2.603,1.706 -4.228,2.267 -2.041,0.703 -3.168,1.485 -4.57,-0.193 -0.776,-0.925 -1.366,-1.086 -2.725,-1.35 -1.003,-0.196 -3.161,-0.896 -3.983,-0.291 -0.55,0.401 0.308,1.063 -0.65,1.379 -1.326,0.436 -1.932,-2.11 -2.054,-2.984 -0.158,-1.098 0.327,-2.811 -0.158,-3.826 -0.943,-1.989 -4.234,-1.44 -5.889,-2.518 -2.356,-1.534 -3.86,-4.042 -6.196,-5.604 -2.602,-1.739 -6.091,-3.494 -9.146,-4.18 -3.782,-0.849 -8.473,-0.809 -12.177,0.43 -1.009,0.337 -6.29,1.829 -5.7,3.181 0.666,1.533 3.172,-0.712 4.125,-0.548 2.783,0.478 -1.829,2.713 -2.729,2.972 -4.502,1.301 -9.515,-0.49 -13.438,2.702 z m 52.613,-32.314 c 0.059,-0.127 0.109,-0.261 0.153,-0.4 0.134,-0.401 -3.301,-1.68 -3.694,-1.765 -0.975,-0.214 -2.006,-0.055 -3.003,0.057 -1.682,0.188 -4.877,0.439 -5.387,2.5 -0.57,2.318 3.879,1.954 5.109,2.078 3.007,0.305 5.402,0.685 6.822,-2.47 z m -7.421,-6.32 c -0.572,1.08 -0.851,2.167 0.13,2.634 1.29,0.615 3.593,-0.491 4.668,-1.17 0.961,-0.607 3.341,-1.472 3.95,-2.382 0.793,-1.179 -1.182,-1.894 -2.097,-2.755 -2.164,-2.041 -3.84,-0.989 -5.041,1.177 -0.265,0.477 -1.066,1.483 -1.61,2.496 z m -6.229,-0.841 c -0.309,1.192 -1.81,5.273 -0.806,6.38 0.9,0.992 3.845,-2.271 4.4,-3.278 0.642,-1.159 0.547,-2.71 0.873,-3.976 0.419,-1.621 0.471,-3.088 -0.619,-4.64 -0.779,-1.112 -2.207,-2.194 -2.809,-0.421 -0.211,0.624 -0.058,1.864 -0.165,2.574 -0.06,0.416 -0.462,1.771 -0.874,3.361 z m 16.822,-3.149 c 2.332,-0.478 3.842,-3.204 6.195,-3.357 -1.386,-1.611 -3.377,-2.91 -5.452,-3.416 -1.771,-0.433 -6.048,1.723 -5.905,3.914 0.121,1.774 3.695,3.157 5.162,2.859 z m -7.644,-8.965 c -1.119,-0.374 -2.298,-0.571 -2.876,-0.547 -1.715,0.07 -5.137,1.007 -3.365,3.119 0.988,1.18 1.847,1.897 2.526,3.362 0.355,0.768 0.466,2.592 1.721,1.698 0.947,-0.674 1.178,-1.905 2.142,-2.666 0.899,-0.711 2.296,-1.494 2.478,-2.753 0.138,-0.967 -1.198,-1.735 -2.626,-2.213 z m 6.631,17.205 c 0.925,0.302 1.853,0.565 2.808,0.561 1.329,-0.007 5.618,-0.209 4.407,-2.17 -1.52,-2.459 -9.808,-2.566 -10.618,0.74 1.157,0.077 2.279,0.503 3.403,0.869 z m 7.2,-9.536 c -1.584,0.17 -3.806,1.765 -4.41,2.551 -1.595,2.072 2.392,2.848 3.82,2.009 0.912,-0.537 0.519,-1.27 0.662,-2.056 0.185,-1.004 0.6,-1.26 1.158,-2.184 -0.302,-0.289 -0.735,-0.373 -1.23,-0.32 z m -8.364,-13.565 c -0.095,-0.211 -0.208,-0.408 -0.389,-0.555 -1.603,-1.3 -6.29,2.069 -5.907,3.522 0.542,2.061 5.203,4.368 7.086,3.3 1.025,-0.579 1.519,-3.38 0.944,-4.352 -0.269,-0.458 -0.916,-0.543 -1.261,-0.921 -0.229,-0.254 -0.322,-0.644 -0.473,-0.994 z" /><linearGradient
       gradientTransform="matrix(-0.2177,-0.976,0.976,-0.2177,751.7181,509.6457)"
       y2="-369.2052"
       x2="361.8866"
       y1="-390.12741"
       x1="358.1904"
       gradientUnits="userSpaceOnUse"
       id="XMLID_17_"><stop
         id="stop235"
         style="stop-color:#084799"
         offset="0.0056" /><stop
         id="stop237"
         style="stop-color:#0C4696"
         offset="0.1654" /><stop
         id="stop239"
         style="stop-color:#17418D"
         offset="0.313" /><stop
         id="stop241"
         style="stop-color:#2A3A7D"
         offset="0.4558" /><stop
         id="stop243"
         style="stop-color:#443067"
         offset="0.5958" /><stop
         id="stop245"
         style="stop-color:#66234A"
         offset="0.7337" /><stop
         id="stop247"
         style="stop-color:#8F1328"
         offset="0.8681" /><stop
         id="stop249"
         style="stop-color:#BF0000"
         offset="1" /></linearGradient><path
       inkscape:connector-curvature="0"
       style="fill:url(#XMLID_17_)"
       id="path251"
       d="m 286.713,244.035 c 1.103,1.847 2.361,3.654 4.169,4.88 1.171,0.792 2.478,1.129 3.64,1.867 1.595,1.015 2.841,2.281 4.677,2.936 2.823,1.006 5.681,0.761 8.563,1.405 2.408,0.537 4.325,0.891 6.257,-1.188 0.88,-0.946 2.847,-5.469 2.154,-6.74 -0.892,-1.644 -1.737,0.422 -2.135,1.252 -1.312,2.743 -1.868,4.918 -5.025,6.022 -1.782,0.623 -9.698,0.601 -9.456,-2.558 1.646,-1.334 5.227,-3.035 6.2,-4.932 0.451,-0.88 0.58,-2.984 -1.303,-2.315 -0.621,0.22 -1.31,1.947 -2.086,2.548 -1.373,1.067 -4.049,2.888 -5.917,2.411 -1.875,-0.479 -3.229,-2.363 -2.328,-3.861 0.791,-1.313 3.938,-1.847 3.734,-3.797 -0.196,-1.854 -5.215,1.432 -6.003,1.611 -2.542,0.581 -3.109,-1.68 -3.705,-3.987 -0.713,-2.76 -0.353,-4.916 0.628,-7.439 0.474,-1.213 1.617,-4.605 -0.682,-3.373 -2.093,1.125 -1.855,5.183 -2.091,7.152 -0.422,3.55 -1.272,4.794 0.709,8.106 z" /><linearGradient
       gradientTransform="matrix(-0.2177,-0.976,0.976,-0.2177,751.7181,509.6457)"
       y2="-363.8909"
       x2="463.3454"
       y1="-377.17819"
       x1="419.98541"
       gradientUnits="userSpaceOnUse"
       id="XMLID_18_"><stop
         id="stop254"
         style="stop-color:#084799"
         offset="0.0056" /><stop
         id="stop256"
         style="stop-color:#14428F"
         offset="0.0444" /><stop
         id="stop258"
         style="stop-color:#482E64"
         offset="0.2221" /><stop
         id="stop260"
         style="stop-color:#731E40"
         offset="0.397" /><stop
         id="stop262"
         style="stop-color:#941124"
         offset="0.5655" /><stop
         id="stop264"
         style="stop-color:#AC0710"
         offset="0.7257" /><stop
         id="stop266"
         style="stop-color:#BA0204"
         offset="0.8743" /><stop
         id="stop268"
         style="stop-color:#BF0000"
         offset="1" /></linearGradient><path
       inkscape:connector-curvature="0"
       style="fill:url(#XMLID_18_)"
       id="path270"
       d="m 298.352,137.167 c 2.363,-0.79 7.273,-3.637 7.644,0.825 -3.864,-0.121 -10.156,1.772 -13.256,4.154 -1.347,1.034 -2.161,2.107 -1.211,3.634 0.706,1.136 1.709,2.033 2.925,2.594 2.327,1.071 5.118,0.835 7.417,-0.19 1.195,-0.533 2.323,-1.33 3.563,-1.754 0.699,-0.238 1.663,-0.47 1.151,0.56 -0.492,0.995 -3.079,1.947 -3.958,2.521 -0.957,0.626 -2.844,2.07 -2.802,3.377 0.149,4.479 8.948,0.737 10.89,1.988 0.691,0.444 -3.045,1.47 -3.065,1.476 -1.332,0.463 -1.904,1.354 -0.824,2.403 1.411,1.366 3.606,1.892 5.261,2.895 2.598,1.578 5.422,3.29 7.461,5.531 0.744,0.817 2.757,2.135 2.099,3.436 -0.381,0.75 -5.169,-4.165 -5.969,-4.55 -0.893,-0.43 -3.051,-1.44 -3.718,-0.391 -0.444,0.707 0.149,2.364 0.328,3.071 0.346,1.35 0.618,2.772 1.179,4.028 0.256,0.577 1.465,2.366 -0.087,2.085 -1.864,-0.337 -2.124,-5.877 -2.619,-7.232 -0.406,-1.111 -1.047,-2.457 -2.422,-2.449 -0.908,0.004 -2.135,0.521 -3.091,0.643 -1.281,0.163 -2.561,0.326 -3.84,0.492 -1.654,0.213 -3.664,-0.224 -5.104,0.819 -1.48,1.075 -2.583,3.385 -0.759,4.625 1.448,0.986 3.563,1.333 5.277,1.432 1.642,0.095 2.846,0.303 4.446,0.786 0.533,0.161 6.994,1.967 6.681,2.586 -1.147,2.222 -13.651,-4.114 -13.757,-1.579 -0.025,0.682 1.543,2.656 1.921,3.332 0.636,1.14 2.149,2.827 2.451,4.08 0.395,1.621 -1.206,0.655 -2.001,-0.016 -2.148,-1.81 -3.426,-4.428 -5.222,-6.549 -0.874,-1.033 -1.868,-2.012 -3.098,-2.611 -1.818,-0.888 -2.852,-0.415 -4.368,0.839 -1.581,1.31 -1.841,3.558 -1.148,5.451 0.125,0.346 0.283,0.665 0.474,0.948 0.625,0.941 3.992,2.407 2.081,3.435 -3.225,1.734 -5.954,-6.161 -6.468,-7.943 -1.016,-3.511 -5.633,-11.047 -10.17,-10.725 0.513,1.775 -0.156,3.442 0.208,5.104 -2.607,-0.228 -2.268,-6.021 -2.717,-7.768 -0.432,-1.677 -0.961,-2.579 -2.32,-3.586 -1.327,-0.983 -3.399,-1.591 -1.795,-3.788 0.611,-0.838 1.88,-0.872 2.7,-1.453 1.088,-0.769 1.844,-1.947 2.513,-3.074 0.716,-1.206 2.988,-4.503 2.928,-5.89 -0.11,-2.438 -3.344,-3.888 -4.871,-1.701 -2.561,-2.575 2.685,-4.403 4.876,-3.177 3.52,1.971 8.871,5.815 12.131,0.955 1.162,-1.736 0.207,-8.249 2.861,-8.469 1.746,-0.144 0.11,4.701 0.352,5.556 1.075,3.809 6.061,0.162 8.842,-0.766 z m -6.841,32.139 c 1.475,0.324 2.171,-0.515 2.099,-2.134 -0.068,-1.533 -0.019,-3.946 -1.297,-5.025 -1.82,-1.54 -6.911,-1.357 -8.382,0.719 -1.979,2.79 5.287,5.721 7.21,6.338 0.129,0.042 0.252,0.074 0.37,0.102 z m -12.983,-5.683 c -0.556,-1.5 -1.189,-2.983 -2.217,-4.178 -0.75,-0.875 -1.656,-1.382 -2.822,-1.43 -0.294,-0.013 -3.233,0.296 -3.135,0.625 0.419,1.347 1.61,3.069 2.767,3.947 1.119,0.847 2.471,1.128 3.7,1.745 0.797,0.4 1.714,1.901 2.606,1.738 -0.312,-0.792 -0.595,-1.623 -0.899,-2.447 z m 25.253,-4.598 c -1.96,-0.898 -3.934,-1.548 -4.434,-1.57 -1.754,-0.078 -2.274,5.129 -1.382,6.149 0.938,1.074 3.986,0.631 5.11,0.512 0.859,-0.09 4.465,-0.313 5.022,-1.157 0.778,-1.17 -1.758,-2.763 -4.316,-3.934 z m -13.041,-7.819 c -0.244,1.137 -0.167,2.494 0.023,3.136 0.527,1.802 4.025,2.833 5.626,2.137 0.93,-0.407 1.41,-2.488 1.571,-3.467 0.211,-1.296 -0.088,-1.557 -1.215,-2.025 -1.339,-0.557 -2.66,-1.255 -4.082,-1.577 -1.108,-0.253 -1.677,0.661 -1.923,1.796 z m -8.39,-5.376 c 1.313,0.363 5.802,2.041 5.369,-0.474 -0.492,-2.866 -3.583,-0.439 -4.569,0.556 m -5.631,12.322 c 1.53,3.886 2.923,3 5.882,1.223 2.38,-1.43 4.838,-2.902 3.84,-6.108 -1.7,-5.452 -11.676,-0.081 -9.722,4.885 z m -6.125,-4.326 c -0.555,0.947 -0.781,1.773 0.05,1.908 1.331,0.216 3.148,-0.889 4.082,-1.738 1.354,-1.23 2.533,-2.616 3.862,-3.851 0.97,-0.9 2.499,-1.775 1.133,-3.119 -0.712,-0.701 -1.379,-0.902 -2.343,-0.642 -2.381,0.641 -3.314,2.6 -4.608,4.473 -0.336,0.483 -1.5,1.816 -2.176,2.969 z m 10.483,13.279 c -1.995,0.379 -0.445,2.165 0.233,3.313 0.648,1.099 1.513,3.853 3.106,3.092 1.17,-0.559 2.799,-2.162 2.432,-3.583 -0.481,-1.848 -4.079,-3.145 -5.771,-2.822 z" /><linearGradient
       gradientTransform="matrix(-0.2177,-0.976,0.976,-0.2177,751.7181,509.6457)"
       y2="-317.77759"
       x2="466.06091"
       y1="-316.78421"
       x1="398.98929"
       gradientUnits="userSpaceOnUse"
       id="XMLID_19_"><stop
         id="stop273"
         style="stop-color:#084799"
         offset="0.0056" /><stop
         id="stop275"
         style="stop-color:#19408B"
         offset="0.0592" /><stop
         id="stop277"
         style="stop-color:#4B2D61"
         offset="0.231" /><stop
         id="stop279"
         style="stop-color:#751D3E"
         offset="0.4008" /><stop
         id="stop281"
         style="stop-color:#951023"
         offset="0.5654" /><stop
         id="stop283"
         style="stop-color:#AC0710"
         offset="0.7232" /><stop
         id="stop285"
         style="stop-color:#BA0204"
         offset="0.8713" /><stop
         id="stop287"
         style="stop-color:#BF0000"
         offset="1" /></linearGradient><path
       inkscape:connector-curvature="0"
       style="fill:url(#XMLID_19_)"
       id="path289"
       d="m 316.641,131.406 c 3.361,-0.763 6.34,-1.921 9.312,-3.582 1.825,-1.02 3.055,-1.853 4.618,-3.237 1.184,-1.048 2.086,-1.766 3.729,-1.504 0.149,0.772 -0.155,1.506 -0.772,1.996 -0.188,2.5 6.904,5.636 8.776,6.758 2.771,1.662 6.023,1.59 9.083,2.381 4.745,1.228 9.791,2.188 13.993,4.902 2.378,1.537 7.647,3.202 8.557,6.026 0.93,2.883 3.835,7.342 6.23,9.367 1.419,1.2 3.583,0.873 4.506,2.801 -2.244,1.578 0.462,8.052 2.073,9.176 0.867,0.604 4.055,0.128 2.851,2.162 -0.35,0.593 -3.458,0.846 -4.159,1.05 0.234,2.83 5.208,13.73 0.992,15.315 -1.421,-2.365 -0.084,-3.72 -3.83,-2.497 -1.54,0.503 -7.571,4.72 -7.879,1.391 2.987,-2.186 9.399,-2.645 10.313,-6.528 1.244,-5.294 -3.456,-1.873 -5.65,-3.255 0.75,-2.121 4.241,-2.508 4.57,-4.78 0.189,-1.32 -1.874,-5.606 -2.308,-7.112 -0.38,-1.311 -0.762,-3.082 -1.365,-4.319 -1.567,-3.216 -8.978,-11.375 -8.396,-3.665 0.068,0.903 1.139,3.353 0.21,4.068 -1.337,1.03 -1.984,-0.622 -2.44,-1.479 -0.935,-1.761 -0.213,-2.681 -2.142,-3.787 -1.143,-0.654 -2.754,-0.746 -3.996,-0.401 -2.678,0.746 -7.299,8.025 -9.918,7.09 -2.299,-0.82 3.601,-5.695 4.541,-6.585 0.971,-0.922 1.897,-2.37 3.146,-2.938 1.531,-0.698 2.688,0.056 4.173,-0.277 1.892,-0.424 4.05,-1.979 3.411,-4.232 -0.416,-1.47 -2.171,-3.528 -3.938,-3.324 -0.951,0.111 -2.432,1.52 -0.563,1.712 -1.465,-0.151 -2.869,0.378 -4.314,0.586 -0.37,-1.718 -2.521,-4.84 -4.165,-5.634 -1.784,-0.86 -5.277,-2.196 -7.207,-2.379 -2.395,-0.227 -3.96,1.574 -2.504,3.521 0.977,1.303 3.697,1.606 5.152,2.049 1.432,0.435 5.38,0.911 5.339,2.863 -2.157,0.627 -7.855,-2.433 -9.063,0.747 -0.867,2.291 4.23,4.311 4.936,6.421 -2.189,1.443 -5.202,-4.057 -7.581,-2.248 -0.712,0.54 -0.524,1.942 -0.67,2.702 -0.374,1.967 -2.558,5.328 -1.056,7.181 1.025,1.266 3.785,1.789 4.228,3.423 -1.438,0.741 -3.934,-1.67 -5.246,-2.076 -2.549,-0.786 -2.697,2.563 -1.318,4.086 1.704,1.879 4.979,2.981 5.866,5.425 -3.391,1.095 -5.939,-6.178 -8.988,-5.465 -2.408,0.562 -1.612,6.157 -3.877,7.037 -1.043,-2.538 2.81,-6.149 -0.297,-8.191 -1.215,-0.798 -3.36,-1.208 -4.807,-1.05 -3.175,0.348 -1.226,2.322 -0.282,3.964 0.809,1.403 1.609,3.121 1.809,4.773 -3.356,-0.032 -4.982,-7.103 -6.241,-9.518 -1.805,-3.465 -5.03,-5.802 -5.612,-0.572 -0.145,1.305 -0.262,5.355 -1.542,2.429 -0.679,-1.548 0.274,-3.301 0.5,-4.797 0.392,-2.602 0.358,-5.146 0.105,-7.755 -0.187,-1.907 -0.304,-4.61 -2.086,-5.805 -1.967,-1.32 -2.55,2.077 -2.872,3.31 -0.3,1.143 -0.932,2.183 -1.238,3.231 -0.305,1.05 0.026,2.159 -0.004,3.225 -0.012,0.39 -1.096,-0.761 -1.125,-0.804 -0.429,-0.651 -0.434,-1.749 -0.47,-2.495 -0.097,-1.823 0.65,-3.542 0.894,-5.354 -0.992,0.153 -2.162,0.829 -3.104,0.838 -1.007,0.011 -1.729,-0.716 -0.703,-1.588 1.001,-0.851 2.861,-0.493 4.008,-1.579 1.15,-1.093 2.547,-3.33 2.458,-5 -0.097,-1.848 -2.195,-3.054 -3.622,-3.85 -1.794,-1.003 -2.827,-1.932 -0.144,-3.335 2.16,-1.13 4.718,-0.464 7.115,-1.009 z m 6.26,24.666 c -0.059,-0.136 -0.108,-0.262 -0.146,-0.374 -0.479,-1.419 -0.961,-2.83 -1.468,-4.239 -0.262,-0.724 -0.496,-1.805 -1.072,-2.348 -1.063,-1 -1.375,-0.04 -1.313,0.816 0.09,1.292 0.232,2.519 0.513,3.79 0.455,2.067 1.871,3.01 3.221,4.494 0.339,0.376 0.515,0.786 0.993,0.969 0.43,-0.746 -0.33,-2.175 -0.728,-3.108 z m 5.178,-9.202 c 0.387,1.813 2.811,0.382 4.251,0.346 0.938,-0.023 2.224,0.311 3.013,-0.292 -0.524,-1.486 -2.844,-4.024 -4.383,-4.527 -1.798,-0.588 -2.894,2.388 -2.932,3.799 -0.008,0.262 0.012,0.486 0.051,0.674 z m -6.341,-7.921 c -0.962,-0.444 -1.986,-0.738 -2.947,-1.188 -0.859,-0.402 -1.465,-1.144 -2.285,-1.556 -0.649,-0.325 -1.731,-0.417 -2.239,0.273 -0.509,0.694 0.05,1.729 0.315,2.419 0.597,1.555 1.065,3.054 1.852,4.538 0.798,1.505 1.049,2.581 2.613,2.806 0.792,0.113 1.56,0.543 2.361,0.628 1.569,0.167 4.085,0.485 4.726,-1.287 0.344,-0.953 1.027,-2.418 0.646,-3.374 -0.521,-1.311 -3.254,-2.298 -4.444,-2.958 -0.196,-0.108 -0.395,-0.208 -0.598,-0.301 z M 329.7,129.5 c -2.221,-0.957 -5.505,2.381 -7.711,2.731 -1.363,0.218 -5.686,1.269 -2.578,2.817 2.28,1.137 5.218,1.821 7.707,2.237 4.077,0.681 6.786,-5.977 2.582,-7.785 z m 12.365,7.418 c 2.368,-1.381 0.177,-4.251 -1.961,-3.754 -0.814,0.188 -5.637,1.504 -5.556,2.496 0.07,0.898 1.696,0.914 2.345,1.044 1.562,0.315 3.666,1.094 5.172,0.214 z m -4.21,-4.813 c -0.656,-0.548 -1.594,-1.379 -2.583,-1.975 -0.763,-0.458 -1.558,-0.775 -2.275,-0.715 0.123,1.115 0.856,2.534 1.938,3.006 0.615,0.27 2.812,-0.407 2.92,-0.316 z m 4.987,15.084 c 1.35,-1.102 5.27,-2.841 2.596,-4.756 -2.367,-1.696 -5.773,-2.696 -8.534,-3.479 -1.207,-0.343 -3.832,-1.33 -5.008,-0.457 -1.054,0.786 0.601,2.135 1.213,2.882 0.956,1.166 2.076,2.152 3.159,3.203 1.518,1.473 3.116,3.716 5.581,2.829 m 0.092,4.529 c -0.357,-2.789 -4.551,-2.9 -6.709,-3.116 -1.292,-0.129 -2.654,-0.272 -3.947,-0.097 -2.304,0.312 -1.517,2.11 -0.303,3.583 0.947,1.151 2,2.295 3.063,3.353 1.075,1.068 2.466,2.83 3.969,3.264 2.811,0.813 3.977,-4.706 3.955,-6.563 0,-0.149 -0.011,-0.29 -0.028,-0.424 z m -17.29,4.56 c 0.148,0.427 0.319,0.844 0.53,1.248 0.866,1.669 2.811,2.609 4.548,3.154 1.425,0.446 3.015,0.373 4.331,1.054 0.699,0.361 2.304,1.879 3.025,0.854 0.48,-0.684 -0.238,-1.347 -0.653,-1.709 -1.535,-1.345 -2.99,-2.939 -4.386,-4.448 -1.24,-1.343 -2.636,-2.477 -3.848,-3.862 -0.921,-1.056 -2.299,-2.806 -3.857,-2.813 -1.671,-0.006 -1.004,1.71 -0.724,2.695 0.361,1.261 0.596,2.582 1.034,3.827 z" /><linearGradient
       gradientTransform="matrix(-0.2177,-0.976,0.976,-0.2177,751.7181,509.6457)"
       y2="-353.6651"
       x2="354.81479"
       y1="-353.51031"
       x1="344.35739"
       gradientUnits="userSpaceOnUse"
       id="XMLID_20_"><stop
         id="stop292"
         style="stop-color:#084799"
         offset="0.0056" /><stop
         id="stop294"
         style="stop-color:#19408B"
         offset="0.0592" /><stop
         id="stop296"
         style="stop-color:#4B2D61"
         offset="0.231" /><stop
         id="stop298"
         style="stop-color:#751D3E"
         offset="0.4008" /><stop
         id="stop300"
         style="stop-color:#951023"
         offset="0.5654" /><stop
         id="stop302"
         style="stop-color:#AC0710"
         offset="0.7232" /><stop
         id="stop304"
         style="stop-color:#BA0204"
         offset="0.8713" /><stop
         id="stop306"
         style="stop-color:#BF0000"
         offset="1" /></linearGradient><path
       inkscape:connector-curvature="0"
       style="fill:url(#XMLID_20_)"
       id="path308"
       d="m 325.229,244.227 c 4.566,6.162 3.768,-4.33 6.882,-4.956 6.877,-1.384 -2.679,8.285 -2.698,7.905 0.096,1.905 2.414,2.871 4.053,3.296 -3.102,1.642 -8.205,-1.634 -8.28,-5.147 0.487,-0.402 0.387,0.079 0.669,0.152" /><linearGradient
       gradientTransform="matrix(-0.2177,-0.976,0.976,-0.2177,751.7181,509.6457)"
       y2="-340.15771"
       x2="351.78851"
       y1="-339.99371"
       x1="340.70901"
       gradientUnits="userSpaceOnUse"
       id="XMLID_21_"><stop
         id="stop311"
         style="stop-color:#084799"
         offset="0.0056" /><stop
         id="stop313"
         style="stop-color:#19408B"
         offset="0.0592" /><stop
         id="stop315"
         style="stop-color:#4B2D61"
         offset="0.231" /><stop
         id="stop317"
         style="stop-color:#751D3E"
         offset="0.4008" /><stop
         id="stop319"
         style="stop-color:#951023"
         offset="0.5654" /><stop
         id="stop321"
         style="stop-color:#AC0710"
         offset="0.7232" /><stop
         id="stop323"
         style="stop-color:#BA0204"
         offset="0.8713" /><stop
         id="stop325"
         style="stop-color:#BF0000"
         offset="1" /></linearGradient><path
       inkscape:connector-curvature="0"
       style="fill:url(#XMLID_21_)"
       id="path327"
       d="m 345.139,243.33 c 0.714,2.261 1.171,4.888 1.524,5.141 2.573,1.842 4.202,-1.89 6.368,-2.402 1.001,-0.236 -1.023,3.275 -1.641,3.622 -1.737,0.976 -3.884,0.023 -5.693,0.722 -2.19,0.856 -6.244,4.337 -8.525,1.642 0.029,0.033 4.883,-1.707 5.246,-2.195 2.161,-2.894 -2.793,-6.017 -1.01,-8.671 1.741,-2.592 2.908,-0.47 3.731,2.141 z" /><linearGradient
       gradientTransform="matrix(-0.2177,-0.976,0.976,-0.2177,751.7181,509.6457)"
       y2="-327.76761"
       x2="357.41309"
       y1="-327.6221"
       x1="347.58789"
       gradientUnits="userSpaceOnUse"
       id="XMLID_22_"><stop
         id="stop330"
         style="stop-color:#084799"
         offset="0.0056" /><stop
         id="stop332"
         style="stop-color:#19408B"
         offset="0.0592" /><stop
         id="stop334"
         style="stop-color:#4B2D61"
         offset="0.231" /><stop
         id="stop336"
         style="stop-color:#751D3E"
         offset="0.4008" /><stop
         id="stop338"
         style="stop-color:#951023"
         offset="0.5654" /><stop
         id="stop340"
         style="stop-color:#AC0710"
         offset="0.7232" /><stop
         id="stop342"
         style="stop-color:#BA0204"
         offset="0.8713" /><stop
         id="stop344"
         style="stop-color:#BF0000"
         offset="1" /></linearGradient><path
       inkscape:connector-curvature="0"
       style="fill:url(#XMLID_22_)"
       id="path346"
       d="m 355.716,242.29 c 5.77,-0.627 -0.535,-11.708 -3.306,-10.063 -2.862,1.698 6.057,6.872 2.901,9.806" /><linearGradient
       gradientTransform="matrix(-0.2177,-0.976,0.976,-0.2177,751.7181,509.6457)"
       y2="-286.58109"
       x2="377.24979"
       y1="-312.20071"
       x1="356.6055"
       gradientUnits="userSpaceOnUse"
       id="XMLID_23_"><stop
         id="stop349"
         style="stop-color:#084799"
         offset="0.0056" /><stop
         id="stop351"
         style="stop-color:#19408B"
         offset="0.0592" /><stop
         id="stop353"
         style="stop-color:#4B2D61"
         offset="0.231" /><stop
         id="stop355"
         style="stop-color:#751D3E"
         offset="0.4008" /><stop
         id="stop357"
         style="stop-color:#951023"
         offset="0.5654" /><stop
         id="stop359"
         style="stop-color:#AC0710"
         offset="0.7232" /><stop
         id="stop361"
         style="stop-color:#BA0204"
         offset="0.8713" /><stop
         id="stop363"
         style="stop-color:#BF0000"
         offset="1" /></linearGradient><path
       inkscape:connector-curvature="0"
       style="fill:url(#XMLID_23_)"
       id="path365"
       d="m 369.543,228.815 c 0.141,-1.371 0.027,-3.272 -0.826,-4.304 -1.133,-1.374 -1.377,3.063 -1.473,3.355 -0.729,2.266 -2.381,1.679 -4.165,2.546 0.022,-0.012 2.694,1.349 3.229,1.372 1.109,0.046 2.466,-0.651 3.521,-0.989 2.796,-0.894 5.634,-1.526 7.433,-4.091 1.151,-1.642 2.201,-6.803 -0.563,-7.472 0.45,4.083 -1.699,11.265 -7.199,9.932 0.014,-0.112 0.031,-0.227 0.043,-0.349 z" /><linearGradient
       gradientTransform="matrix(-0.2177,-0.976,0.976,-0.2177,751.7181,509.6457)"
       y2="-285.1716"
       x2="375.49979"
       y1="-310.7876"
       x1="354.8584"
       gradientUnits="userSpaceOnUse"
       id="XMLID_24_"><stop
         id="stop368"
         style="stop-color:#084799"
         offset="0.0056" /><stop
         id="stop370"
         style="stop-color:#19408B"
         offset="0.0592" /><stop
         id="stop372"
         style="stop-color:#4B2D61"
         offset="0.231" /><stop
         id="stop374"
         style="stop-color:#751D3E"
         offset="0.4008" /><stop
         id="stop376"
         style="stop-color:#951023"
         offset="0.5654" /><stop
         id="stop378"
         style="stop-color:#AC0710"
         offset="0.7232" /><stop
         id="stop380"
         style="stop-color:#BA0204"
         offset="0.8713" /><stop
         id="stop382"
         style="stop-color:#BF0000"
         offset="1" /></linearGradient><path
       inkscape:connector-curvature="0"
       style="fill:url(#XMLID_24_)"
       id="path384"
       d="m 384.494,217.11 c -1.874,-0.102 -4.637,-1.728 -4.952,-3.722 1.731,-0.783 3.802,-0.064 5.411,0.756 1.007,0.514 4.929,3.619 1.088,3.663" /><linearGradient
       gradientTransform="matrix(-0.2177,-0.976,0.976,-0.2177,751.7181,509.6457)"
       y2="-289.7821"
       x2="381.22531"
       y1="-315.4053"
       x1="360.57809"
       gradientUnits="userSpaceOnUse"
       id="XMLID_25_"><stop
         id="stop387"
         style="stop-color:#084799"
         offset="0.0056" /><stop
         id="stop389"
         style="stop-color:#19408B"
         offset="0.0592" /><stop
         id="stop391"
         style="stop-color:#4B2D61"
         offset="0.231" /><stop
         id="stop393"
         style="stop-color:#751D3E"
         offset="0.4008" /><stop
         id="stop395"
         style="stop-color:#951023"
         offset="0.5654" /><stop
         id="stop397"
         style="stop-color:#AC0710"
         offset="0.7232" /><stop
         id="stop399"
         style="stop-color:#BA0204"
         offset="0.8713" /><stop
         id="stop401"
         style="stop-color:#BF0000"
         offset="1" /></linearGradient><path
       inkscape:connector-curvature="0"
       style="fill:url(#XMLID_25_)"
       id="path403"
       d="m 387.208,207.473 c 5.014,-1.377 -2.489,-11.039 -7.438,-8.704 -1.001,2.604 2.704,1.887 4.065,2.932 2.902,2.228 -0.498,2.239 -2.09,3.439 -3.121,2.355 -0.58,2.075 1.719,1.083 2.083,-0.898 3.717,-1.281 4.188,1.452 1.366,-0.512 1.006,-2.109 -0.043,-3.071" /><linearGradient
       gradientTransform="matrix(-0.2177,-0.976,0.976,-0.2177,751.7181,509.6457)"
       y2="-294.66281"
       x2="387.28091"
       y1="-320.28711"
       x1="366.63281"
       gradientUnits="userSpaceOnUse"
       id="XMLID_26_"><stop
         id="stop406"
         style="stop-color:#084799"
         offset="0.0056" /><stop
         id="stop408"
         style="stop-color:#19408B"
         offset="0.0592" /><stop
         id="stop410"
         style="stop-color:#4B2D61"
         offset="0.231" /><stop
         id="stop412"
         style="stop-color:#751D3E"
         offset="0.4008" /><stop
         id="stop414"
         style="stop-color:#951023"
         offset="0.5654" /><stop
         id="stop416"
         style="stop-color:#AC0710"
         offset="0.7232" /><stop
         id="stop418"
         style="stop-color:#BA0204"
         offset="0.8713" /><stop
         id="stop420"
         style="stop-color:#BF0000"
         offset="1" /></linearGradient><path
       inkscape:connector-curvature="0"
       style="fill:url(#XMLID_26_)"
       id="path422"
       d="m 385.065,194.749 c -0.974,-0.905 -9.839,-0.874 -5.945,-3.215 2.492,-1.5 9.151,2.792 5.209,3.032" /><path
       style="opacity:0.23000004;fill:#8f0000"
       inkscape:connector-curvature="0"
       id="path424"
       d="m 281.733,202.207 c 5.32,-3.71 10.425,4.607 12.207,8.341 3.245,-3.827 10.566,-5.447 15.257,-5.959 3.461,-0.379 6.031,-0.309 9.139,1.265 1.163,0.588 2.765,1.167 3.756,2.025 0.93,0.807 1.058,1.867 2.307,2.074 3.652,-8.377 14.843,-10.683 22.719,-8.468 -0.011,-5.786 5.015,-9.597 3.579,-15.573 -0.704,-2.929 -1.702,-5.81 -2.122,-8.801 -0.373,-2.655 -0.356,-6.109 -3.648,-5.875 -1.053,0.076 -2.491,1.276 -3.728,1.472 -1.586,0.251 -3.306,0.037 -4.889,-0.134 -6.331,-0.674 -13.956,-3.671 -19.831,0.171 -3.896,2.547 -4.547,7.933 -9.366,9.727 -3.47,1.292 -7.326,0.493 -10.918,0.419 -3.623,-0.073 -6.456,1.384 -9.662,3.125 2.284,6.328 -3.928,10.68 -5.139,16.19" /><path
       style="opacity:0.41000001;fill:none;stroke:#084799;stroke-width:0.5086"
       inkscape:connector-curvature="0"
       id="path426"
       d="m 341.591,172.145 c -2.138,0.516 -4.6,1.586 -6.813,0.852 -0.439,4.87 -7.237,8.428 -11.151,10.034 -5.264,2.16 -10.207,4.329 -15.237,6.957 2.974,-3.107 4.583,-8.235 2.965,-12.391 -1.241,1.922 -3.32,3.594 -5.607,3.977 4.157,14.732 -17.458,11.689 -23.402,18.37 -2.043,2.297 -4.499,4.168 -6.616,6.387 -1.281,1.342 -4.18,3.896 -4.615,5.707 3.805,-1.914 8.324,-3.535 12.824,-4.665 9.066,-2.274 17.782,-1.423 25.03,5.195 4.367,3.988 7.772,11.895 3.269,17.11 -3.675,4.251 -10.084,-3.194 -12.138,-6.133 0.205,1.865 -0.423,3.99 -0.684,5.845 -1.164,-3.435 -0.101,-8.063 -2.504,-11.028 1.709,2.107 7.79,2.566 10.23,2.819 -1.587,0.322 -3.234,0.645 -4.76,1.098 2.207,2.312 3.358,5.649 6.872,6.49 8.237,1.973 8.56,-7.438 7.292,-13.01 -0.767,-3.371 -2.023,-7.105 -4.441,-9.698 -1.574,-1.686 -7.697,-2.656 -5.942,-4.681 2.409,-2.773 10.468,-1.796 13.787,-1.507 6.363,0.556 12.396,2.879 17.183,7.165 4.548,4.073 13.61,13.352 5.983,18.868 -3.549,2.566 -6.666,-0.038 -9.033,-2.655 0.353,1.634 1.068,2.814 1.023,4.433 -1.478,-2.438 -3.938,-7.308 -3.373,-10.233 3.088,0.031 6.396,0.539 9.445,0.985 -2.294,1.117 -4.421,1.672 -1.907,3.618 1.781,1.38 4.401,1.156 5.93,-0.417 4.072,-4.192 0.222,-13.014 -2.904,-16.55 -4.222,-4.775 -9.245,-7.852 -14.411,-11.408 12.174,-2.994 27.529,-14.327 38.705,-2.355 3.422,3.666 3.825,9.424 -0.265,12.904 -1.15,0.979 -3.191,1.019 -4.103,1.847 -1.101,1.003 -0.772,3.821 -1.534,5.205 -1.498,-1.891 -2.851,-4.317 -4.805,-5.773 2.078,-1.483 4.673,-3.98 5.826,-6.195 -0.114,2.753 -1.426,4.398 2.053,4.361 3.685,-0.04 7.097,-2.559 8.154,-5.989 2.656,-8.605 -8.543,-14.245 -15.553,-15.224 4.466,-2.008 12.717,-5.187 13.768,-10.782 0.868,-4.637 -3.454,-8.546 -7.854,-7.68 -0.048,-1.237 -0.41,-3.177 -0.678,-4.085 -1.028,1.825 -3.497,4.534 -5.286,5.553 2.111,1.153 5.224,2.096 5.667,4.877 0.02,-0.722 -0.172,-2.075 -0.004,-3.046 1.972,-0.301 2.761,-1.1 4.768,-0.517 2.357,0.686 3.919,2.32 3.754,4.814 -0.278,4.206 -5.88,4.649 -9.244,5.184 -8.414,1.338 -17.049,2.792 -24.289,7.488 1.25,-2.421 1.585,-4.319 2.049,-6.856 0.256,-1.393 0.766,-4.829 2.576,-5.265 z" /><path
       style="fill:#0060b6"
       inkscape:connector-curvature="0"
       id="path428"
       d="m 174.488,253.085 c -0.806,-0.521 -1.555,-0.539 -2.01,0.324 -0.691,1.307 0.178,3.52 0.811,4.747 0.641,1.248 1.964,3.085 3.564,3.014 3.136,-0.14 0.108,-6.484 -2.365,-8.085 z" /><path
       style="fill:#093463"
       inkscape:connector-curvature="0"
       id="path430"
       d="m 175.209,259.56 c 0.176,0.128 0.362,0.236 0.56,0.31 1.391,0.523 1.085,-1.056 0.942,-1.83 -0.246,-1.337 -0.78,-2.354 -1.795,-3.313 -0.997,-0.942 -2.033,-0.596 -1.929,0.802 0.069,0.944 0.526,2.053 1.085,2.817 0.31,0.422 0.69,0.888 1.137,1.214 z" /><g
       id="g432"><path
         style="fill:#ff7f00;stroke:#ff4000;stroke-width:0.37090001"
         inkscape:connector-curvature="0"
         id="path434"
         d="m 165.957,226.189 c -0.681,-0.956 0.92,-2.284 1.784,-1.225 0.455,-0.63 1.131,-0.72 1.697,-0.212 0.266,-1.061 1.446,-1.635 1.89,-0.42 -0.333,-0.913 1.157,-0.156 1.435,0.093 0.747,0.674 0.304,2.343 -0.087,3.048 -0.455,0.82 -0.575,2.462 -2.017,1.754 -0.394,0.674 -1.222,1.243 -1.845,0.613 -0.254,0.935 -1.447,1.334 -2.063,0.623 -0.598,0.542 -1.166,-0.261 -1.854,-0.44 -0.804,-0.209 -1.477,-0.252 -1.34,-1.288 0.049,-0.354 0.719,-2.322 1.314,-1.265 -0.448,-0.792 0.199,-2.225 1.086,-1.281 z" /><path
         style="fill:#ffbf00"
         inkscape:connector-curvature="0"
         id="path436"
         d="m 165.055,227.786 c -0.994,-0.913 -1.412,1.256 -0.184,1.076 -0.226,0.458 0.303,0.966 0.709,0.631 -0.046,0.759 0.852,0.72 1.078,0.153 0.111,0.657 1.022,0.822 1.247,0.175 -0.57,0.429 -1.087,-0.267 -0.869,-0.805 -0.513,-0.098 -0.442,0.51 -0.741,0.537 -0.369,0.032 -0.516,-0.59 -0.181,-0.768 -0.465,-0.026 -1.39,0.051 -0.774,-0.755 -0.063,-0.008 -0.133,-0.022 -0.195,-0.023 -0.137,-0.846 0.341,-1.223 1.142,-1.132 -0.399,0.215 -0.995,0.507 -0.694,1.147 0.254,0.543 0.656,0.397 0.997,0.082 -0.243,0.479 0.318,0.708 0.619,0.384 -0.149,0.338 0.001,0.765 0.388,0.836 -0.088,-0.459 -0.356,-1.079 0.298,-1.311 -0.335,0.016 -0.866,0.388 -1.143,0.165 -0.469,-0.379 0.144,-1.275 0.677,-1.165 -0.816,-0.124 -0.913,0.49 -1.352,0.92 -0.123,-0.598 0.333,-1.075 0.845,-1.272 -0.542,0.016 -0.019,-0.915 0.429,-0.964 -0.321,-0.04 -0.64,0.073 -0.766,0.383 -0.293,-0.183 -0.336,-0.739 -0.006,-0.931 -0.562,0.222 -0.757,0.805 -0.474,1.332 -0.699,-0.749 -1.584,0.317 -1.153,1.043 -0.176,0.037 -0.396,0.147 -0.515,0.262" /><path
         style="fill:#f16422"
         inkscape:connector-curvature="0"
         id="path438"
         d="m 168.996,229.253 c 0.838,0.304 1.137,-1 0.798,-1.537 0.229,0.084 0.43,0.283 0.576,0.446 0.02,-0.111 0.087,-0.178 0.109,-0.289 0.849,0.378 1.211,-0.767 0.549,-1.253 0.06,-0.008 0.176,-0.079 0.273,-0.083 0.037,-0.334 -0.28,-0.488 -0.581,-0.526 0.046,-0.044 0.096,-0.131 0.125,-0.162 -0.499,-0.306 -0.886,0.011 -1.292,0.306 -0.124,-0.656 -1.067,-0.192 -1.194,0.233 -0.188,-0.393 -0.716,-0.365 -1.057,-0.156 0.129,-0.679 0.854,-0.691 1.375,-0.622 -0.054,-0.092 -0.078,-0.275 -0.136,-0.365 0.759,0.31 0.622,-0.33 0.012,-0.554 0.699,0.102 0.829,0.449 1.281,0.77 0.016,-0.747 1.001,0.05 1.25,-0.124 0.715,-0.497 -0.45,-1.254 -0.912,-1.278 0.701,-0.349 1.122,0.426 1.231,0.999 0.073,-0.083 0.23,-0.147 0.283,-0.203 0.021,0.22 0.017,0.457 0.021,0.679 0.916,0.095 0.231,-1.072 0.019,-1.37 0.953,0.021 1.27,1.487 0.504,1.92 0.404,0.383 0.587,1.175 0.175,1.607 0.173,-0.56 -0.242,-1.196 -0.85,-1.129 0.162,0.387 0.039,0.86 0.159,1.215 0.11,-0.09 0.28,-0.095 0.372,-0.202 0.418,0.625 -0.1,1.36 -0.768,1.433 0.515,-0.351 0.59,-1.09 -0.144,-1.051 -0.229,0.012 -0.823,0.288 -0.914,0.527 0.677,0.215 -0.247,1.101 -0.647,1.158 -0.531,0.075 -0.878,-0.317 -1.015,-0.746 0.361,0.323 0.41,-0.602 0.313,-0.857 0.247,0.318 0.027,0.545 0.106,0.828 0.03,0.111 0.061,0.81 0.44,0.232" /></g><g
       id="g440"><path
         style="fill:#ff7f00;stroke:#ff4000;stroke-width:0.37090001"
         inkscape:connector-curvature="0"
         id="path442"
         d="m 195.442,228.015 c -0.679,-0.957 0.921,-2.285 1.784,-1.226 0.455,-0.629 1.132,-0.719 1.699,-0.212 0.264,-1.062 1.446,-1.634 1.89,-0.419 -0.333,-0.913 1.156,-0.156 1.433,0.093 0.748,0.673 0.305,2.344 -0.085,3.047 -0.456,0.822 -0.574,2.463 -2.017,1.754 -0.393,0.676 -1.222,1.243 -1.844,0.613 -0.255,0.936 -1.447,1.334 -2.065,0.623 -0.6,0.543 -1.166,-0.262 -1.854,-0.44 -0.803,-0.21 -1.479,-0.252 -1.342,-1.287 0.052,-0.355 0.722,-2.322 1.316,-1.265 -0.445,-0.793 0.2,-2.225 1.085,-1.281 z" /><path
         style="fill:#ffbf00"
         inkscape:connector-curvature="0"
         id="path444"
         d="m 194.543,229.611 c -0.996,-0.913 -1.415,1.256 -0.185,1.076 -0.229,0.458 0.302,0.967 0.708,0.631 -0.045,0.759 0.85,0.72 1.078,0.153 0.111,0.657 1.023,0.823 1.248,0.174 -0.571,0.43 -1.088,-0.266 -0.871,-0.805 -0.514,-0.099 -0.442,0.51 -0.739,0.538 -0.369,0.031 -0.516,-0.591 -0.182,-0.769 -0.464,-0.026 -1.39,0.05 -0.773,-0.756 -0.063,-0.007 -0.132,-0.022 -0.197,-0.023 -0.134,-0.846 0.344,-1.224 1.144,-1.132 -0.399,0.214 -0.996,0.506 -0.697,1.147 0.254,0.542 0.659,0.396 1,0.081 -0.244,0.479 0.316,0.708 0.616,0.385 -0.146,0.338 0.002,0.764 0.39,0.836 -0.088,-0.458 -0.356,-1.079 0.298,-1.312 -0.334,0.017 -0.866,0.388 -1.143,0.166 -0.47,-0.38 0.145,-1.276 0.677,-1.164 -0.815,-0.125 -0.915,0.489 -1.352,0.92 -0.123,-0.598 0.334,-1.076 0.845,-1.272 -0.541,0.017 -0.018,-0.913 0.431,-0.963 -0.323,-0.041 -0.641,0.073 -0.768,0.381 -0.295,-0.182 -0.335,-0.739 -0.005,-0.93 -0.562,0.222 -0.758,0.805 -0.474,1.331 -0.699,-0.748 -1.585,0.317 -1.155,1.043 -0.173,0.036 -0.393,0.146 -0.513,0.262" /><path
         style="fill:#f16422"
         inkscape:connector-curvature="0"
         id="path446"
         d="m 198.482,231.079 c 0.839,0.305 1.137,-1 0.8,-1.537 0.229,0.084 0.429,0.284 0.574,0.447 0.02,-0.112 0.088,-0.178 0.109,-0.29 0.849,0.378 1.211,-0.766 0.55,-1.253 0.059,-0.007 0.174,-0.078 0.271,-0.083 0.039,-0.334 -0.278,-0.488 -0.579,-0.526 0.046,-0.044 0.097,-0.131 0.125,-0.162 -0.498,-0.305 -0.888,0.011 -1.29,0.305 -0.125,-0.655 -1.071,-0.192 -1.196,0.234 -0.188,-0.393 -0.715,-0.366 -1.054,-0.157 0.124,-0.678 0.851,-0.691 1.373,-0.622 -0.055,-0.092 -0.079,-0.275 -0.138,-0.365 0.761,0.31 0.624,-0.329 0.012,-0.554 0.702,0.103 0.832,0.45 1.282,0.77 0.017,-0.746 1.001,0.05 1.251,-0.124 0.714,-0.497 -0.451,-1.254 -0.913,-1.278 0.701,-0.349 1.123,0.426 1.232,1 0.07,-0.083 0.231,-0.148 0.283,-0.203 0.02,0.221 0.017,0.457 0.02,0.679 0.914,0.095 0.231,-1.072 0.018,-1.37 0.955,0.021 1.271,1.485 0.504,1.919 0.406,0.383 0.588,1.176 0.177,1.606 0.171,-0.559 -0.243,-1.195 -0.85,-1.129 0.163,0.388 0.039,0.86 0.158,1.214 0.112,-0.089 0.28,-0.096 0.371,-0.201 0.42,0.625 -0.099,1.359 -0.765,1.433 0.511,-0.351 0.587,-1.09 -0.146,-1.05 -0.231,0.013 -0.824,0.288 -0.916,0.527 0.678,0.215 -0.246,1.1 -0.645,1.157 -0.531,0.075 -0.878,-0.318 -1.016,-0.747 0.362,0.322 0.41,-0.601 0.313,-0.857 0.244,0.319 0.025,0.545 0.105,0.83 0.029,0.11 0.062,0.809 0.44,0.231" /></g><g
       id="g448"><path
         style="fill:#bf0000"
         inkscape:connector-curvature="0"
         id="path450"
         d="m 224.919,206.042 c -5.009,3.149 -10.783,6.819 -14.682,11.21 -3.859,4.346 -8.96,6.938 -13.323,10.759 -1.767,1.547 -3.804,2.938 -5.371,4.694 -0.487,0.544 -0.838,1.173 -1.384,1.667 -0.848,0.764 -1.731,1.437 -2.517,2.276 -1.097,1.173 -2.161,2.168 -3.425,3.188 -2.683,2.162 -5.389,4.306 -8.273,6.193 -1.147,0.75 -2.83,2.248 -4.19,1.088 -0.953,-0.813 -1.711,-2.262 -2.07,-3.454 -0.304,-1.015 -0.619,-2.671 -0.361,-3.738 0.244,-1.014 1.896,-1.365 2.684,-1.805 1.226,-0.684 2.344,-1.54 3.497,-2.336 2.244,-1.549 4.464,-3.138 6.763,-4.613 0.891,-0.569 1.477,-1.219 2.263,-1.879 0.969,-0.813 2.065,-1.501 3.072,-2.271 4.008,-3.07 7.813,-6.438 11.137,-10.245 4.158,-4.761 6.934,-10.294 10.199,-15.661 3.097,-5.09 4.766,-10.309 6.13,-16.123 1.654,-7.043 2.536,-14.499 1.477,-21.74 2.086,-0.87 3.764,-3.223 5.021,-4.966 0.95,5.864 0.991,11.907 0.179,17.791 -0.985,7.145 -3.376,14.125 -6.39,20.694 -0.574,1.253 -1.455,2.461 -1.274,3.752 4.126,-1.817 20.923,-28.03 26.6,-20.835 1.368,1.733 -1.766,2.174 -2.896,2.739 -1.875,0.937 -3.735,2.202 -5.428,3.635 -5.665,4.794 -10.326,10.1 -15.27,15.543 -1.32,1.453 -11.518,9.864 -5.802,10.574 2.768,0.342 6.162,-4.048 8.249,-5.431 4.263,-2.825 12.816,-12.252 17.977,-5.949 -0.086,-0.105 -6.48,1.932 -7.188,2.267 -1.915,0.899 -3.695,1.902 -5.404,2.976 z" /><path
         style="fill:#ff0000"
         inkscape:connector-curvature="0"
         id="path452"
         d="m 170.53,245.487 c -0.979,-1.436 -1.533,-3.59 -1.163,-5.317 0.253,-1.177 0.944,-1.37 1.775,-0.455 0.507,0.557 0.898,1.542 1.22,2.228 0.444,0.949 0.967,2.063 1.099,3.108 0.078,0.618 0.164,2.341 -0.573,2.614 -0.963,0.354 -1.525,-1.034 -1.956,-1.617 -0.138,-0.186 -0.273,-0.372 -0.402,-0.561 z" /><path
         style="fill:#8f0000"
         inkscape:connector-curvature="0"
         id="path454"
         d="m 170.514,240.608 c -1.074,-0.137 0.081,3.51 0.334,4.065 0.16,0.354 0.753,1.528 1.191,1.603 1.325,0.226 -0.442,-4.164 -0.593,-4.565" /></g></g><line
     style="fill:none;stroke:#000000;stroke-width:1.54810309"
     id="line580"
     y2="207.38004"
     x2="141.51326"
     y1="331.19827"
     x1="141.51326" /><line
     style="fill:none;stroke:#000000;stroke-width:1.49972284"
     id="line598"
     y2="335.03497"
     x2="185.50603"
     y1="269.6091"
     x1="185.50603" /><line
     style="fill:none;stroke:#000000;stroke-width:1.49972284"
     id="line600"
     y2="263.37259"
     x2="211.38094"
     y1="285.09869"
     x1="185.244" /><line
     id="line598-8"
     y2="84.229347"
     x2="118.96609"
     y1="116.90276"
     x1="137.34669"
     style="fill:none;stroke:#000000;stroke-width:1.06099999;stroke-miterlimit:4;stroke-dasharray:none" /><line
     id="line600-9"
     y2="106.79469"
     x2="153.42067"
     y1="93.644928"
     x1="124.06935"
     style="fill:none;stroke:#000000;stroke-width:1.03600001;stroke-miterlimit:4;stroke-dasharray:none" /><g
     id="g7699"
     transform="translate(-7.9999953,-12.386493)"><path
       sodipodi:type="arc"
       style="fill:none;stroke:#005dff;stroke-width:4;stroke-linecap:butt;stroke-linejoin:miter;stroke-miterlimit:4;stroke-opacity:1;stroke-dasharray:none"
       id="path3756"
       sodipodi:cx="98.508194"
       sodipodi:cy="56.155117"
       sodipodi:rx="92.351433"
       sodipodi:ry="28.731556"
       d="M 190.78776,55.021859 C 192.79952,70.877511 153.11541,84.238434 102.15081,84.864315 51.186211,85.490196 8.2403877,73.144027 6.2286269,57.288375 6.1140412,56.38527 6.1364911,55.480986 6.2959015,54.57854"
       transform="translate(33.862193,-29.757688)"
       sodipodi:start="6.2437321"
       sodipodi:end="9.4796782"
       sodipodi:open="true" /><path
       sodipodi:type="arc"
       style="fill:none;stroke:#005dff;stroke-width:4;stroke-linecap:butt;stroke-linejoin:miter;stroke-miterlimit:4;stroke-opacity:1;stroke-dasharray:none;overflow:visible"
       id="path3756-9"
       sodipodi:cx="98.508194"
       sodipodi:cy="56.155117"
       sodipodi:rx="92.351433"
       sodipodi:ry="28.731556"
       d="M 190.78776,55.021859 C 192.79952,70.877511 153.11541,84.238434 102.15081,84.864315 51.186211,85.490196 8.2403877,73.144027 6.2286269,57.288375 6.1140412,56.38527 6.1364911,55.480986 6.2959015,54.57854"
       transform="matrix(0.88272279,0,0,0.67464193,45.41436,-10.90378)"
       sodipodi:start="6.2437321"
       sodipodi:end="9.4796782"
       sodipodi:open="true" /><path
       sodipodi:type="arc"
       style="fill:none;stroke:#005dff;stroke-width:4;stroke-linecap:butt;stroke-linejoin:miter;stroke-miterlimit:4;stroke-opacity:1;stroke-dasharray:none;overflow:visible"
       id="path3756-9-6"
       sodipodi:cx="98.508194"
       sodipodi:cy="56.155117"
       sodipodi:rx="92.351433"
       sodipodi:ry="28.731556"
       d="M 190.78776,55.021859 C 192.79952,70.877511 153.11541,84.238434 102.15081,84.864315 51.186211,85.490196 8.2403877,73.144027 6.2286269,57.288375 6.1140412,56.38527 6.1364911,55.480986 6.2959015,54.57854"
       transform="matrix(0.72135266,0,0,0.38528008,61.624275,5.792034)"
       sodipodi:start="6.2437321"
       sodipodi:end="9.4796782"
       sodipodi:open="true" /><path
       style="fill:#005dff;fill-opacity:1;stroke:#005dff;stroke-width:1.52699995;stroke-linecap:butt;stroke-linejoin:miter;stroke-miterlimit:4;stroke-opacity:1;stroke-dasharray:none;marker-start:url(#Arrow1MstartW);marker-mid:none;marker-end:none"
       d="M 131.38205,70.02725 C 130.76271,26.807525 130.92804,26.50529 130.92804,26.50529"
       id="path4564"
       inkscape:connector-curvature="0" /></g><text
     xml:space="preserve"
     style="font-size:20px;font-style:normal;font-weight:normal;line-height:125%;letter-spacing:-1px;word-spacing:0px;fill:#000000;fill-opacity:1;stroke:none;overflow:visible;font-family:Sans"
     x="188.98535"
     y="337.36258"
     id="text9095-2"
     sodipodi:linespacing="125%"><tspan
       sodipodi:role="line"
       id="tspan9097-5"
       x="188.98535"
       y="337.36258"
       style="font-size:16px;font-style:normal;font-variant:normal;font-weight:normal;font-stretch:normal;letter-spacing:-1px;font-family:Sans;-inkscape-font-specification:Sans">Alveoli</tspan></text>
<text
     xml:space="preserve"
     style="font-size:20px;font-style:normal;font-weight:normal;line-height:125%;letter-spacing:0px;word-spacing:0px;fill:#000000;fill-opacity:1;stroke:none;overflow:visible;font-family:Sans"
     x="62.258652"
     y="342.49319"
     id="text9095-0"
     sodipodi:linespacing="125%"><tspan
       sodipodi:role="line"
       id="tspan9097-8"
       x="62.258652"
       y="342.49319"
       style="font-size:16px;font-style:normal;font-variant:normal;font-weight:normal;font-stretch:normal;letter-spacing:-1px;font-family:Sans;-inkscape-font-specification:Sans">Capillary beds</tspan></text>
<text
     xml:space="preserve"
     style="font-size:20px;font-style:normal;font-weight:normal;line-height:125%;letter-spacing:-1px;word-spacing:0px;fill:#000000;fill-opacity:1;stroke:none;overflow:visible;font-family:Sans"
     x="71.363159"
     y="88.579002"
     id="text9095-2-7"
     sodipodi:linespacing="125%"><tspan
       sodipodi:role="line"
       id="tspan9097-5-5"
       x="71.363159"
       y="88.579002"
       style="font-size:16px;font-style:normal;font-variant:normal;font-weight:normal;font-stretch:normal;letter-spacing:-1px;font-family:Sans;-inkscape-font-specification:Sans">Alveoli</tspan></text>
<text
     xml:space="preserve"
     style="font-size:20px;font-style:normal;font-weight:normal;line-height:125%;letter-spacing:-1px;word-spacing:0px;fill:#000000;fill-opacity:1;stroke:none;overflow:visible;font-family:Sans"
     x="74.239632"
     y="12.156247"
     id="text9095-2-7-5"
     sodipodi:linespacing="125%"><tspan
       sodipodi:role="line"
       id="tspan9097-5-5-8"
       x="74.239632"
       y="12.156247"
       style="font-size:16px;font-style:normal;font-variant:normal;font-weight:normal;font-stretch:normal;letter-spacing:-1px;font-family:Sans;-inkscape-font-specification:Sans">Incident wave</tspan></text>
</svg>