<?xml version="1.0" encoding="UTF-8" standalone="no"?>
<svg
   xmlns:dc="http://purl.org/dc/elements/1.1/"
   xmlns:cc="http://creativecommons.org/ns#"
   xmlns:rdf="http://www.w3.org/1999/02/22-rdf-syntax-ns#"
   xmlns:svg="http://www.w3.org/2000/svg"
   xmlns="http://www.w3.org/2000/svg"
   xmlns:sodipodi="http://sodipodi.sourceforge.net/DTD/sodipodi-0.dtd"
   xmlns:inkscape="http://www.inkscape.org/namespaces/inkscape"
   preserveAspectRatio="xMinYMin meet"
   width="100%"
   height="100%"
   viewBox="0 0 783.750 714.375"
   version="1.1"
   id="svg2"
   inkscape:version="0.48.4 r9939"
   sodipodi:docname="p0_vs_y.pdf">
  <metadata
     id="metadata154">
    <rdf:RDF>
      <cc:Work
         rdf:about="">
        <dc:format>image/svg+xml</dc:format>
        <dc:type
           rdf:resource="http://purl.org/dc/dcmitype/StillImage" />
        <dc:title></dc:title>
      </cc:Work>
    </rdf:RDF>
  </metadata>
  <defs
     id="defs152">
    <marker
       inkscape:stockid="Arrow1Lstart"
       orient="auto"
       refY="0.0"
       refX="0.0"
       id="Arrow1Lstart"
       style="overflow:visible">
      <path
         id="path3905"
         d="M 0.0,0.0 L 5.0,-5.0 L -12.5,0.0 L 5.0,5.0 L 0.0,0.0 z "
         style="fill-rule:evenodd;stroke:#000000;stroke-width:1.0pt"
         transform="scale(0.8) translate(12.5,0)" />
    </marker>
    <marker
       inkscape:stockid="Arrow1Lstart"
       orient="auto"
       refY="0"
       refX="0"
       id="Arrow1Lstart-3"
       style="overflow:visible">
      <path
         inkscape:connector-curvature="0"
         id="path3905-6"
         d="M 0,0 5,-5 -12.5,0 5,5 0,0 z"
         style="fill-rule:evenodd;stroke:#000000;stroke-width:1pt"
         transform="matrix(0.8,0,0,0.8,10,0)" />
    </marker>
  </defs>
  <sodipodi:namedview
     pagecolor="#ffffff"
     bordercolor="#666666"
     borderopacity="1"
     objecttolerance="10"
     gridtolerance="10"
     guidetolerance="10"
     inkscape:pageopacity="0"
     inkscape:pageshadow="2"
     inkscape:window-width="1680"
     inkscape:window-height="1026"
     id="namedview150"
     showgrid="false"
     inkscape:zoom="0.93439552"
     inkscape:cx="386.42992"
     inkscape:cy="285.43922"
     inkscape:window-x="0"
     inkscape:window-y="24"
     inkscape:window-maximized="1"
     inkscape:current-layer="svg2" />
  <desc
     id="desc4">Matlab Figure Converted by PLOT2SVG written by Juerg Schwizer</desc>
  <g
     id="topgroup">
    <rect
       x="0"
       y="0"
       width="783.750"
       height="714.375"
       id="rect7"
       stroke="none"
       fill="#ffffff" />
    <g
       id="ID000000">
      <clipPath
         id="ID000001">
        <rect
           x="116.059"
           y="22.570"
           width="644.839"
           height="608.642"
           id="rect11" />
      </clipPath>
      <polygon
         points="116.059,631.211 760.899,631.211 760.899,22.570 116.059,22.570 "
         id="polygon13"
         stroke-dasharray="none"
         stroke-opacity="1.00"
         stroke-width="1.5pt"
         stroke="none"
         fill-opacity="1.00"
         fill="#ffffff" />
      <polygon
         points="116.059,22.570 760.899,22.570 760.899,22.570 116.059,22.570 "
         id="polygon15"
         stroke-dasharray="none"
         stroke-opacity="1.00"
         stroke-width="1.5pt"
         stroke="none"
         fill-opacity="1.00"
         fill="#ffffff" />
      <polygon
         points="116.059,631.211 116.059,631.211 116.059,22.570 116.059,22.570 "
         id="polygon17"
         stroke-dasharray="none"
         stroke-opacity="1.00"
         stroke-width="1.5pt"
         stroke="none"
         fill-opacity="1.00"
         fill="#ffffff" />
      <g
         id="g19">
        <g
           id="ID000002">
          <g
             transform="translate(37.327,326.890)"
             id="g22">
            <g
               transform="rotate(-90.0)"
               id="g24">
              <text
                 x="0.000"
                 y="0.000"
                 font-size="30pt"
                 id="text26"
                 text-anchor="middle"
                 font-family="Helvetica"
                 fill="#262626">
                <tspan
                   id="tspan28">Pressure</tspan>
              </text>
            </g>
          </g>
        </g>
        <g
           id="ID000003">
          <g
             transform="translate(438.479,704.839)"
             id="g31">
            <g
               id="g33"
               transform="rotate(-0.0)">
              <text
                 x="0.000"
                 y="0.000"
                 font-size="30pt"
                 id="text35"
                 text-anchor="middle"
                 font-family="Helvetica"
                 fill="#262626">
                <tspan
                   id="tspan37">Distance from interface</tspan>
              </text>
            </g>
          </g>
        </g>
        <g
           id="ID000004" />
        <g
           id="ID000005"
           clip-path="url(#ID000001)">
          <polyline
             points="116.05924,587.73678 117.23167,587.73678 118.40411,587.73678 119.57654,587.73678 120.74898,587.73678 121.92141,587.73678 123.09385,587.73678 124.26629,587.73678 125.43872,587.73678 126.61116,587.73678 127.78359,587.73678 128.95603,587.73678 130.12846,587.73678 131.30090,587.73678 132.47333,587.73678 133.64577,587.73678 134.81820,587.73678 135.99064,587.73678 137.16308,587.73678 138.33551,587.73678 139.50795,587.73678 140.68038,587.73678 141.85282,587.73678 143.02525,587.73678 144.19769,587.73678 145.37012,587.73678 146.54256,587.73678 147.71499,587.73678 148.88743,587.73678 150.05987,587.73678 151.23230,587.73678 152.40474,587.73678 153.57717,587.73678 154.74961,587.73678 155.92204,587.73678 157.09448,587.73678 158.26691,587.73678 159.43935,587.73678 160.61178,587.73678 161.78422,587.73678 162.95666,587.73678 164.12909,587.73678 165.30153,587.73678 166.47396,587.73678 167.64640,587.73678 168.81883,587.73678 169.99127,587.73678 171.16370,587.73678 172.33614,587.73678 173.50857,587.73678 174.68101,587.73678 175.85344,579.04190 177.02588,570.34702 178.19832,561.65214 179.37075,552.95726 180.54319,544.26238 181.71562,535.56750 182.88806,526.87262 184.06049,518.17773 185.23293,509.48285 186.40536,500.78797 187.57780,492.09309 188.75023,483.39821 189.92267,474.70333 191.09511,466.00845 192.26754,457.31357 193.43998,448.61869 194.61241,439.92381 195.78485,431.22893 196.95728,422.53405 198.12972,413.83917 199.30215,405.14429 200.47459,396.44941 201.64702,387.75453 202.81946,379.05964 203.99190,370.36476 205.16433,361.66988 206.33677,352.97500 207.50920,344.28012 208.68164,335.58524 209.85407,326.89036 211.02651,318.19548 212.19894,309.50060 213.37138,300.80572 214.54381,292.11084 215.71625,283.41596 216.88869,274.72108 218.06112,266.02620 219.23356,257.33132 220.40599,248.63644 221.57843,239.94155 222.75086,231.24667 223.92330,222.55179 225.09573,213.85691 226.26817,205.16203 227.44060,196.46715 228.61304,187.77227 229.78548,179.07739 230.95791,170.38251 232.13035,161.68763 233.30278,152.99275 234.47522,152.99275 235.64765,152.99275 236.82009,152.99275 237.99252,152.99275 239.16496,152.99275 240.33739,152.99275 241.50983,152.99275 242.68226,152.99275 243.85470,152.99275 245.02714,152.99275 246.19957,152.99275 247.37201,152.99275 248.54444,152.99275 249.71688,152.99275 250.88931,152.99275 252.06175,152.99275 253.23418,152.99275 254.40662,152.99275 255.57905,152.99275 256.75149,152.99275 257.92393,152.99275 259.09636,152.99275 260.26880,152.99275 261.44123,152.99275 262.61367,152.99275 263.78610,152.99275 264.95854,152.99275 266.13097,152.99275 267.30341,152.99275 268.47584,152.99275 269.64828,152.99275 270.82072,152.99275 271.99315,152.99275 273.16559,152.99275 274.33802,152.99275 275.51046,152.99275 276.68289,152.99275 277.85533,152.99275 279.02776,152.99275 280.20020,152.99275 281.37263,152.99275 282.54507,152.99275 283.71751,152.99275 284.88994,152.99275 286.06238,152.99275 287.23481,152.99275 288.40725,152.99275 289.57968,152.99275 290.75212,152.99275 291.92455,152.99275 293.09699,152.99275 294.26942,152.99275 295.44186,152.99275 296.61430,152.99275 297.78673,152.99275 298.95917,152.99275 300.13160,152.99275 301.30404,152.99275 302.47647,152.99275 303.64891,152.99275 304.82134,152.99275 305.99378,152.99275 307.16621,152.99275 308.33865,152.99275 309.51108,152.99275 310.68352,152.99275 311.85596,152.99275 313.02839,152.99275 314.20083,152.99275 315.37326,152.99275 316.54570,152.99275 317.71813,152.99275 318.89057,152.99275 320.06300,152.99275 321.23544,152.99275 322.40787,152.99275 323.58031,152.99275 324.75275,152.99275 325.92518,152.99275 327.09762,152.99275 328.27005,152.99275 329.44249,152.99275 330.61492,152.99275 331.78736,152.99275 332.95979,152.99275 334.13223,152.99275 335.30466,152.99275 336.47710,152.99275 337.64954,152.99275 338.82197,152.99275 339.99441,152.99275 341.16684,152.99275 342.33928,152.99275 343.51171,152.99275 344.68415,152.99275 345.85658,152.99275 347.02902,152.99275 348.20145,152.99275 349.37389,152.99275 350.54633,152.99275 351.71876,152.99275 352.89120,152.99275 354.06363,152.99275 355.23607,152.99275 356.40850,152.99275 357.58094,152.99275 358.75337,152.99275 359.92581,152.99275 361.09824,152.99275 362.27068,152.99275 363.44312,152.99275 364.61555,152.99275 365.78799,152.99275 366.96042,152.99275 368.13286,152.99275 369.30529,152.99275 370.47773,152.99275 371.65016,152.99275 372.82260,152.99275 373.99503,152.99275 375.16747,152.99275 376.33990,152.99275 377.51234,152.99275 378.68478,152.99275 379.85721,152.99275 381.02965,152.99275 382.20208,152.99275 383.37452,152.99275 384.54695,152.99275 385.71939,152.99275 386.89182,152.99275 388.06426,152.99275 389.23669,152.99275 390.40913,152.99275 391.58157,152.99275 392.75400,152.99275 393.92644,152.99275 395.09887,152.99275 396.27131,152.99275 397.44374,152.99275 398.61618,152.99275 399.78861,152.99275 400.96105,152.99275 402.13348,152.99275 403.30592,152.99275 404.47836,152.99275 405.65079,152.99275 406.82323,152.99275 407.99566,152.99275 409.16810,152.99275 410.34053,152.99275 411.51297,152.99275 412.68540,152.99275 413.85784,152.99275 415.03027,152.99275 416.20271,152.99275 417.37515,152.99275 418.54758,152.99275 419.72002,152.99275 420.89245,152.99275 422.06489,152.99275 423.23732,152.99275 424.40976,152.99275 425.58219,152.99275 426.75463,152.99275 427.92706,152.99275 429.09950,152.99275 430.27194,152.99275 431.44437,152.99275 432.61681,152.99275 433.78924,152.99275 434.96168,152.99275 436.13411,152.99275 437.30655,152.99275 438.47898,152.99275 439.65142,152.99275 440.82385,152.99275 441.99629,152.99275 443.16872,152.99275 444.34116,152.99275 445.51360,152.99275 446.68603,152.99275 447.85847,152.99275 449.03090,152.99275 450.20334,152.99275 451.37577,152.99275 452.54821,152.99275 453.72064,152.99275 454.89308,152.99275 456.06551,152.99275 457.23795,152.99275 458.41039,152.99275 459.58282,152.99275 460.75526,152.99275 461.92769,152.99275 463.10013,152.99275 464.27256,152.99275 465.44500,152.99275 466.61743,152.99275 467.78987,152.99275 468.96230,152.99275 470.13474,152.99275 471.30718,152.99275 472.47961,152.99275 473.65205,152.99275 474.82448,152.99275 475.99692,152.99275 477.16935,152.99275 478.34179,152.99275 479.51422,152.99275 480.68666,152.99275 481.85909,152.99275 483.03153,152.99275 484.20397,152.99275 485.37640,152.99275 486.54884,152.99275 487.72127,152.99275 488.89371,152.99275 490.06614,152.99275 491.23858,152.99275 492.41101,152.99275 493.58345,152.99275 494.75588,152.99275 495.92832,152.99275 497.10076,152.99275 498.27319,152.99275 499.44563,152.99275 500.61806,152.99275 501.79050,152.99275 502.96293,152.99275 504.13537,152.99275 505.30780,152.99275 506.48024,152.99275 507.65267,152.99275 508.82511,152.99275 509.99754,152.99275 511.16998,152.99275 512.34242,152.99275 513.51485,152.99275 514.68729,152.99275 515.85972,152.99275 517.03216,152.99275 518.20459,152.99275 519.37703,152.99275 520.54946,152.99275 521.72190,152.99275 522.89433,152.99275 524.06677,152.99275 525.23921,152.99275 526.41164,152.99275 527.58408,152.99275 528.75651,152.99275 529.92895,152.99275 531.10138,152.99275 532.27382,152.99275 533.44625,152.99275 534.61869,152.99275 535.79112,152.99275 536.96356,152.99275 538.13600,152.99275 539.30843,152.99275 540.48087,152.99275 541.65330,152.99275 542.82574,152.99275 543.99817,152.99275 545.17061,152.99275 546.34304,152.99275 547.51548,152.99275 548.68791,152.99275 549.86035,152.99275 551.03279,152.99275 552.20522,152.99275 553.37766,152.99275 554.55009,152.99275 555.72253,152.99275 556.89496,152.99275 558.06740,152.99275 559.23983,152.99275 560.41227,152.99275 561.58470,152.99275 562.75714,152.99275 563.92958,152.99275 565.10201,152.99275 566.27445,152.99275 567.44688,152.99275 568.61932,152.99275 569.79175,152.99275 570.96419,152.99275 572.13662,152.99275 573.30906,152.99275 574.48149,152.99275 575.65393,152.99275 576.82637,152.99275 577.99880,152.99275 579.17124,152.99275 580.34367,152.99275 581.51611,152.99275 582.68854,152.99275 583.86098,152.99275 585.03341,152.99275 586.20585,152.99275 587.37828,152.99275 588.55072,152.99275 589.72315,152.99275 590.89559,152.99275 592.06803,152.99275 593.24046,152.99275 594.41290,152.99275 595.58533,152.99275 596.75777,152.99275 597.93020,152.99275 599.10264,152.99275 600.27507,152.99275 601.44751,152.99275 602.61994,152.99275 603.79238,152.99275 604.96482,152.99275 606.13725,152.99275 607.30969,152.99275 608.48212,152.99275 609.65456,152.99275 610.82699,152.99275 611.99943,152.99275 613.17186,152.99275 614.34430,152.99275 615.51673,152.99275 616.68917,152.99275 617.86161,152.99275 619.03404,152.99275 620.20648,152.99275 621.37891,152.99275 622.55135,152.99275 623.72378,152.99275 624.89622,152.99275 626.06865,152.99275 627.24109,152.99275 628.41352,152.99275 629.58596,152.99275 630.75840,152.99275 631.93083,152.99275 633.10327,152.99275 634.27570,152.99275 635.44814,152.99275 636.62057,152.99275 637.79301,152.99275 638.96544,152.99275 640.13788,152.99275 641.31031,152.99275 642.48275,152.99275 643.65519,152.99275 644.82762,161.68763 646.00006,170.38251 647.17249,179.07739 648.34493,187.77227 649.51736,196.46715 650.68980,205.16203 651.86223,213.85691 653.03467,222.55179 654.20710,231.24667 655.37954,239.94155 656.55197,248.63644 657.72441,257.33132 658.89685,266.02620 660.06928,274.72108 661.24172,283.41596 662.41415,292.11084 663.58659,300.80572 664.75902,309.50060 665.93146,318.19548 667.10389,326.89036 668.27633,335.58524 669.44876,344.28012 670.62120,352.97500 671.79364,361.66988 672.96607,370.36476 674.13851,379.05964 675.31094,387.75453 676.48338,396.44941 677.65581,405.14429 678.82825,413.83917 680.00068,422.53405 681.17312,431.22893 682.34555,439.92381 683.51799,448.61869 684.69043,457.31357 685.86286,466.00845 687.03530,474.70333 688.20773,483.39821 689.38017,492.09309 690.55260,500.78797 691.72504,509.48285 692.89747,518.17773 694.06991,526.87262 695.24234,535.56750 696.41478,544.26238 697.58722,552.95726 698.75965,561.65214 699.93209,570.34702 701.10452,579.04190 702.27696,587.73678 703.44939,587.73678 704.62183,587.73678 705.79426,587.73678 706.96670,587.73678 708.13913,587.73678 709.31157,587.73678 710.48401,587.73678 711.65644,587.73678 712.82888,587.73678 714.00131,587.73678 715.17375,587.73678 716.34618,587.73678 717.51862,587.73678 718.69105,587.73678 719.86349,587.73678 721.03592,587.73678 722.20836,587.73678 723.38079,587.73678 724.55323,587.73678 725.72567,587.73678 726.89810,587.73678 728.07054,587.73678 729.24297,587.73678 730.41541,587.73678 731.58784,587.73678 732.76028,587.73678 733.93271,587.73678 735.10515,587.73678 736.27758,587.73678 737.45002,587.73678 738.62246,587.73678 739.79489,587.73678 740.96733,587.73678 742.13976,587.73678 743.31220,587.73678 744.48463,587.73678 745.65707,587.73678 746.82950,587.73678 748.00194,587.73678 749.17437,587.73678 750.34681,587.73678 751.51925,587.73678 752.69168,587.73678 753.86412,587.73678 755.03655,587.73678 756.20899,587.73678 757.38142,587.73678 758.55386,587.73678 759.72629,587.73678 760.89873,587.73678 "
             id="polyline41"
             stroke-dasharray="none"
             stroke-opacity="1.00"
             stroke-width="2.0pt"
             stroke="#000000"
             fill="none" />
        </g>
        <g
           id="ID000006">
          <g
             transform="translate(291.925,135.908)"
             id="g44">
            <g
               id="g46"
               transform="rotate(-0.0)">
              <text
                 x="0"
                 y="0"
                 font-size="20pt"
                 font-weight="lighter"
                 id="text48"
                 style="font-size:25px;font-weight:lighter;text-anchor:start;fill:#000000;font-family:Helvetica">
                <tspan
                   id="tspan50"
                   style="font-size:28px">$p_a = 1, 5, 10$ MPa</tspan>
              </text>
            </g>
          </g>
        </g>
      </g>
      <g
         id="g54">
        <polyline
           points="174.68101,631.21118 174.68101,624.76279 "
           id="polyline56"
           stroke-dasharray="none"
           stroke-opacity="1.00"
           stroke-width="1.5pt"
           stroke="#262626"
           fill="none" />
        <polyline
           points="233.30278,631.21118 233.30278,624.76279 "
           id="polyline58"
           stroke-dasharray="none"
           stroke-opacity="1.00"
           stroke-width="1.5pt"
           stroke="#262626"
           fill="none" />
        <polyline
           points="643.65519,631.21118 643.65519,624.76279 "
           id="polyline60"
           stroke-dasharray="none"
           stroke-opacity="1.00"
           stroke-width="1.5pt"
           stroke="#262626"
           fill="none" />
        <polyline
           points="702.27696,631.21118 702.27696,624.76279 "
           id="polyline62"
           stroke-dasharray="none"
           stroke-opacity="1.00"
           stroke-width="1.5pt"
           stroke="#262626"
           fill="none" />
        <polyline
           points="116.05924,631.21118 760.89873,631.21118 "
           id="polyline64"
           stroke-dasharray="none"
           stroke-opacity="1.00"
           stroke-width="1.5pt"
           stroke="#262626"
           fill="none" />
        <polyline
           points="174.68101,22.56954 174.68101,29.01793 "
           id="polyline66"
           stroke-dasharray="none"
           stroke-opacity="1.00"
           stroke-width="1.5pt"
           stroke="#262626"
           fill="none" />
        <polyline
           points="233.30278,22.56954 233.30278,29.01793 "
           id="polyline68"
           stroke-dasharray="none"
           stroke-opacity="1.00"
           stroke-width="1.5pt"
           stroke="#262626"
           fill="none" />
        <polyline
           points="643.65519,22.56954 643.65519,29.01793 "
           id="polyline70"
           stroke-dasharray="none"
           stroke-opacity="1.00"
           stroke-width="1.5pt"
           stroke="#262626"
           fill="none" />
        <polyline
           points="702.27696,22.56954 702.27696,29.01793 "
           id="polyline72"
           stroke-dasharray="none"
           stroke-opacity="1.00"
           stroke-width="1.5pt"
           stroke="#262626"
           fill="none" />
        <polyline
           points="116.05924,22.56954 760.89873,22.56954 "
           id="polyline74"
           stroke-dasharray="none"
           stroke-opacity="1.00"
           stroke-width="1.5pt"
           stroke="#262626"
           fill="none" />
        <g
           transform="translate(174.681,666.984)"
           id="g76">
          <g
             id="g78"
             transform="rotate(-0.0)">
            <text
               x="0.000"
               y="0.000"
               font-size="20pt"
               id="text80"
               text-anchor="middle"
               font-family="Helvetica"
               fill="#262626">
              <tspan
                 id="tspan82"
                 style="font-size:22px">0</tspan>
            </text>
          </g>
        </g>
        <g
           transform="translate(233.303,666.984)"
           id="g84">
          <g
             id="g86"
             transform="rotate(-0.0)">
            <text
               x="0"
               y="0"
               font-size="20pt"
               id="text88"
               style="font-size:22px;text-anchor:middle;fill:#262626;font-family:Helvetica">
              <tspan
                 id="tspan90"
                 style="font-size:22px">5$\ell$<tspan
   id="tspan92"
   style="font-size:22px" />
</tspan>
            </text>
          </g>
        </g>
        <g
           transform="translate(643.655,666.984)"
           id="g94">
          <g
             id="g96"
             transform="rotate(-0.0)">
            <text
               x="0"
               y="0"
               font-size="20pt"
               id="text98"
               style="font-size:22px;text-anchor:middle;fill:#262626;font-family:Helvetica">
              <tspan
                 id="tspan100"
                 style="font-size:22px">40$\ell$<tspan
   id="tspan102"
   style="font-size:22px" />
</tspan>
            </text>
          </g>
        </g>
        <g
           transform="translate(702.277,666.984)"
           id="g104">
          <g
             id="g106"
             transform="rotate(-0.0)">
            <text
               x="16"
               y="0"
               font-size="20pt"
               id="text108"
               style="font-size:22px;text-anchor:middle;fill:#262626;font-family:Helvetica">
              <tspan
                 id="tspan110"
                 style="font-size:22px">45$\ell$<tspan
   id="tspan112"
   style="font-size:22px" />
</tspan>
            </text>
          </g>
        </g>
        <polyline
           points="116.05924,587.73678 122.50763,587.73678 "
           id="polyline114"
           stroke-dasharray="none"
           stroke-opacity="1.00"
           stroke-width="1.5pt"
           stroke="#262626"
           fill="none" />
        <polyline
           points="116.05924,152.99275 122.50763,152.99275 "
           id="polyline116"
           stroke-dasharray="none"
           stroke-opacity="1.00"
           stroke-width="1.5pt"
           stroke="#262626"
           fill="none" />
        <polyline
           points="116.05924,631.21118 116.05924,22.56954 "
           id="polyline118"
           stroke-dasharray="none"
           stroke-opacity="1.00"
           stroke-width="1.5pt"
           stroke="#262626"
           fill="none" />
        <polyline
           points="760.89873,587.73678 754.45033,587.73678 "
           id="polyline120"
           stroke-dasharray="none"
           stroke-opacity="1.00"
           stroke-width="1.5pt"
           stroke="#262626"
           fill="none" />
        <polyline
           points="760.89873,152.99275 754.45033,152.99275 "
           id="polyline122"
           stroke-dasharray="none"
           stroke-opacity="1.00"
           stroke-width="1.5pt"
           stroke="#262626"
           fill="none" />
        <polyline
           points="760.89873,631.21118 760.89873,22.56954 "
           id="polyline124"
           stroke-dasharray="none"
           stroke-opacity="1.00"
           stroke-width="1.5pt"
           stroke="#262626"
           fill="none" />
        <g
           transform="translate(103.162,596.737)"
           id="g126">
          <g
             id="g128"
             transform="rotate(-0.0)">
            <text
               x="0"
               y="0"
               font-size="20pt"
               id="text130"
               style="font-size:25px;text-anchor:end;fill:#262626;font-family:Helvetica">
              <tspan
                 id="tspan132">$p_{atm}$<tspan
   style="font-size:65.00091553%;baseline-shift:sub"
   id="tspan134" />
</tspan>
            </text>
          </g>
        </g>
        <g
           transform="translate(103.162,161.993)"
           id="g136">
          <g
             id="g138"
             transform="rotate(-0.0)">
            <text
               x="0"
               y="0"
               font-size="20pt"
               id="text140"
               style="font-size:25px;text-anchor:end;fill:#262626;font-family:Helvetica">
              <tspan
                 id="tspan142">$p_{max}$<tspan
   style="font-size:65.00091553%;baseline-shift:sub"
   id="tspan144" />
</tspan>
            </text>
          </g>
        </g>
        <polyline
           points="116.05924,631.21118 116.05924,625.12477 "
           id="polyline146"
           stroke-dasharray="none"
           stroke-opacity="1.00"
           stroke-width="1.5pt"
           stroke="#262626"
           fill="none" />
        <polyline
           points="116.05924,631.21118 116.05924,631.21118 "
           id="polyline148"
           stroke-dasharray="none"
           stroke-opacity="1.00"
           stroke-width="1.5pt"
           stroke="#262626"
           fill="none" />
      </g>
    </g>
  </g>
  <path
     style="fill:none;stroke:#000000;stroke-width:1.60000002;stroke-linecap:butt;stroke-linejoin:miter;stroke-opacity:1;marker-start:url(#Arrow1Lstart);stroke-miterlimit:4;stroke-dasharray:none"
     d="m 173.37412,587.01994 c 206.55065,0 206.55065,1.07021 206.55065,1.07021"
     id="path3131"
     inkscape:connector-curvature="0" />
  <path
     style="fill:none;stroke:#000000;stroke-width:1.55403161;stroke-linecap:butt;stroke-linejoin:miter;stroke-miterlimit:4;stroke-opacity:1;stroke-dasharray:none;marker-start:url(#Arrow1Lstart)"
     d="m 697.38656,587.01994 c -222.64978,0 -222.64978,0.9366 -222.64978,0.9366"
     id="path3131-7"
     inkscape:connector-curvature="0" />
  <text
     xml:space="preserve"
     style="font-size:20px;font-style:normal;font-weight:normal;line-height:125%;letter-spacing:0px;word-spacing:0px;fill:#000000;fill-opacity:1;stroke:none;font-family:Sans"
     x="403.46939"
     y="595.5816"
     id="text4369"
     sodipodi:linespacing="125%"><tspan
       sodipodi:role="line"
       id="tspan4371"
       x="403.46939"
       y="595.5816"
       style="font-size:28px">$L$</tspan></text>
</svg>
