<?xml version="1.0" encoding="UTF-8" standalone="no"?>
<svg
   xmlns:dc="http://purl.org/dc/elements/1.1/"
   xmlns:cc="http://creativecommons.org/ns#"
   xmlns:rdf="http://www.w3.org/1999/02/22-rdf-syntax-ns#"
   xmlns:svg="http://www.w3.org/2000/svg"
   xmlns="http://www.w3.org/2000/svg"
   xmlns:sodipodi="http://sodipodi.sourceforge.net/DTD/sodipodi-0.dtd"
   xmlns:inkscape="http://www.inkscape.org/namespaces/inkscape"
   preserveAspectRatio="xMinYMin meet"
   width="100%"
   height="100%"
   viewBox="0 0 963.750 912.188"
   version="1.1"
   id="svg2"
   inkscape:version="0.91 r13725"
   sodipodi:docname="p0_vs_t_us_general.svg">
  <metadata
     id="metadata263">
    <rdf:RDF>
      <cc:Work
         rdf:about="">
        <dc:format>image/svg+xml</dc:format>
        <dc:type
           rdf:resource="http://purl.org/dc/dcmitype/StillImage" />
        <dc:title></dc:title>
      </cc:Work>
    </rdf:RDF>
  </metadata>
  <defs
     id="defs261" />
  <sodipodi:namedview
     pagecolor="#ffffff"
     bordercolor="#666666"
     borderopacity="1"
     objecttolerance="10"
     gridtolerance="10"
     guidetolerance="10"
     inkscape:pageopacity="0"
     inkscape:pageshadow="2"
     inkscape:window-width="1920"
     inkscape:window-height="1056"
     id="namedview259"
     showgrid="false"
     inkscape:zoom="0.7317667"
     inkscape:cx="414.02883"
     inkscape:cy="561.11257"
     inkscape:window-x="0"
     inkscape:window-y="24"
     inkscape:window-maximized="1"
     inkscape:current-layer="ID000000" />
  <desc
     id="desc4">Matlab Figure Converted by PLOT2SVG written by Juerg Schwizer</desc>
  <g
     id="topgroup">
    <rect
       x="0"
       y="0"
       width="963.750"
       height="912.188"
       fill="#ffffff"
       stroke="none"
       id="rect7" />
    <g
       id="ID000000">
      <clipPath
         id="ID000001">
        <rect
           x="121.589"
           y="15.667"
           width="821.428"
           height="811.541"
           id="rect11" />
      </clipPath>
      <polygon
         fill="#ffffff"
         fill-opacity="1.00"
         stroke="none"
         stroke-width="1.5pt"
         stroke-opacity="1.00"
         stroke-dasharray="none"
         points="121.589,827.208 943.017,827.208 943.017,15.667 121.589,15.667 "
         id="polygon13" />
      <polygon
         fill="#ffffff"
         fill-opacity="1.00"
         stroke="none"
         stroke-width="1.5pt"
         stroke-opacity="1.00"
         stroke-dasharray="none"
         points="121.589,15.667 943.017,15.667 943.017,15.667 121.589,15.667 "
         id="polygon15" />
      <polygon
         fill="#ffffff"
         fill-opacity="1.00"
         stroke="none"
         stroke-width="1.5pt"
         stroke-opacity="1.00"
         stroke-dasharray="none"
         points="121.589,827.208 121.589,827.208 121.589,15.667 121.589,15.667 "
         id="polygon17" />
      <g
         id="g19">
        <g
           id="ID000002">
          <g
             transform="translate(37.197,421.437)"
             id="g22">
            <g
               transform="rotate(-90.0)"
               id="g24">
              <text
                 x="0"
                 y="0"
                 font-size="30pt"
                 font-weight="lighter"
                 id="text26"
                 style="font-weight:lighter;font-size:37.5px;font-family:Helvetica;text-anchor:middle;fill:#262626">
                <tspan
                   id="tspan28">Pressure</tspan>
              </text>
            </g>
          </g>
        </g>
        <g
           id="ID000003">
          <g
             transform="translate(532.304,903.263)"
             id="g31">
            <g
               transform="rotate(-0.0)"
               id="g33">
              <text
                 x="0"
                 y="0"
                 font-size="30pt"
                 font-weight="lighter"
                 id="text35"
                 style="font-weight:lighter;font-size:37.5px;font-family:Helvetica;text-anchor:middle;fill:#262626">
                <tspan
                   id="tspan37">Time ($\mu$s)</tspan>
              </text>
            </g>
          </g>
        </g>
        <g
           id="ID000004" />
        <g
           id="ID000005"
           clip-path="url(#ID000001)">
          <polyline
             fill="none"
             stroke="#0071bc"
             stroke-width="2.0pt"
             stroke-dasharray="none"
             stroke-opacity="1.00"
             points="121.58910,421.43705 122.95815,421.51480 124.32720,421.59839 125.69624,421.68738 127.06529,421.78122 128.43434,421.87925 129.80338,421.98071 131.17243,422.08474 132.54148,422.19038 133.91052,422.29657 135.27957,422.40216 136.64862,422.50591 138.01767,422.60651 139.38671,422.70255 140.75576,422.79259 142.12481,422.87514 143.49385,422.94865 144.86290,423.01157 146.23195,423.06235 147.60100,423.09943 148.97004,423.12132 150.33909,423.12656 151.70814,423.11376 153.07718,423.08163 154.44623,423.02902 155.81528,422.95489 157.18432,422.85839 158.55337,422.73882 159.92242,422.59574 161.29147,422.42889 162.66051,422.23828 164.02956,422.02419 165.39861,421.78718 166.76765,421.52812 168.13670,421.24816 169.50575,420.94882 170.87479,420.63190 172.24384,420.29956 173.61289,419.95428 174.98194,419.59888 176.35098,419.23648 177.72003,418.87052 179.08908,418.50472 180.45812,418.14308 181.82717,417.78984 183.19622,417.44943 184.56527,417.12649 185.93431,416.82577 187.30336,416.55213 188.67241,416.31045 190.04145,416.10563 191.41050,415.94250 192.77955,415.82574 194.14859,415.75990 195.51764,415.74923 196.88669,415.79771 198.25574,415.90891 199.62478,416.08598 200.99383,416.33156 202.36288,416.64773 203.73192,417.03590 205.10097,417.49684 206.47002,418.03053 207.83906,418.63621 209.20811,419.31223 210.57716,420.05611 211.94621,420.86445 213.31525,421.73292 214.68430,422.65628 216.05335,423.62832 217.42239,424.64195 218.79144,425.68913 220.16049,426.76097 221.52954,427.84773 222.89858,428.93890 224.26763,430.02326 225.63668,431.08895 227.00572,432.12357 228.37477,433.11430 229.74382,434.04796 231.11286,434.91121 232.48191,435.69061 233.85096,436.37282 235.22001,436.94470 236.58905,437.39353 237.95810,437.70712 239.32715,437.87397 240.69619,437.88350 242.06524,437.72614 243.43429,437.39356 244.80333,436.87878 246.17238,436.17636 247.54143,435.28252 248.91048,434.19532 250.27952,432.91473 251.64857,431.44278 253.01762,429.78364 254.38666,427.94369 255.75571,425.93158 257.12476,423.75828 258.49380,421.43705 259.86285,418.98348 261.23190,416.41538 262.60095,413.75277 263.96999,411.01776 265.33904,408.23442 266.70809,405.42863 268.07713,402.62793 269.44618,399.86126 270.81523,397.15874 272.18428,394.55145 273.55332,392.07109 274.92237,389.74972 276.29142,387.61941 277.66046,385.71191 279.02951,384.05826 280.39856,382.68850 281.76760,381.63121 283.13665,380.91321 284.50570,380.55912 285.87475,380.59104 287.24379,381.02817 288.61284,381.88644 289.98189,383.17825 291.35093,384.91207 292.71998,387.09224 294.08903,389.71871 295.45807,392.78679 296.82712,396.28703 298.19617,400.20505 299.56522,404.52150 300.93426,409.21201 302.30331,414.24721 303.67236,419.59282 305.04140,425.20979 306.41045,431.05448 307.77950,437.07891 309.14855,443.23109 310.51759,449.45536 311.88664,455.69282 313.25569,461.88182 314.62473,467.95846 315.99378,473.85718 317.36283,479.51135 318.73187,484.85396 320.10092,489.81827 321.46997,494.33853 322.83902,498.35071 324.20806,501.79323 325.57711,504.60774 326.94616,506.73980 328.31520,508.13965 329.68425,508.76292 331.05330,508.57129 332.42234,507.53316 333.79139,505.62420 335.16044,502.82795 336.52949,499.13625 337.89853,494.54969 339.26758,489.07790 340.63663,482.73986 342.00567,475.56400 343.37472,467.58831 344.74377,458.86027 346.11282,449.43676 347.48186,439.38380 348.85091,428.77619 350.21996,417.69709 351.58900,406.23746 352.95805,394.49537 354.32710,382.57532 355.69614,370.58731 357.06519,358.64597 358.43424,346.86949 359.80329,335.37857 361.17233,324.29526 362.54138,313.74172 363.91043,303.83903 365.27947,294.70585 366.64852,286.45717 368.01757,279.20299 369.38661,273.04704 370.75566,268.08549 372.12471,264.40577 373.49376,262.08536 374.86280,261.19067 376.23185,261.77606 377.60090,263.88289 378.96994,267.53868 380.33899,272.75641 381.70804,279.53397 383.07708,287.85371 384.44613,297.68214 385.81518,308.96986 387.18423,321.65151 388.55327,335.64606 389.92232,350.85712 391.29137,367.17351 392.66041,384.46997 394.02946,402.60803 395.39851,421.43705 396.76756,440.79543 398.13660,460.51192 399.50565,480.40713 400.87470,500.29510 402.24374,519.98502 403.61279,539.28304 404.98184,557.99415 406.35088,575.92409 407.71993,592.88138 409.08898,608.67929 410.45803,623.13786 411.82707,636.08584 413.19612,647.36267 414.56517,656.82034 415.93421,664.32515 417.30326,669.75945 418.67231,673.02311 420.04135,674.03499 421.41040,672.73416 422.77945,669.08094 424.14850,663.05781 425.51754,654.67003 426.88659,643.94607 428.25564,630.93784 429.62468,615.72064 430.99373,598.39288 432.36278,579.07557 433.73183,557.91157 435.10087,535.06457 436.46992,510.71787 437.83897,485.07291 439.20801,458.34760 440.57706,430.77447 441.94611,402.59857 443.31515,374.07530 444.68420,345.46800 446.05325,317.04547 447.42230,289.07939 448.79134,261.84166 450.16039,235.60169 451.52944,210.62363 452.89848,187.16373 454.26753,165.46760 455.63658,145.76761 457.00562,128.28037 458.37467,113.20436 459.74372,100.71765 461.11277,90.97585 462.48181,84.11023 463.85086,80.22608 465.21991,79.40132 466.58895,81.68532 467.95800,87.09806 469.32705,95.62954 470.69610,107.23950 472.06514,121.85746 473.43419,139.38300 474.80324,159.68649 476.17228,182.60992 477.54133,207.96827 478.91038,235.55094 480.27942,265.12362 481.64847,296.43035 483.01752,329.19582 484.38657,363.12790 485.75561,397.92040 487.12466,433.25594 488.49371,468.80900 489.86275,504.24905 491.23180,539.24380 492.60085,573.46244 493.96989,606.57898 495.33894,638.27543 496.70799,668.24507 498.07704,696.19554 499.44608,721.85181 500.81513,744.95905 502.18418,765.28525 503.55322,782.62366 504.92227,796.79500 506.29132,807.64933 507.66036,815.06778 509.02941,818.96381 510.39846,819.28424 511.76751,816.00994 513.13655,809.15617 514.50560,798.77256 515.87465,784.94276 517.24369,767.78373 518.61274,747.44473 519.98179,724.10590 521.35084,697.97659 522.71988,669.29341 524.08893,638.31790 525.45798,605.33407 526.82702,570.64557 528.19607,534.57282 529.56512,497.44979 530.93416,459.62078 532.30321,421.43705 533.67226,383.25332 535.04131,345.42432 536.41035,308.30129 537.77940,272.22853 539.14845,237.54004 540.51749,204.55620 541.88654,173.58070 543.25559,144.89752 544.62463,118.76821 545.99368,95.42937 547.36273,75.09037 548.73178,57.93135 550.10082,44.10155 551.46987,33.71794 552.83892,26.86417 554.20796,23.58987 555.57701,23.91030 556.94606,27.80632 558.31511,35.22477 559.68415,46.07911 561.05320,60.25044 562.42225,77.58885 563.79129,97.91505 565.16034,121.02229 566.52939,146.67857 567.89843,174.62904 569.26748,204.59868 570.63653,236.29513 572.00558,269.41166 573.37462,303.63031 574.74367,338.62505 576.11272,374.06510 577.48176,409.61816 578.85081,444.95370 580.21986,479.74621 581.58890,513.67829 582.95795,546.44375 584.32700,577.75048 585.69605,607.32316 587.06509,634.90583 588.43414,660.26418 589.80319,683.18762 591.17223,703.49110 592.54128,721.01665 593.91033,735.63460 595.27938,747.24457 596.64842,755.77605 598.01747,761.18879 599.38652,763.47278 600.75556,762.64802 602.12461,758.76388 603.49366,751.89826 604.86270,742.15645 606.23175,729.66974 607.60080,714.59373 608.96985,697.10650 610.33889,677.40650 611.70794,655.71037 613.07699,632.25047 614.44603,607.27242 615.81508,581.03244 617.18413,553.79472 618.55317,525.82864 619.92222,497.40611 621.29127,468.79880 622.66032,440.27553 624.02936,412.09964 625.39841,384.52651 626.76746,357.80120 628.13650,332.15624 629.50555,307.80953 630.87460,284.96253 632.24365,263.79854 633.61269,244.48123 634.98174,227.15347 636.35079,211.93626 637.71983,198.92803 639.08888,188.20407 640.45793,179.81629 641.82697,173.79317 643.19602,170.13995 644.56507,168.83912 645.93412,169.85100 647.30316,173.11466 648.67221,178.54895 650.04126,186.05377 651.41030,195.51144 652.77935,206.78827 654.14840,219.73625 655.51744,234.19481 656.88649,249.99273 658.25554,266.95002 659.62459,284.87996 660.99363,303.59106 662.36268,322.88908 663.73173,342.57900 665.10077,362.46697 666.46982,382.36218 667.83887,402.07867 669.20791,421.43705 670.57696,440.26608 671.94601,458.40413 673.31506,475.70059 674.68410,492.01698 676.05315,507.22804 677.42220,521.22259 678.79124,533.90425 680.16029,545.19196 681.52934,555.02040 682.89839,563.34014 684.26743,570.11770 685.63648,575.33543 687.00553,578.99121 688.37457,581.09804 689.74362,581.68344 691.11267,580.78875 692.48171,578.46833 693.85076,574.78861 695.21981,569.82707 696.58886,563.67112 697.95790,556.41694 699.32695,548.16826 700.69600,539.03508 702.06504,529.13238 703.43409,518.57885 704.80314,507.49553 706.17218,496.00462 707.54123,484.22814 708.91028,472.28679 710.27933,460.29879 711.64837,448.37873 713.01742,436.63665 714.38647,425.17701 715.75551,414.09791 717.12456,403.49031 718.49361,393.43734 719.86266,384.01384 721.23170,375.28580 722.60075,367.31010 723.96980,360.13424 725.33884,353.79620 726.70789,348.32442 728.07694,343.73785 729.44598,340.04616 730.81503,337.24990 732.18408,335.34095 733.55313,334.30281 734.92217,334.11119 736.29122,334.73446 737.66027,336.13431 739.02931,338.26637 740.39836,341.08087 741.76741,344.52340 743.13645,348.53558 744.50550,353.05584 745.87455,358.02015 747.24360,363.36276 748.61264,369.01693 749.98169,374.91564 751.35074,380.99228 752.71978,387.18128 754.08883,393.41875 755.45788,399.64301 756.82693,405.79520 758.19597,411.81963 759.56502,417.66432 760.93407,423.28129 762.30311,428.62690 763.67216,433.66210 765.04121,438.35260 766.41025,442.66905 767.77930,446.58708 769.14835,450.08731 770.51740,453.15539 771.88644,455.78186 773.25549,457.96204 774.62454,459.69586 775.99358,460.98766 777.36263,461.84594 778.73168,462.28306 780.10072,462.31498 781.46977,461.96089 782.83882,461.24289 784.20787,460.18561 785.57691,458.81584 786.94596,457.16220 788.31501,455.25469 789.68405,453.12438 791.05310,450.80302 792.42215,448.32266 793.79119,445.71537 795.16024,443.01285 796.52929,440.24617 797.89834,437.44547 799.26738,434.63969 800.63643,431.85635 802.00548,429.12134 803.37452,426.45873 804.74357,423.89063 806.11262,421.43705 807.48167,419.11583 808.85071,416.94253 810.21976,414.93042 811.58881,413.09047 812.95785,411.43132 814.32690,409.95938 815.69595,408.67879 817.06499,407.59158 818.43404,406.69775 819.80309,405.99533 821.17214,405.48055 822.54118,405.14796 823.91023,404.99061 825.27928,405.00013 826.64832,405.16699 828.01737,405.48057 829.38642,405.92940 830.75546,406.50129 832.12451,407.18349 833.49356,407.96290 834.86261,408.82614 836.23165,409.75981 837.60070,410.75053 838.96975,411.78516 840.33879,412.85085 841.70784,413.93521 843.07689,415.02638 844.44594,416.11314 845.81498,417.18497 847.18403,418.23216 848.55308,419.24578 849.92212,420.21783 851.29117,421.14119 852.66022,422.00966 854.02926,422.81799 855.39831,423.56187 856.76736,424.23790 858.13641,424.84357 859.50545,425.37727 860.87450,425.83821 862.24355,426.22638 863.61259,426.54254 864.98164,426.78812 866.35069,426.96520 867.71973,427.07640 869.08878,427.12487 870.45783,427.11421 871.82688,427.04836 873.19592,426.93161 874.56497,426.76847 875.93402,426.56366 877.30306,426.32198 878.67211,426.04833 880.04116,425.74762 881.41021,425.42467 882.77925,425.08427 884.14830,424.73102 885.51735,424.36939 886.88639,424.00359 888.25544,423.63763 889.62449,423.27523 890.99353,422.91983 892.36258,422.57455 893.73163,422.24221 895.10068,421.92529 896.46972,421.62594 897.83877,421.34599 899.20782,421.08692 900.57686,420.84992 901.94591,420.63583 903.31496,420.44522 904.68400,420.27837 906.05305,420.13528 907.42210,420.01572 908.79115,419.91921 910.16019,419.84508 911.52924,419.79247 912.89829,419.76035 914.26733,419.74755 915.63638,419.75278 917.00543,419.77467 918.37447,419.81176 919.74352,419.86254 921.11257,419.92546 922.48162,419.99897 923.85066,420.08151 925.21971,420.17156 926.58876,420.26760 927.95780,420.36819 929.32685,420.47195 930.69590,420.57754 932.06495,420.68373 933.43399,420.78937 934.80304,420.89340 936.17209,420.99486 937.54113,421.09288 938.91018,421.18672 940.27923,421.27571 941.64827,421.35931 943.01732,421.43705 "
             id="polyline43" />
        </g>
      </g>
      <g
         id="g45">
        <polyline
           fill="none"
           stroke="#262626"
           stroke-width="1.5pt"
           stroke-dasharray="none"
           stroke-opacity="1.00"
           points="258.49380,827.20757 258.49380,818.99328 "
           id="polyline47" />
        <polyline
           fill="none"
           stroke="#262626"
           stroke-width="1.5pt"
           stroke-dasharray="none"
           stroke-opacity="1.00"
           points="395.39851,827.20757 395.39851,818.99328 "
           id="polyline49" />
        <polyline
           fill="none"
           stroke="#262626"
           stroke-width="1.5pt"
           stroke-dasharray="none"
           stroke-opacity="1.00"
           points="532.30321,827.20757 532.30321,818.99328 "
           id="polyline51" />
        <polyline
           fill="none"
           stroke="#262626"
           stroke-width="1.5pt"
           stroke-dasharray="none"
           stroke-opacity="1.00"
           points="669.20791,827.20757 669.20791,818.99328 "
           id="polyline53" />
        <polyline
           fill="none"
           stroke="#262626"
           stroke-width="1.5pt"
           stroke-dasharray="none"
           stroke-opacity="1.00"
           points="806.11262,827.20757 806.11262,818.99328 "
           id="polyline55" />
        <polyline
           fill="none"
           stroke="#262626"
           stroke-width="1.5pt"
           stroke-dasharray="none"
           stroke-opacity="1.00"
           points="121.58910,827.20757 943.01732,827.20757 "
           id="polyline57" />
        <polyline
           fill="none"
           stroke="#262626"
           stroke-width="1.5pt"
           stroke-dasharray="none"
           stroke-opacity="1.00"
           points="258.49380,15.66654 258.49380,23.88082 "
           id="polyline59" />
        <polyline
           fill="none"
           stroke="#262626"
           stroke-width="1.5pt"
           stroke-dasharray="none"
           stroke-opacity="1.00"
           points="395.39851,15.66654 395.39851,23.88082 "
           id="polyline61" />
        <polyline
           fill="none"
           stroke="#262626"
           stroke-width="1.5pt"
           stroke-dasharray="none"
           stroke-opacity="1.00"
           points="532.30321,15.66654 532.30321,23.88082 "
           id="polyline63" />
        <polyline
           fill="none"
           stroke="#262626"
           stroke-width="1.5pt"
           stroke-dasharray="none"
           stroke-opacity="1.00"
           points="669.20791,15.66654 669.20791,23.88082 "
           id="polyline65" />
        <polyline
           fill="none"
           stroke="#262626"
           stroke-width="1.5pt"
           stroke-dasharray="none"
           stroke-opacity="1.00"
           points="806.11262,15.66654 806.11262,23.88082 "
           id="polyline67" />
        <polyline
           fill="none"
           stroke="#262626"
           stroke-width="1.5pt"
           stroke-dasharray="none"
           stroke-opacity="1.00"
           points="121.58910,15.66654 943.01732,15.66654 "
           id="polyline69" />
        <g
           transform="translate(121.589,867.038)"
           id="g71">
          <g
             transform="rotate(-0.0)"
             id="g73">
            <text
               x="0.000"
               y="0.000"
               font-family="Helvetica"
               text-anchor="middle"
               font-size="20pt"
               fill="#262626"
               id="text75">
              <tspan
                 id="tspan77">0.0</tspan>
            </text>
          </g>
        </g>
        <g
           transform="translate(258.494,867.038)"
           id="g79">
          <g
             transform="rotate(-0.0)"
             id="g81">
            <text
               x="0.000"
               y="0.000"
               font-family="Helvetica"
               text-anchor="middle"
               font-size="20pt"
               fill="#262626"
               id="text83">
              <tspan
                 id="tspan85">1.0</tspan>
            </text>
          </g>
        </g>
        <g
           transform="translate(395.399,867.038)"
           id="g87">
          <g
             transform="rotate(-0.0)"
             id="g89">
            <text
               x="0.000"
               y="0.000"
               font-family="Helvetica"
               text-anchor="middle"
               font-size="20pt"
               fill="#262626"
               id="text91">
              <tspan
                 id="tspan93">2.0</tspan>
            </text>
          </g>
        </g>
        <g
           transform="translate(532.303,867.038)"
           id="g95">
          <g
             transform="rotate(-0.0)"
             id="g97">
            <text
               x="0.000"
               y="0.000"
               font-family="Helvetica"
               text-anchor="middle"
               font-size="20pt"
               fill="#262626"
               id="text99">
              <tspan
                 id="tspan101">3.0</tspan>
            </text>
          </g>
        </g>
        <g
           transform="translate(669.208,867.038)"
           id="g103">
          <g
             transform="rotate(-0.0)"
             id="g105">
            <text
               x="0.000"
               y="0.000"
               font-family="Helvetica"
               text-anchor="middle"
               font-size="20pt"
               fill="#262626"
               id="text107">
              <tspan
                 id="tspan109">4.0</tspan>
            </text>
          </g>
        </g>
        <g
           transform="translate(806.113,867.038)"
           id="g111">
          <g
             transform="rotate(-0.0)"
             id="g113">
            <text
               x="0.000"
               y="0.000"
               font-family="Helvetica"
               text-anchor="middle"
               font-size="20pt"
               fill="#262626"
               id="text115">
              <tspan
                 id="tspan117">5.0</tspan>
            </text>
          </g>
        </g>
        <g
           transform="translate(943.017,867.038)"
           id="g119">
          <g
             transform="rotate(-0.0)"
             id="g121">
            <text
               x="0.000"
               y="0.000"
               font-family="Helvetica"
               text-anchor="middle"
               font-size="20pt"
               fill="#262626"
               id="text123">
              <tspan
                 id="tspan125">6.0</tspan>
            </text>
          </g>
        </g>
        <polyline
           fill="none"
           stroke="#262626"
           stroke-width="1.5pt"
           stroke-dasharray="none"
           stroke-opacity="1.00"
           points="121.58910,746.05346 129.80338,746.05346 "
           id="polyline127" />
        <polyline
           fill="none"
           stroke="#262626"
           stroke-width="1.5pt"
           stroke-dasharray="none"
           stroke-opacity="1.00"
           points="121.58910,664.89936 129.80338,664.89936 "
           id="polyline129" />
        <polyline
           fill="none"
           stroke="#262626"
           stroke-width="1.5pt"
           stroke-dasharray="none"
           stroke-opacity="1.00"
           points="121.58910,583.74526 129.80338,583.74526 "
           id="polyline131" />
        <polyline
           fill="none"
           stroke="#262626"
           stroke-width="1.5pt"
           stroke-dasharray="none"
           stroke-opacity="1.00"
           points="121.58910,502.59116 129.80338,502.59116 "
           id="polyline133" />
        <polyline
           fill="none"
           stroke="#262626"
           stroke-width="1.5pt"
           stroke-dasharray="none"
           stroke-opacity="1.00"
           points="121.58910,421.43705 129.80338,421.43705 "
           id="polyline135" />
        <polyline
           fill="none"
           stroke="#262626"
           stroke-width="1.5pt"
           stroke-dasharray="none"
           stroke-opacity="1.00"
           points="121.58910,340.28295 129.80338,340.28295 "
           id="polyline137" />
        <polyline
           fill="none"
           stroke="#262626"
           stroke-width="1.5pt"
           stroke-dasharray="none"
           stroke-opacity="1.00"
           points="121.58910,259.12885 129.80338,259.12885 "
           id="polyline139" />
        <polyline
           fill="none"
           stroke="#262626"
           stroke-width="1.5pt"
           stroke-dasharray="none"
           stroke-opacity="1.00"
           points="121.58910,177.97474 129.80338,177.97474 "
           id="polyline141" />
        <polyline
           fill="none"
           stroke="#262626"
           stroke-width="1.5pt"
           stroke-dasharray="none"
           stroke-opacity="1.00"
           points="121.58910,96.82064 129.80338,96.82064 "
           id="polyline143" />
        <polyline
           fill="none"
           stroke="#262626"
           stroke-width="1.5pt"
           stroke-dasharray="none"
           stroke-opacity="1.00"
           points="121.58910,827.20757 121.58910,15.66654 "
           id="polyline145" />
        <polyline
           fill="none"
           stroke="#262626"
           stroke-width="1.5pt"
           stroke-dasharray="none"
           stroke-opacity="1.00"
           points="943.01732,746.05346 934.80304,746.05346 "
           id="polyline147" />
        <polyline
           fill="none"
           stroke="#262626"
           stroke-width="1.5pt"
           stroke-dasharray="none"
           stroke-opacity="1.00"
           points="943.01732,664.89936 934.80304,664.89936 "
           id="polyline149" />
        <polyline
           fill="none"
           stroke="#262626"
           stroke-width="1.5pt"
           stroke-dasharray="none"
           stroke-opacity="1.00"
           points="943.01732,583.74526 934.80304,583.74526 "
           id="polyline151" />
        <polyline
           fill="none"
           stroke="#262626"
           stroke-width="1.5pt"
           stroke-dasharray="none"
           stroke-opacity="1.00"
           points="943.01732,502.59116 934.80304,502.59116 "
           id="polyline153" />
        <polyline
           fill="none"
           stroke="#262626"
           stroke-width="1.5pt"
           stroke-dasharray="none"
           stroke-opacity="1.00"
           points="943.01732,421.43705 934.80304,421.43705 "
           id="polyline155" />
        <polyline
           fill="none"
           stroke="#262626"
           stroke-width="1.5pt"
           stroke-dasharray="none"
           stroke-opacity="1.00"
           points="943.01732,340.28295 934.80304,340.28295 "
           id="polyline157" />
        <polyline
           fill="none"
           stroke="#262626"
           stroke-width="1.5pt"
           stroke-dasharray="none"
           stroke-opacity="1.00"
           points="943.01732,259.12885 934.80304,259.12885 "
           id="polyline159" />
        <polyline
           fill="none"
           stroke="#262626"
           stroke-width="1.5pt"
           stroke-dasharray="none"
           stroke-opacity="1.00"
           points="943.01732,177.97474 934.80304,177.97474 "
           id="polyline161" />
        <polyline
           fill="none"
           stroke="#262626"
           stroke-width="1.5pt"
           stroke-dasharray="none"
           stroke-opacity="1.00"
           points="943.01732,96.82064 934.80304,96.82064 "
           id="polyline163" />
        <polyline
           fill="none"
           stroke="#262626"
           stroke-width="1.5pt"
           stroke-dasharray="none"
           stroke-opacity="1.00"
           points="943.01732,827.20757 943.01732,15.66654 "
           id="polyline165" />
        <g
           transform="translate(105.161,836.208)"
           id="g167">
          <g
             transform="rotate(-0.0)"
             id="g169">
            <text
               x="0"
               y="0"
               font-size="20pt"
               id="text171"
               style="font-size:25px;font-family:Helvetica;text-anchor:end;fill:#262626">
              <tspan
                 id="tspan173">$-p_a$</tspan>
            </text>
          </g>
        </g>
        <g
           transform="translate(105.161,755.053)"
           id="g175">
          <g
             transform="rotate(-0.0)"
             id="g177" />
        </g>
        <g
           transform="translate(105.161,673.899)"
           id="g183">
          <g
             transform="rotate(-0.0)"
             id="g185" />
        </g>
        <g
           transform="translate(105.161,592.745)"
           id="g191">
          <g
             transform="rotate(-0.0)"
             id="g193" />
        </g>
        <g
           transform="translate(105.161,511.591)"
           id="g199">
          <g
             transform="rotate(-0.0)"
             id="g201" />
        </g>
        <g
           transform="translate(105.161,430.437)"
           id="g207">
          <g
             transform="rotate(-0.0)"
             id="g209">
            <text
               x="0.000"
               y="0.000"
               font-family="Helvetica"
               text-anchor="end"
               font-size="20pt"
               fill="#262626"
               id="text211">
              <tspan
                 id="tspan213">0.0</tspan>
            </text>
          </g>
        </g>
        <g
           transform="translate(105.161,349.283)"
           id="g215">
          <g
             transform="rotate(-0.0)"
             id="g217" />
        </g>
        <g
           transform="translate(105.161,268.129)"
           id="g223">
          <g
             transform="rotate(-0.0)"
             id="g225" />
        </g>
        <g
           transform="translate(105.161,186.975)"
           id="g231">
          <g
             transform="rotate(-0.0)"
             id="g233" />
        </g>
        <g
           transform="translate(105.161,105.821)"
           id="g239">
          <g
             transform="rotate(-0.0)"
             id="g241" />
        </g>
        <g
           transform="translate(105.161,24.667)"
           id="g247">
          <g
             transform="rotate(-0.0)"
             id="g249">
            <text
               x="0"
               y="0"
               font-size="20pt"
               id="text251"
               style="font-size:25px;font-family:Helvetica;text-anchor:end;fill:#262626">
              <tspan
                 id="tspan253">$p_a$</tspan>
            </text>
          </g>
        </g>
        <polyline
           fill="none"
           stroke="#262626"
           stroke-width="1.5pt"
           stroke-dasharray="none"
           stroke-opacity="1.00"
           points="121.58910,827.20757 121.58910,819.09216 "
           id="polyline255" />
        <polyline
           fill="none"
           stroke="#262626"
           stroke-width="1.5pt"
           stroke-dasharray="none"
           stroke-opacity="1.00"
           points="121.58910,827.20757 121.58910,827.20757 "
           id="polyline257" />
      </g>
    </g>
  </g>
</svg>
