<?xml version="1.0" encoding="UTF-8" standalone="no"?>
<svg
   xmlns:dc="http://purl.org/dc/elements/1.1/"
   xmlns:cc="http://creativecommons.org/ns#"
   xmlns:rdf="http://www.w3.org/1999/02/22-rdf-syntax-ns#"
   xmlns:svg="http://www.w3.org/2000/svg"
   xmlns="http://www.w3.org/2000/svg"
   xmlns:sodipodi="http://sodipodi.sourceforge.net/DTD/sodipodi-0.dtd"
   xmlns:inkscape="http://www.inkscape.org/namespaces/inkscape"
   preserveAspectRatio="xMinYMin meet"
   width="100%"
   height="100%"
   viewBox="0 0 618.68612 540.93798"
   version="1.1"
   id="svg2"
   inkscape:version="0.48.4 r9939"
   sodipodi:docname="usbe_model_schematic_domain.pdf">
  <metadata
     id="metadata248">
    <rdf:RDF>
      <cc:Work
         rdf:about="">
        <dc:format>image/svg+xml</dc:format>
        <dc:type
           rdf:resource="http://purl.org/dc/dcmitype/StillImage" />
        <dc:title></dc:title>
      </cc:Work>
    </rdf:RDF>
  </metadata>
  <defs
     id="defs246">
    <marker
       inkscape:stockid="Arrow1Lend"
       orient="auto"
       refY="0"
       refX="0"
       id="Arrow1Lend"
       style="overflow:visible">
      <path
         id="path4002"
         d="M 0,0 5,-5 -12.5,0 5,5 0,0 z"
         style="fill-rule:evenodd;stroke:#000000;stroke-width:1pt"
         transform="matrix(-0.8,0,0,-0.8,-10,0)"
         inkscape:connector-curvature="0" />
    </marker>
    <marker
       inkscape:stockid="Arrow1Lstart"
       orient="auto"
       refY="0"
       refX="0"
       id="Arrow1Lstart"
       style="overflow:visible">
      <path
         id="path3999"
         d="M 0,0 5,-5 -12.5,0 5,5 0,0 z"
         style="fill-rule:evenodd;stroke:#000000;stroke-width:1pt"
         transform="matrix(0.8,0,0,0.8,10,0)"
         inkscape:connector-curvature="0" />
    </marker>
  </defs>
  <sodipodi:namedview
     pagecolor="#ffffff"
     bordercolor="#666666"
     borderopacity="1"
     objecttolerance="10"
     gridtolerance="10"
     guidetolerance="10"
     inkscape:pageopacity="0"
     inkscape:pageshadow="2"
     inkscape:window-width="1680"
     inkscape:window-height="1026"
     id="namedview244"
     showgrid="false"
     fit-margin-top="0"
     fit-margin-bottom="0"
     fit-margin-left="0"
     fit-margin-right="0"
     inkscape:zoom="1.4142136"
     inkscape:cx="402.48"
     inkscape:cy="281.43631"
     inkscape:window-x="0"
     inkscape:window-y="24"
     inkscape:window-maximized="1"
     inkscape:current-layer="svg2" />
  <desc
     id="desc4">Matlab Figure Converted by PLOT2SVG written by Juerg Schwizer</desc>
  <g
     id="topgroup"
     transform="translate(18.06175,0)">
    <rect
       x="0"
       y="0"
       width="600"
       height="540.93799"
       id="rect7"
       style="fill:#ffffff;stroke:none" />
    <g
       id="ID000000">
      <clipPath
         id="ID000001">
        <rect
           x="73.333"
           y="15.328"
           width="498.57101"
           height="487.04199"
           id="rect11" />
      </clipPath>
      <polygon
         points="73.333,502.37 571.905,502.37 571.905,15.328 73.333,15.328 "
         id="polygon13"
         style="fill:#ffffff;fill-opacity:1;stroke:none" />
      <polygon
         points="73.333,15.328 571.905,15.328 571.905,15.328 73.333,15.328 "
         id="polygon15"
         style="fill:#ffffff;fill-opacity:1;stroke:none" />
      <polygon
         points="73.333,502.37 73.333,502.37 73.333,15.328 73.333,15.328 "
         id="polygon17"
         style="fill:#ffffff;fill-opacity:1;stroke:none" />
      <g
         id="g19">
        <g
           id="ID000002" />
        <g
           id="ID000003" />
        <g
           id="ID000004" />
        <g
           id="ID000005"
           clip-path="url(#ID000001)">
          <polyline
             points="73.33333,268.58981 78.31905,268.58020 83.30476,268.55140 88.29047,268.50354 93.27619,268.43680 98.26190,268.35143 103.24762,268.24779 108.23333,268.12628 113.21905,267.98737 118.20476,267.83162 123.19047,267.65964 128.17619,267.47211 133.16190,267.26977 138.14762,267.05342 143.13333,266.82391 148.11905,266.58215 153.10476,266.32909 158.09047,266.06573 163.07619,265.79311 168.06190,265.51231 173.04762,265.22443 178.03333,264.93062 183.01905,264.63202 188.00476,264.32982 192.99047,264.02521 197.97619,263.71939 202.96190,263.41358 207.94762,263.10897 212.93333,262.80677 217.91905,262.50817 222.90476,262.21435 227.89048,261.92647 232.87619,261.64567 237.86190,261.37305 242.84762,261.10969 247.83333,260.85663 252.81905,260.61487 257.80476,260.38536 262.79048,260.16901 267.77619,259.96667 272.76190,259.77914 277.74762,259.60717 282.73333,259.45142 287.71905,259.31251 292.70476,259.19100 297.69048,259.08735 302.67619,259.00199 307.66190,258.93525 312.64762,258.88738 317.63333,258.85859 322.61905,258.84898 327.60476,258.85859 332.59048,258.88738 337.57619,258.93525 342.56190,259.00199 347.54762,259.08735 352.53333,259.19100 357.51905,259.31251 362.50476,259.45142 367.49048,259.60717 372.47619,259.77914 377.46190,259.96667 382.44762,260.16901 387.43333,260.38536 392.41905,260.61487 397.40476,260.85663 402.39048,261.10969 407.37619,261.37305 412.36190,261.64567 417.34762,261.92647 422.33333,262.21435 427.31905,262.50817 432.30476,262.80677 437.29048,263.10897 442.27619,263.41358 447.26190,263.71939 452.24762,264.02521 457.23333,264.32982 462.21905,264.63202 467.20476,264.93062 472.19048,265.22443 477.17619,265.51231 482.16191,265.79311 487.14762,266.06573 492.13333,266.32909 497.11905,266.58215 502.10476,266.82391 507.09048,267.05342 512.07619,267.26977 517.06191,267.47211 522.04762,267.65964 527.03333,267.83162 532.01905,267.98737 537.00476,268.12628 541.99048,268.24779 546.97619,268.35143 551.96191,268.43680 556.94762,268.50354 561.93333,268.55140 566.91905,268.58020 571.90476,268.58981 "
             id="polyline25"
             style="fill:none;stroke:#000000;stroke-width:2pt;stroke-opacity:1;stroke-dasharray:none" />
        </g>
        <g
           id="ID000006">
          <g
             transform="translate(335.083,97.384)"
             id="g28">
            <g
               id="g30">
              <text
                 x="-88.244339"
                 y="67.215111"
                 font-size="20pt"
                 font-weight="lighter"
                 id="text32"
                 style="font-size:28.00000191px;font-weight:lighter;text-anchor:start;fill:#000000;font-family:Helvetica">
                <tspan
                   id="tspan34"
                   style="font-size:28.00000191px">Acoustic wave</tspan>
              </text>
            </g>
          </g>
        </g>
        <g
           id="ID000007">
          <g
             transform="translate(88.29,243.497)"
             id="g37">
            <g
               id="g39">
              <text
                 x="0"
                 y="0"
                 font-size="20pt"
                 font-weight="lighter"
                 id="text41"
                 style="font-size:25px;font-weight:lighter;text-anchor:start;fill:#000000;font-family:Helvetica">
                <tspan
                   id="tspan43"
                   style="font-size:28.00000191px">Water</tspan>
              </text>
            </g>
          </g>
        </g>
        <g
           id="ID000008">
          <g
             transform="translate(89.242,316.677)"
             id="g46">
            <g
               id="g48">
              <text
                 x="0"
                 y="0"
                 font-size="20pt"
                 font-weight="lighter"
                 id="text50"
                 style="font-size:25px;font-weight:lighter;text-anchor:start;fill:#000000;font-family:Helvetica">
                <tspan
                   id="tspan52"
                   style="font-size:28.00000191px">Air</tspan>
              </text>
            </g>
          </g>
        </g>
        <g
           id="ID000009"
           clip-path="url(#ID000001)">
          <polyline
             points="377.46190,474.77072 382.44762,473.85758 387.43333,471.14749 392.41905,466.72757 397.40476,460.73987 402.39048,453.37685 407.37619,444.87515 412.36190,435.50803 417.34762,425.57655 422.33333,415.39992 427.31905,405.30524 432.30476,395.61694 437.29048,386.64641 442.27619,378.68199 447.26190,371.97964 452.24762,366.75480 457.23333,363.17538 462.21905,361.35645 467.20476,361.35645 472.19048,363.17538 477.17619,366.75480 482.16191,371.97964 487.14762,378.68199 492.13333,386.64641 497.11905,395.61694 502.10476,405.30524 507.09048,415.39992 512.07619,425.57655 517.06191,435.50803 522.04762,444.87515 527.03333,453.37685 532.01905,460.73987 537.00476,466.72757 541.99048,471.14749 546.97619,473.85758 551.96191,474.77072 "
             id="polyline55"
             style="fill:none;stroke:#000000;stroke-width:2pt;stroke-opacity:1;stroke-dasharray:none"
             transform="matrix(1.0017166,0,0,0.7733931,-0.79771859,35.736095)" />
        </g>
        <g
           id="ID000010">
          <g
             transform="translate(307.729,431.539)"
             id="g58">
            <g
               id="g60">
              <text
                 x="-26.870058"
                 y="-66.363968"
                 font-size="20pt"
                 font-weight="lighter"
                 id="text62"
                 style="font-size:28.00000191px;font-weight:lighter;text-anchor:start;fill:#000000;font-family:Helvetica">
                <tspan
                   id="tspan64"
                   style="font-size:28.00000191px">$2\, a(t)$</tspan>
              </text>
            </g>
          </g>
        </g>
      </g>
      <g
         id="g66">
        <polyline
           points="173.04762,502.36974 173.04762,497.38403 "
           id="polyline68"
           style="fill:none;stroke:#262626;stroke-width:1.5pt;stroke-opacity:1;stroke-dasharray:none" />
        <polyline
           points="272.76190,502.36974 272.76190,497.38403 "
           id="polyline70"
           style="fill:none;stroke:#262626;stroke-width:1.5pt;stroke-opacity:1;stroke-dasharray:none" />
        <polyline
           points="372.47619,502.36974 372.47619,497.38403 "
           id="polyline72"
           style="fill:none;stroke:#262626;stroke-width:1.5pt;stroke-opacity:1;stroke-dasharray:none" />
        <polyline
           points="472.19048,502.36974 472.19048,497.38403 "
           id="polyline74"
           style="fill:none;stroke:#262626;stroke-width:1.5pt;stroke-opacity:1;stroke-dasharray:none" />
        <polyline
           points="73.33333,502.36974 571.90476,502.36974 "
           id="polyline76"
           style="fill:none;stroke:#262626;stroke-width:1.5pt;stroke-opacity:1;stroke-dasharray:none" />
        <polyline
           points="173.04762,15.32821 173.04762,20.31392 "
           id="polyline78"
           style="fill:none;stroke:#262626;stroke-width:1.5pt;stroke-opacity:1;stroke-dasharray:none" />
        <polyline
           points="272.76190,15.32821 272.76190,20.31392 "
           id="polyline80"
           style="fill:none;stroke:#262626;stroke-width:1.5pt;stroke-opacity:1;stroke-dasharray:none" />
        <polyline
           points="372.47619,15.32821 372.47619,20.31392 "
           id="polyline82"
           style="fill:none;stroke:#262626;stroke-width:1.5pt;stroke-opacity:1;stroke-dasharray:none" />
        <polyline
           points="472.19048,15.32821 472.19048,20.31392 "
           id="polyline84"
           style="fill:none;stroke:#262626;stroke-width:1.5pt;stroke-opacity:1;stroke-dasharray:none" />
        <polyline
           points="73.33333,15.32821 571.90476,15.32821 "
           id="polyline86"
           style="fill:none;stroke:#262626;stroke-width:1.5pt;stroke-opacity:1;stroke-dasharray:none" />
        <g
           transform="translate(73.333,530.991)"
           id="g88">
          <g
             id="g90">
            <text
               x="0"
               y="0"
               font-size="16pt"
               id="text92"
               style="font-size:20px;text-anchor:middle;fill:#262626;font-family:Helvetica">
              <tspan
                 id="tspan94">0$\ell$<tspan
   id="tspan96" />
</tspan>
            </text>
          </g>
        </g>
        <g
           transform="translate(173.048,530.991)"
           id="g98">
          <g
             id="g100">
            <text
               x="0"
               y="0"
               font-size="16pt"
               id="text102"
               style="font-size:20px;text-anchor:middle;fill:#262626;font-family:Helvetica">
              <tspan
                 id="tspan104">0.2$\ell$<tspan
   id="tspan106" />
</tspan>
            </text>
          </g>
        </g>
        <g
           transform="translate(272.762,530.991)"
           id="g108">
          <g
             id="g110">
            <text
               x="0"
               y="0"
               font-size="16pt"
               id="text112"
               style="font-size:20px;text-anchor:middle;fill:#262626;font-family:Helvetica">
              <tspan
                 id="tspan114">0.4$\ell$<tspan
   id="tspan116" />
</tspan>
            </text>
          </g>
        </g>
        <g
           transform="translate(372.476,530.991)"
           id="g118">
          <g
             id="g120">
            <text
               x="0"
               y="0"
               font-size="16pt"
               id="text122"
               style="font-size:20px;text-anchor:middle;fill:#262626;font-family:Helvetica">
              <tspan
                 id="tspan124">0.6$\ell$<tspan
   id="tspan126" />
</tspan>
            </text>
          </g>
        </g>
        <g
           transform="translate(472.19,530.991)"
           id="g128">
          <g
             id="g130">
            <text
               x="0"
               y="0"
               font-size="16pt"
               id="text132"
               style="font-size:20px;text-anchor:middle;fill:#262626;font-family:Helvetica">
              <tspan
                 id="tspan134">0.8$\ell$<tspan
   id="tspan136" />
</tspan>
            </text>
          </g>
        </g>
        <g
           transform="translate(571.905,530.991)"
           id="g138">
          <g
             id="g140">
            <text
               x="0"
               y="0"
               font-size="16pt"
               id="text142"
               style="font-size:20px;text-anchor:middle;fill:#262626;font-family:Helvetica">
              <tspan
                 id="tspan144">1$\ell$<tspan
   id="tspan146" />
</tspan>
            </text>
          </g>
        </g>
        <polyline
           points="73.33333,421.19616 78.31905,421.19616 "
           id="polyline148"
           style="fill:none;stroke:#262626;stroke-width:1.5pt;stroke-opacity:1;stroke-dasharray:none" />
        <polyline
           points="73.33333,340.02257 78.31905,340.02257 "
           id="polyline150"
           style="fill:none;stroke:#262626;stroke-width:1.5pt;stroke-opacity:1;stroke-dasharray:none" />
        <polyline
           points="73.33333,258.84898 78.31905,258.84898 "
           id="polyline152"
           style="fill:none;stroke:#262626;stroke-width:1.5pt;stroke-opacity:1;stroke-dasharray:none" />
        <polyline
           points="73.33333,177.67539 78.31905,177.67539 "
           id="polyline154"
           style="fill:none;stroke:#262626;stroke-width:1.5pt;stroke-opacity:1;stroke-dasharray:none" />
        <polyline
           points="73.33333,96.50180 78.31905,96.50180 "
           id="polyline156"
           style="fill:none;stroke:#262626;stroke-width:1.5pt;stroke-opacity:1;stroke-dasharray:none" />
        <polyline
           points="73.33333,502.36974 73.33333,15.32821 "
           id="polyline158"
           style="fill:none;stroke:#262626;stroke-width:1.5pt;stroke-opacity:1;stroke-dasharray:none"
           transform="matrix(1,0,0,0.66958645,0,85.350431)" />
        <polyline
           points="571.90476,421.19616 566.91905,421.19616 "
           id="polyline160"
           style="fill:none;stroke:#262626;stroke-width:1.5pt;stroke-opacity:1;stroke-dasharray:none" />
        <polyline
           points="571.90476,340.02257 566.91905,340.02257 "
           id="polyline162"
           style="fill:none;stroke:#262626;stroke-width:1.5pt;stroke-opacity:1;stroke-dasharray:none" />
        <polyline
           points="571.90476,258.84898 566.91905,258.84898 "
           id="polyline164"
           style="fill:none;stroke:#262626;stroke-width:1.5pt;stroke-opacity:1;stroke-dasharray:none" />
        <polyline
           points="571.90476,177.67539 566.91905,177.67539 "
           id="polyline166"
           style="fill:none;stroke:#262626;stroke-width:1.5pt;stroke-opacity:1;stroke-dasharray:none" />
        <polyline
           points="571.90476,96.50180 566.91905,96.50180 "
           id="polyline168"
           style="fill:none;stroke:#262626;stroke-width:1.5pt;stroke-opacity:1;stroke-dasharray:none" />
        <polyline
           points="571.90476,502.36974 571.90476,15.32821 "
           id="polyline170"
           style="fill:none;stroke:#262626;stroke-width:1.5pt;stroke-opacity:1;stroke-dasharray:none"
           transform="matrix(0.80245742,0,0,0.66951233,112.97554,85.741308)" />
        <g
           transform="translate(63.362,509.57)"
           id="g172">
          <g
             id="g174">
            <text
               x="0"
               y="0"
               font-size="16pt"
               id="text176"
               style="font-size:20px;text-anchor:end;fill:#262626;font-family:Helvetica">
              <tspan
                 id="tspan178">-20$\ell$</tspan>
            </text>
          </g>
        </g>
        <g
           transform="translate(63.362,428.396)"
           id="g182">
          <g
             id="g184">
            <text
               x="0"
               y="0"
               font-size="16pt"
               id="text186"
               style="font-size:20px;text-anchor:end;fill:#262626;font-family:Helvetica">
              <tspan
                 id="tspan188">-1$\ell$<tspan
   id="tspan190" />
</tspan>
            </text>
          </g>
        </g>
        <g
           transform="translate(63.362,347.223)"
           id="g192">
          <g
             id="g194">
            <text
               x="0"
               y="0"
               font-size="16pt"
               id="text196"
               style="font-size:20px;text-anchor:end;fill:#262626;font-family:Helvetica">
              <tspan
                 id="tspan198">-0.5$\ell$<tspan
   id="tspan200" />
</tspan>
            </text>
          </g>
        </g>
        <g
           transform="translate(63.362,266.049)"
           id="g202">
          <g
             id="g204">
            <text
               x="0"
               y="0"
               font-size="16pt"
               id="text206"
               style="font-size:20px;text-anchor:end;fill:#262626;font-family:Helvetica">
              <tspan
                 id="tspan208">0$\ell$<tspan
   id="tspan210" />
</tspan>
            </text>
          </g>
        </g>
        <g
           transform="translate(63.362,184.875)"
           id="g212">
          <g
             id="g214">
            <text
               x="0"
               y="0"
               font-size="16pt"
               id="text216"
               style="font-size:20px;text-anchor:end;fill:#262626;font-family:Helvetica">
              <tspan
                 id="tspan218">0.5$\ell$<tspan
   id="tspan220" />
</tspan>
            </text>
          </g>
        </g>
        <g
           transform="translate(63.362,103.702)"
           id="g222">
          <g
             id="g224">
            <text
               x="0"
               y="0"
               font-size="16pt"
               id="text226"
               style="font-size:20px;text-anchor:end;fill:#262626;font-family:Helvetica">
              <tspan
                 id="tspan228">1$\ell$<tspan
   id="tspan230" />
</tspan>
            </text>
          </g>
        </g>
        <g
           transform="translate(63.362,22.528)"
           id="g232">
          <g
             id="g234">
            <text
               x="0"
               y="0"
               font-size="16pt"
               id="text236"
               style="font-size:20px;text-anchor:end;fill:#262626;font-family:Helvetica">
              <tspan
                 id="tspan238">50$\ell$</tspan>
            </text>
          </g>
        </g>
        <polyline
           points="73.33333,502.36974 73.33333,502.36974 "
           id="polyline242"
           style="fill:none;stroke:#262626;stroke-width:1.5pt;stroke-opacity:1;stroke-dasharray:none" />
      </g>
    </g>
  </g>
  <path
     style="fill:none;stroke:#000000;stroke-width:1.83809865;stroke-linecap:butt;stroke-linejoin:miter;stroke-miterlimit:4;stroke-opacity:1;stroke-dasharray:none;marker-start:none;marker-end:url(#Arrow1Lend)"
     d="m 343.64793,174.63296 c 0,67.37607 0,67.80521 0,67.80521"
     id="path3225"
     inkscape:connector-curvature="0"
     sodipodi:nodetypes="cc" />
  <rect
     style="fill:#000000;fill-opacity:0;stroke:#000000;stroke-width:2.2688508;stroke-miterlimit:4;stroke-opacity:1;stroke-dasharray:none;stroke-dashoffset:0"
     id="rect4807"
     width="279.78543"
     height="91.398376"
     x="294.0676"
     y="313.13342"
     ry="1.3791592" />
  <path
     style="fill:none;stroke:#000000;stroke-width:1.17121685;stroke-linecap:butt;stroke-linejoin:miter;stroke-miterlimit:4;stroke-opacity:1;stroke-dasharray:none;marker-start:url(#Arrow1Lstart);marker-end:url(#Arrow1Lend)"
     d="m 392.22073,403.73439 c 0,-48.80884 0.82961,-89.18282 0.82961,-89.18282"
     id="path4817"
     inkscape:connector-curvature="0"
     sodipodi:nodetypes="cc" />
  <path
     style="fill:none;stroke:#000000;stroke-width:1.39999998;stroke-linecap:butt;stroke-linejoin:miter;stroke-miterlimit:4;stroke-opacity:1;stroke-dasharray:none"
     d="m 92.000004,95.937996 c 61.875006,0.125 93.500006,20.734384 163.345706,0.33008 45.44626,-13.27639 88.92425,-8.079 122.66992,0.24805 73.51564,18.140624 119.59975,3.31033 146.60939,0.29687 63.2981,-7.06216 64.375,0.625 64.375,0.625"
     id="path5486"
     inkscape:connector-curvature="0"
     sodipodi:nodetypes="csssc" />
  <path
     style="fill:none;stroke:#000000;stroke-width:1.39999998;stroke-linecap:butt;stroke-linejoin:miter;stroke-miterlimit:4;stroke-opacity:1;stroke-dasharray:none"
     d="m 91.030333,59.13502 c 61.874997,0.125 93.500007,20.73438 163.345707,0.33008 45.44626,-13.27639 88.92425,-8.079 122.66992,0.24805 73.51563,18.14062 119.59975,3.31033 146.60939,0.29687 63.2981,-7.06216 64.375,0.625 64.375,0.625"
     id="path5486-3"
     inkscape:connector-curvature="0"
     sodipodi:nodetypes="csssc" />
  <path
     style="fill:none;stroke:#000000;stroke-width:1.4738183;stroke-linecap:butt;stroke-linejoin:miter;stroke-miterlimit:4;stroke-opacity:1;stroke-dasharray:none"
     d="m 91.161322,14.46041 c 0,43.77017 0,45.1597 0,45.1597"
     id="path5513"
     inkscape:connector-curvature="0" />
  <path
     style="fill:none;stroke:#000000;stroke-width:1.48772001;stroke-linecap:butt;stroke-linejoin:miter;stroke-miterlimit:4;stroke-opacity:1;stroke-dasharray:none"
     d="m 588.53035,14.52033 c 0,44.5998 0,46.01566 0,46.01566"
     id="path5513-1"
     inkscape:connector-curvature="0" />
  <path
     style="fill:none;stroke:#000000;stroke-width:1.39999998;stroke-linecap:butt;stroke-linejoin:miter;stroke-miterlimit:4;stroke-opacity:1;stroke-dasharray:none"
     d="m 92.053532,458.54758 c 61.874998,-0.125 93.500018,-20.73438 163.345728,-0.33008 45.44625,13.27639 88.92424,8.079 122.66991,-0.24805 73.51563,-18.14062 119.59976,-3.31033 146.6094,-0.29687 63.2981,7.06216 64.375,-0.625 64.375,-0.625"
     id="path5486-3-2"
     inkscape:connector-curvature="0"
     sodipodi:nodetypes="csssc" />
  <path
     style="fill:none;stroke:#000000;stroke-width:1.4738183;stroke-linecap:butt;stroke-linejoin:miter;stroke-miterlimit:4;stroke-opacity:1;stroke-dasharray:none"
     d="m 91.184521,503.22219 c 0,-43.77017 0,-45.1597 0,-45.1597"
     id="path5513-7"
     inkscape:connector-curvature="0" />
  <path
     style="fill:none;stroke:#000000;stroke-width:1.48772001;stroke-linecap:butt;stroke-linejoin:miter;stroke-miterlimit:4;stroke-opacity:1;stroke-dasharray:none"
     d="m 589.73035,503.33905 c 0,-44.5998 0,-46.01566 0,-46.01566"
     id="path5513-1-7"
     inkscape:connector-curvature="0" />
  <path
     style="fill:none;stroke:#000000;stroke-width:1.39999998;stroke-linecap:butt;stroke-linejoin:miter;stroke-miterlimit:4;stroke-opacity:1;stroke-dasharray:none"
     d="m 91.618365,422.56998 c 61.875005,-0.125 93.500005,-20.73438 163.345705,-0.33008 45.44626,13.27639 88.92425,8.079 122.66992,-0.24805 73.51563,-18.14062 119.59975,-3.31033 146.60939,-0.29687 63.2981,7.06216 64.375,-0.625 64.375,-0.625"
     id="path5486-9"
     inkscape:connector-curvature="0"
     sodipodi:nodetypes="csssc" />
  <path
     style="fill:none;stroke:#000000;stroke-width:0.99999998;stroke-linecap:butt;stroke-linejoin:miter;stroke-miterlimit:4;stroke-opacity:1;stroke-dasharray:5.99999987,5.99999987;stroke-dashoffset:0"
     d="m 91.216779,58.282006 c 0,38.18377 0,38.18377 0,38.18377"
     id="path5575"
     inkscape:connector-curvature="0" />
  <path
     style="fill:none;stroke:#000000;stroke-width:0.99999998;stroke-linecap:butt;stroke-linejoin:miter;stroke-miterlimit:4;stroke-opacity:1;stroke-dasharray:3.99999991,7.99999983;stroke-dashoffset:0"
     d="m 589.50002,59.0961 c 0,38.18377 0,38.18377 0,38.18377"
     id="path5575-8"
     inkscape:connector-curvature="0" />
  <path
     style="fill:none;stroke:#000000;stroke-width:0.99999998;stroke-linecap:butt;stroke-linejoin:miter;stroke-miterlimit:4;stroke-opacity:1;stroke-dasharray:5.99999987,5.99999987;stroke-dashoffset:0"
     d="m 91.030041,421.658 c 0,38.18377 0,38.18377 0,38.18377"
     id="path5575-1"
     inkscape:connector-curvature="0" />
  <path
     style="fill:none;stroke:#000000;stroke-width:0.99999998;stroke-linecap:butt;stroke-linejoin:miter;stroke-miterlimit:4;stroke-opacity:1;stroke-dasharray:5.99999987,5.99999987;stroke-dashoffset:0"
     d="m 590.00002,419.59612 c 0,38.18377 0,38.18377 0,38.18377"
     id="path5575-0"
     inkscape:connector-curvature="0" />
</svg>
